<?xml version="1.0" encoding="utf-8"?>
<!-- Generator: Adobe Illustrator 22.0.1, SVG Export Plug-In . SVG Version: 6.00 Build 0)  -->
<svg version="1.1" id="Capa_1" xmlns="http://www.w3.org/2000/svg" xmlns:xlink="http://www.w3.org/1999/xlink" x="0px" y="0px"
	 viewBox="0 0 785.7 983.1" style="enable-background:new 0 0 785.7 983.1;" xml:space="preserve">
<g>
	<g>
		<path d="M51.6,883.4l341-100.1c3.1-0.9,5.9-2.1,8.6-3.6h-28.4H160.1h-42.9l-88.4,25.9C7.3,811.9-5,834.4,1.3,855.9
			C7.6,877.4,30.1,889.7,51.6,883.4z"/>
		<path d="M751.6,970.7c14.2-17.3,11.6-42.9-5.7-57l-163.7-134h-1.4h-13.5h-48.2h-64.9l240.3,196.7
			C711.9,990.6,737.4,988,751.6,970.7z"/>
		<path d="M585.6,754.7c-7.8-16-49.7-81.8-65.4-122.2H339.1c-39.1,30.1-148.3,98.9-179,122.2h42.2h218.1h3.3h128H585.6z"/>
		<path d="M83.2,132.8c0.7,4.8,31,3.2,32.3,7.8c1.4,4.7-25,19.6-23,24s30.6-5.7,33.2-1.7c2.6,4.1-18.4,25.9-15.3,29.5
			c3.2,3.6,27.7-14.1,31.4-10.9c3.6,3.2-10.4,30-6.4,32.6s22.6-21.3,27-19.3s-1.6,31.7,3.1,33.1c4,1.2,12.9-20.1,18.3-25.1
			c0.8-0.8,1.5-1.2,2.2-1.1c2.2,0.3,3.9,6.9,5.6,13.8c2,8.2,4,17,6.7,17c0.8,0,1.6-0.9,2.3-2.3c1.7-3.4,3.2-10.2,4.7-16.2
			c1.6-6.4,3.2-12.1,5.3-12.3c0.9-0.1,2,0.7,3.2,2.1L336.5,405c-5,9.1-7.9,20-7.9,31.6c0,16.4,8.2,31.7,13.5,47.5
			c5.9,17.4,17.1,90,13.6,123.4h158.5c-1.6-35.1,4.5-73.5,10.5-107.9c3.6-21,17.1-41.8,17.1-62.9c0-0.5,0-0.9,0-1.4
			c23.2,17.8,70.5,54,70.5,54c5.4,3.5,12.5,5.3,19.1,5.4c0.1,0,0.1,0,0.2,0c16.7,0,30.3-13.5,30.4-30.3l0.3-90.6
			c1.9,7.7,3.8,15.4,6.3,15.4s4.4-7.6,6.2-15.2c1.9-7.6,3.7-15.3,6.1-15.6c1.6-0.2,3.9,2.8,6.5,6.8c5,8.1,10.9,20.2,14,19.3
			c4.7-1.4-1.3-31.1,3.1-33.1c4.4-2,23,21.9,27,19.3c4.1-2.6-10-29.5-6.4-32.6c3.6-3.2,28.2,14.6,31.4,10.9
			c3.2-3.6-17.9-25.4-15.3-29.5c2.6-4,31.2,6.1,33.2,1.7s-24.3-19.3-23-24c1.3-4.6,31.6-3,32.3-7.8c0.7-4.7-28.8-11.6-28.8-16.5
			s29.5-11.8,28.8-16.5c-0.7-4.8-31-3.2-32.3-7.8c-1.4-4.7,25-19.6,23-24s-30.6,5.7-33.2,1.7c-2.6-4.1,18.4-25.9,15.3-29.5
			c-3.2-3.6-27.7,14.1-31.4,10.9c-3.6-3.2,10.4-30,6.4-32.6s-22.6,21.3-27,19.3c-4.4-2,1.6-31.7-3.1-33.1
			c-4.6-1.3-15.6,26.9-20.5,26.2c-4.7-0.7-7.4-30.9-12.3-30.9c-4.9,0-7.6,30.2-12.3,30.9c-4.8,0.7-15.9-27.5-20.5-26.2
			c-4.7,1.4,1.3,31.1-3.1,33.1s-23-21.9-27-19.3c-4.1,2.6,10,29.5,6.4,32.6c-3.6,3.2-28.2-14.6-31.4-10.9
			c-3.2,3.6,17.9,25.4,15.3,29.5c-2.6,4-31.2-6.1-33.2-1.7s24.3,19.3,23,24c-1.3,4.6-31.6,3-32.3,7.8c-0.7,4.7,28.8,11.6,28.8,16.5
			s-29.5,11.8-28.8,16.5c0.6,4.3,24.8,3.5,30.9,6.5c0.7,0.4,1.2,0.8,1.4,1.3c0.5,1.6-2.2,4.3-5.9,7.4c-7.3,6.1-18.4,13.7-17.1,16.6
			c0.9,1.9,6.6,1.1,13.1-0.1c4.4-0.8,9.1-1.8,12.9-2.3c3.7-0.5,6.5-0.5,7.3,0.7c1.3,2-3.3,8.5-7.8,14.9c-4.6,6.4-9.1,12.8-7.5,14.6
			c1,1.1,3.8,0.3,7.5-1.4c3.8-1.7,8.3-4.1,12.5-6.2l0.2,68.1l-71.3-55.3c-11.8-9.3-29.6-9.3-43.6-9.3c-30.7,0-65,0-106.3,0
			c-5.9,0-11.4-3.1-14.5-8.2l-27-44.3c5,0.9,10.1,1,15,0.6c4.6-0.4,9.1-1.2,13.3-2.2c3.3-0.8,6.5-1.8,9.4-2.8
			c9.6,11.1,21.4,24.8,35.6,32c4.3,2.2,8.9,3.8,13.7,4.5c9.5,1.4,19.2-0.7,28.5-4.5c10.6-4.3,20.6-10.6,29.3-16.2
			c12.8,9.4,32.3,19.6,53,13.9c-2.4-11.2-4.1-22.5-5.3-33.9c-3.2-30.4,4-59.8-11.7-87.8c-14.2-25.3-39.2-45.6-67.4-49.8
			c-28.2-4.2-58,8.1-78.9,28.2c-20.8,20-24.2,46.4-33.3,72c-1,2.9-2.1,5.8-3.4,8.7c-0.8,1.9-1.6,3.8-2.5,5.7
			c-2,4.6-4.1,9.1-6.3,13.6l-51.8-84.9c5.2,2.6,9.7,4.4,10.9,3c3.2-3.6-17.9-25.4-15.3-29.5c0.3-0.5,1.1-0.8,2.3-0.9
			c3.4-0.3,9.8,1,16,2.2c7.2,1.4,14,2.5,15,0.4c2-4.4-24.3-19.3-23-24c1.3-4.6,31.6-3,32.3-7.8c0.7-4.7-28.8-11.6-28.8-16.5
			s29.5-11.8,28.8-16.5c-0.7-4.8-31-3.2-32.3-7.8c-1.4-4.7,25-19.6,23-24s-30.6,5.7-33.2,1.7c-2.6-4.1,18.4-25.9,15.3-29.5
			c-3.2-3.6-27.7,14.1-31.4,10.9c-3.6-3.2,10.4-30,6.4-32.6s-22.6,21.3-27,19.3c-4.4-2,1.6-31.7-3.1-33.1
			c-4.6-1.3-15.6,26.9-20.5,26.2c-5-0.8-7.7-31-12.6-31c-4.9,0-7.6,30.2-12.3,30.9c-4.8,0.7-15.9-27.5-20.5-26.2
			c-4.7,1.4,1.3,31.1-3.1,33.1c-4.4,2-23-21.9-27-19.3c-4.1,2.6,10,29.5,6.4,32.6c-3.6,3.2-28.2-14.6-31.4-10.9
			c-3.2,3.6,17.9,25.4,15.3,29.5c-2.6,4-31.2-6.1-33.2-1.7s24.3,19.3,23,24c-1.3,4.6-31.6,3-32.3,7.8c-0.7,4.7,28.8,11.6,28.8,16.5
			C112,121.2,82.5,128.1,83.2,132.8z"/>
	</g>
</g>
</svg>
