<?xml version="1.0" encoding="iso-8859-1"?>
<!-- Generator: Adobe Illustrator 19.0.0, SVG Export Plug-In . SVG Version: 6.00 Build 0)  -->
<svg version="1.1" id="Capa_1" xmlns="http://www.w3.org/2000/svg" xmlns:xlink="http://www.w3.org/1999/xlink" x="0px" y="0px"
	 viewBox="0 0 512.001 512.001" style="enable-background:new 0 0 512.001 512.001;" xml:space="preserve">
<g>
	<g>
		<path d="M443.415,186.08l-21.211,21.211l32.374,32.374H347.53c-1.336-78.989-12.508-139.526-33.26-180.099
			C289.101,10.36,255.278,0.031,231.334,0.031h-49.329v29.998h24.323v209.636h-65.447l-44.32-40.028H0l26.534,55.027L0,309.693
			h96.561l44.321-40.029h65.447v212.308h-24.323v29.998h49.329c23.943,0,57.767-10.328,82.935-59.534
			c20.985-41.028,32.168-102.479,33.297-182.771h107.013l-32.374,32.375l21.211,21.211l68.585-68.585L443.415,186.08z
			 M85.02,279.695H47.767l12.069-25.03l-12.069-25.029h37.251l27.713,25.029L85.02,279.695z M236.324,30.28L236.324,30.28
			c20.448,2,37.667,16.415,51.237,42.946c18.631,36.425,28.693,92.372,29.965,166.439h-81.202V30.28z M287.561,438.774
			c-13.57,26.531-30.79,40.946-51.236,42.946V269.663h81.243C316.494,345.057,306.416,401.913,287.561,438.774z"/>
	</g>
</g>
<g>
</g>
<g>
</g>
<g>
</g>
<g>
</g>
<g>
</g>
<g>
</g>
<g>
</g>
<g>
</g>
<g>
</g>
<g>
</g>
<g>
</g>
<g>
</g>
<g>
</g>
<g>
</g>
<g>
</g>
</svg>
