<?xml version="1.0" encoding="utf-8"?>
<!-- Generator: Adobe Illustrator 22.0.1, SVG Export Plug-In . SVG Version: 6.00 Build 0)  -->
<svg version="1.1" id="Layer_1" xmlns="http://www.w3.org/2000/svg" xmlns:xlink="http://www.w3.org/1999/xlink" x="0px" y="0px"
	 viewBox="0 0 1024 1024" style="enable-background:new 0 0 1024 1024;" xml:space="preserve">
<g>
	<path d="M134.4,476.3c0,5.5-2.4,10-7.3,13.7c-7.2,5.5-16.2,8.2-27,8.2H70v-40h35.9c2.3,0,4.4,0.1,6.4,0.3c-1.3-1.1-2.6-2.3-3.8-3.4
		c-1.8-0.8-3.6-1.6-5.4-2.5c-14.1-6.6-26.7-14.2-37.4-22.1H38.1c-6.6,0-11.3,1.3-14.2,3.8c-2.8,2.6-4.2,5.9-4.2,10
		c0,4.1,1.4,7.5,4.2,10c2.8,2.6,7.5,3.8,14.2,3.8h4.3v107.7h-4.3c-6.5,0-11.2,1.3-14.1,3.8c-2.9,2.6-4.3,5.8-4.3,9.9
		c0,4.1,1.4,7.5,4.2,10c2.8,2.6,7.5,3.8,14.2,3.8H119c9.9,0,18.2-1.2,24.8-3.6c6.6-2.4,12.2-5.4,16.8-9.2c3.4-2.7,6.3-6.3,8.6-10.9
		c3.1-6,4.7-12.5,4.7-19.5c0-8.8-2.2-16.6-6.5-23.6c-4.3-6.9-10.9-13-19.5-18.2c4.7-4.5,8.3-9.4,10.6-14.6c0.3-0.7,0.6-1.4,0.9-2.2
		c-8.9-5.2-17.3-10.6-24.9-16C134.4,476,134.4,476.1,134.4,476.3z M146.4,550.2c0,4.7-1.7,8.2-5.2,10.7c-4.6,3.3-12.4,5-23.6,5H70
		v-40.1h36.4c12.9,0,22.8,2.7,29.7,8.1C142.9,539.2,146.4,544.7,146.4,550.2z"/>
	<path d="M305.6,565.9h-70.2v-32c-10-4.7-19.2-9.9-27.5-15.5v47.5h-4.3c-6.5,0-11.2,1.3-14.1,3.8c-2.9,2.6-4.3,5.8-4.3,9.9
		c0,4.1,1.4,7.5,4.2,10c2.8,2.6,7.5,3.8,14.2,3.8h129.6v-20.8c-9.6-4.7-18.8-9.5-27.5-14.3V565.9z"/>
	<path d="M609.5,497l44.3-38.8c6,0,10.4-1.3,13.2-3.9c2.8-2.6,4.2-5.9,4.2-9.9c0-4.1-1.4-7.4-4.2-9.9c-2.8-2.5-7.5-3.8-14.2-3.8
		l-28.1-0.1c-6.6,0-11.3,1.3-14.2,3.9c-2.8,2.6-4.2,6-4.2,10.2c0,2.6,0.5,4.8,1.6,6.6c1.1,1.8,3,3.7,5.9,5.8l-20.3,17.4
		c2.7,2.9,5.3,6.1,7.8,9.5C604.5,488.3,607.2,492.6,609.5,497z"/>
	<path d="M589.1,454.4c2.8-2.6,4.2-5.9,4.2-10c0-4.1-1.4-7.4-4.2-9.9c-2.8-2.5-7.5-3.8-14.2-3.8l-6.9,0c4.5,9.3,8.1,18.6,10.7,27.4
		C583.5,457.6,586.9,456.4,589.1,454.4z"/>
	<path d="M754.8,593.6c2.3,1.3,4.6,2.5,6.8,3.8c19.3-0.7,36.3-8.8,51.1-24.3c15.5-16.2,23.3-36.6,23.3-61c0-24.5-7.8-44.9-23.3-61.2
		c-15.5-16.2-33.5-24.4-53.9-24.4c-18.4,0-34.9,6.8-49.7,20.3c-18.3,16.8-27.4,38.6-27.4,65.3c0,14.6,2.7,27.6,8.2,39.2
		c14.5,9.8,28,19.8,40.3,29.8C738.1,584.8,746.3,589,754.8,593.6z M724.4,553.5c-10.1-11-15.2-24.8-15.2-41.4s5.1-30.5,15.2-41.5
		c10.1-11,21.6-16.5,34.4-16.5c12.9,0,24.4,5.5,34.5,16.4c10.1,11,15.2,24.8,15.2,41.6c0,16.7-5.1,30.6-15.2,41.5
		c-10.1,10.9-21.6,16.4-34.5,16.4C746,569.9,734.5,564.5,724.4,553.5z"/>
	<path d="M857.5,458.2h4.3v107.7c-5.8,0-10.1,1.3-12.9,3.9c-2.8,2.6-4.2,5.9-4.2,9.8c0,4.1,1.4,7.5,4.2,10c2.8,2.6,7.5,3.8,14.2,3.8
		h36.1c6.6,0,11.3-1.3,14.2-3.8c2.8-2.6,4.2-5.8,4.2-9.9c0-4.1-1.4-7.5-4.2-10c-2.8-2.6-7.5-3.8-14.2-3.8h-9.9v-83.3l70.8,110.8
		h27.3V458.2c5.7,0,10-1.3,12.8-3.9c2.8-2.6,4.2-5.9,4.2-9.9c0-4.1-1.4-7.4-4.2-9.9c-2.8-2.5-7.5-3.8-14.2-3.8l-36.1-0.1
		c-6.6,0-11.3,1.3-14.2,3.8c-2.8,2.6-4.2,5.9-4.2,10c0,4.1,1.4,7.5,4.2,10c2.8,2.6,7.5,3.8,14.2,3.8h9.9v82.8l-70.4-110.4l-31.8-0.1
		c-6.6,0-11.3,1.3-14.2,3.8c-2.8,2.6-4.2,5.9-4.2,10c0,4.1,1.4,7.5,4.2,10C846.1,456.9,850.9,458.2,857.5,458.2z"/>
	<path d="M565,458.2V499l28.6-24.6c-4.4-4.8-9-9-13.6-12.3c-0.4-1.3-0.8-2.7-1.2-4.1c-1.2,0.1-2.5,0.2-3.9,0.2H565z"/>
	<path d="M857.4,639.6c-23.2-10.5-46.2-19-68.2-25.5c-8.3-5.4-17.6-11-27.7-16.7c-0.9,0-1.8,0.1-2.8,0.1c-18.4,0-34.9-6.8-49.7-20.3
		c-8.3-7.6-14.7-16.3-19.2-25.9c-19.8-13.5-41.4-26.7-64.5-39.2c-3.9-2.1-7.9-4.2-11.8-6.3c-1.2-2.9-2.5-5.8-4.1-8.8l-5.1,4.5
		c9.2,5.3,17.9,13.3,26,24.2c8.1,10.8,15.3,24.3,21.6,40.3h7.4c6.5,0,11.2,1.3,14,3.8c2.8,2.6,4.2,5.9,4.2,10c0,4-1.4,7.3-4.2,9.9
		c-2.8,2.6-7.5,3.8-14.1,3.8h-25c-5.7-13.7-12-26.8-18.8-39.2c-5.6-10.1-10.8-17.5-15.8-22.1c-5-4.6-10.9-8.3-17.8-11.1L565,535.4
		v30.5h9.9c6.6,0,11.3,1.3,14.2,3.8c2.8,2.6,4.2,5.9,4.2,10c0,4-1.4,7.3-4.2,9.9c-2.8,2.6-7.5,3.8-14.2,3.8h-41.8
		c-6.6,0-11.3-1.3-14.2-3.8c-2.8-2.6-4.2-5.9-4.2-10c0-4,1.4-7.3,4.3-9.9c2.9-2.6,7.6-3.8,14.1-3.8h4.3V458.2h-4.3
		c-6.6,0-11.3-1.3-14.2-3.8c-2.8-2.6-4.2-5.9-4.2-10c0-4.1,1.4-7.5,4.2-10c2.8-2.6,7.5-3.8,14.2-3.8l34.9,0.1
		c-2.3-4.9-4.9-9.8-7.8-14.7c-15.2-26.3-34.1-46.8-51.5-57.7c-2.7-2.6-5.6-5.2-8.5-7.7c-29.5-25.3-62.6-40.1-90.6-42.8
		c-4.6-11.5-11.3-23.5-20.2-35c-28.7-37.3-68.3-55.1-88.3-39.7c-20.1,15.4-13.1,58.2,15.7,95.5c9,11.7,19.1,21.5,29.3,28.9
		c0,10.1,2.1,21.1,6.3,32.4c-6.8-1.9-13.8-3.5-21-5c-27.9-5.5-54.9-6.6-78.9-3.9c3.7-12.2,5.9-27,6.1-43
		c10.5,10.1,21.5,16.7,30.6,18.4c6,15.3,16.8,25.2,25.3,22.5c9.3-2.9,12.4-19.6,6.9-37.3c-3.8-12.3-10.8-21.8-17.8-25.6
		c-3.3-7.7-8-15.7-14-23.5c-17.5-22.8-39.9-35.5-52.6-30.7c-3.7-3.3-7.7-5.1-11.9-5.1c-18.5,0-33.4,35.3-33.4,78.8
		c0,8.4,0.6,16.4,1.6,24c-3.3,8.2-5.3,18.6-5.3,30c0,4.1,0.3,8,0.7,11.8c-3.3,2.1-6.3,4.4-9.1,6.7c-11.8-9.6-26.6-18.8-43.4-26.7
		c-21.3-10-42.2-16.1-59.8-18.2c0.9-9.3,0.2-19.7-2.4-30.5c-4.6-18.9-14-34.4-24.8-42.6c7.7-8.4,14.7-20.3,19.4-34.3
		c10.4-31,5.6-60.6-10.7-66c-16.2-5.4-37.8,15.3-48.2,46.4c-3.4,10.2-5.2,20.2-5.4,29.2c-3.6,5.7-6,15.2-6,26
		c0,12.6,3.2,23.5,7.9,28.5c-0.7,8.8,0.1,18.6,2.5,28.6c1.8,7.5,4.4,14.5,7.6,20.7c-3,7.2-1.5,18.6,4.7,29.3
		c7.6,13.1,19.5,20.8,28.1,18.5c4.7,4.6,10.1,9.1,16.1,13.6h41.7c16.5,0,29.7,4.6,39.7,13.8c10,9.2,15,20.1,15,32.7
		c0,5.2-0.9,10.1-2.6,14.8c0.9,0.5,1.8,1.1,2.7,1.6c12.8,7.4,25.3,13.6,37,18.7c2.8,2.2,5.8,4.3,8.8,6.3v-60.2h-4.3
		c-6.6,0-11.3-1.3-14.2-3.8c-2.8-2.6-4.2-5.9-4.2-10c0-4.1,1.4-7.5,4.2-10c2.8-2.6,7.5-3.8,14.2-3.8l123.5,0.1v41.9
		c0,6.5-1.3,11.2-3.8,14c-2.5,2.8-5.8,4.2-9.9,4.2c-4.1,0-7.5-1.4-10-4.2c-2.6-2.8-3.8-7.5-3.8-14.1v-14.4h-64.2V498h24.2
		c0-7.2,0.7-11.8,2-13.8c2.8-4.4,6.7-6.6,11.8-6.6c4,0,7.3,1.4,9.9,4.2c2.6,2.8,3.8,7.5,3.8,14.2v31.7c0,6-0.7,10-2.1,12.1
		c-2.9,4.2-6.7,6.3-11.5,6.3c-5.1,0-9-2.2-11.8-6.6c-1.3-2.1-2-6.7-2-14h-24.2v8.4c18.6,8.8,39.8,15.8,62.8,20.3
		c0.2,0,0.3,0.1,0.5,0.1c2.3,1.3,4.6,2.6,7,3.9V551c0-6.6,1.3-11.3,3.8-14.2c2.6-2.8,5.9-4.2,10-4.2c4,0,7.3,1.4,9.9,4.2
		c2.6,2.8,3.8,7.5,3.8,14.2v21.6c15,7.4,31.1,14.5,48,21.3c36.1,14.4,70.8,25,100.9,31.4c19,12.8,39.7,25.4,61.6,37.3
		c29.2,15.8,58,29.2,85.4,39.8c9,5.7,19.1,11.7,30,17.5c9.7,5.3,19.2,10,28,14.2c27.4,21.3,61.8,42.1,100.8,59.7
		c110.3,49.7,215.2,55.5,234.4,13C1041.5,764.1,967.7,689.3,857.4,639.6z M496.3,575.4c-5.5,6.3-12.5,11.2-21.1,14.8
		c-11.5,4.8-24.3,7.3-38.3,7.3c-16.3,0-31-3.4-44-10.1c-10.6-5.4-19.6-13.9-27-25.4c-7.4-11.6-11.1-24.2-11.1-37.9v-18.7
		c0-14.3,3.3-27.7,10-40.1c6.7-12.4,15.9-22,27.7-28.7s24.3-10.1,37.6-10.1c8,0,15.4,0.9,22.4,2.8c6.9,1.8,13.4,4.6,19.4,8.4
		c1.7-2.3,3.6-4.1,5.6-5.2c2-1.2,4.2-1.7,6.5-1.7c4,0,7.3,1.4,9.9,4.2c2.6,2.8,3.8,7.5,3.8,14.1v23.4c0,6.6-1.3,11.3-3.8,14.2
		c-2.6,2.8-5.8,4.2-9.9,4.2c-3.7,0-6.6-1-8.9-3.1c-2.2-2.1-3.9-5.9-5-11.5c-0.6-3.8-1.9-6.7-3.8-8.7c-3.7-4-8.8-7.3-15.4-9.7
		c-6.6-2.4-13.2-3.6-19.8-3.6c-8.2,0-15.8,1.8-22.7,5.4c-6.9,3.6-13,9.4-18.3,17.5c-5.3,8.1-7.9,17.6-7.9,28.7v17.9
		c0,13.2,4.8,24.3,14.4,33.2c9.6,8.9,23,13.3,40.1,13.3c10.2,0,18.8-1.4,25.9-4.2c4.1-1.6,8.5-4.8,13.2-9.5c2.9-2.9,5.1-4.7,6.7-5.6
		c1.6-0.8,3.4-1.3,5.5-1.3c3.7,0,6.9,1.4,9.7,4.2c2.8,2.8,4.2,6,4.2,9.8S500,571.1,496.3,575.4z"/>
	<path d="M127.6,463.7c-3.5-2.8-8.7-4.5-15.4-5.2c6.5,5.6,13.9,11.4,22.2,17.2C134.2,471.2,131.9,467.1,127.6,463.7z"/>
</g>
</svg>
