<?xml version="1.0" encoding="utf-8"?>
<!-- Generator: Adobe Illustrator 22.0.1, SVG Export Plug-In . SVG Version: 6.00 Build 0)  -->
<svg version="1.1" id="Layer_1" xmlns="http://www.w3.org/2000/svg" xmlns:xlink="http://www.w3.org/1999/xlink" x="0px" y="0px"
	 viewBox="0 0 1024 1024" style="enable-background:new 0 0 1024 1024;" xml:space="preserve">
<g>
	<path d="M231.3,433.8h46.1c14.5,0,25,2.6,31.6,7.9s10,11.4,10,18.5c0,7.6-3.2,14-9.6,19.2h47c1.8-5.8,2.7-11.9,2.7-18.2
		c0-18.4-7.3-34.2-21.9-47.6c-14.6-13.3-33.9-20-57.8-20H179c-9.6,0-16.5,1.9-20.6,5.6c-0.1,0.1-0.1,0.1-0.2,0.2h34.9L231.3,433.8z"
		/>
	<path d="M321.4,543.8c10,7.8,15,15.8,15,23.8c0,6.8-2.5,12-7.6,15.6c-6.6,4.8-18.1,7.2-34.4,7.2h-69.1v-0.1l-32.2,29h-38.9
		c1,2,2.4,3.9,4.2,5.5c4.1,3.7,11,5.6,20.6,5.6h117.6c14.5,0,26.5-1.7,36.1-5.2c9.6-3.4,17.8-7.9,24.4-13.4
		c4.9-3.9,9.1-9.2,12.5-15.8c4.6-8.7,6.8-18.2,6.8-28.3c0-10.4-2.1-19.8-6.2-28.4h-55.8C316.9,540.7,319.3,542.2,321.4,543.8z"/>
	<polygon points="225.5,509.4 185.2,473.1 185.2,545.7 	"/>
	<path d="M412.7,444.2c-6.5,10.8-11.2,22.5-14.1,35.2h14.1V444.2z"/>
	<path d="M397.4,539.4c2.7,14.8,7.8,28.4,15.2,40.6v-40.6H397.4z"/>
	<path d="M507.1,387.7c-12,0-23.5,2-34.5,6v44.6c10.6-7,22.1-10.6,34.5-10.6c18.8,0,35.5,8,50.2,23.9c7.5,8.1,13.1,17.4,16.8,27.7
		h41.8c-4.9-21.5-15.1-40.2-30.3-56.2C562.9,399.6,536.8,387.7,507.1,387.7z"/>
	<path d="M557.3,572.5c-14.7,15.9-31.4,23.8-50.2,23.8c-12.4,0-23.8-3.5-34.5-10.5v44.6c11,4,22.5,6,34.5,6
		c29.7,0,55.8-11.8,78.4-35.4c16.6-17.3,27-37.8,31.5-61.5h-41.2C572.3,551.9,566.1,563,557.3,572.5z"/>
	<polygon points="799.5,545.8 797.4,539.4 754.8,539.4 785.6,630.5 829.8,630.5 840.5,539.4 800.3,539.4 	"/>
	<path d="M622.7,414.3c0,5.3,1.6,9.7,4.7,13.2c1.6,1.8,3.7,3.2,6.1,4.3c-0.5-11.8-1.2-23.3-2-34.5c-1,0.6-1.9,1.2-2.7,2
		C624.8,403,622.7,408.1,622.7,414.3z"/>
	<path d="M695.2,545.8l-0.2-1.3c-0.5,30-1.7,58.7-3.6,86.1H710l29.7-91.1h-42.4L695.2,545.8z"/>
	<path d="M852.8,433.8c3.1-0.5,5.8-1.4,8.2-2.6l-16.6-16.6l17.7-17.7c-4.1-2.1-9.8-3.1-17.1-3.1l-53.1-0.2c-9.6,0-16.5,1.9-20.6,5.6
		s-6.2,8.6-6.2,14.6c0,6,2.1,10.8,6.2,14.6s11,5.6,20.6,5.6h20.9l-5.4,45.6h40.1L852.8,433.8z"/>
	<polygon points="768.3,452.6 726.6,452.6 717.6,479.4 777.2,479.4 	"/>
	<path d="M702.8,433.8c9.6,0,16.5-1.9,20.6-5.6s6.2-8.6,6.2-14.6c0-6-2.1-10.8-6.2-14.5c-4.1-3.6-11-5.5-20.6-5.5l-11.4,0
		c0.9,13.1,1.7,26.4,2.3,40.1H702.8z"/>
	<path d="M641.3,433.8c-2.9-0.4-5.5-1.1-7.7-2c0.7,15.4,1.2,31.3,1.5,47.6h-19.2c2.4,10.3,3.6,21.2,3.6,32.8
		c0,9.5-0.8,18.6-2.4,27.2h18.1c-2.1,150.8-22.3,264.5-60,338.2c-27.1,53.1-61.6,81.9-102.5,85.9V630.4c-13.4-4.9-26-12.7-37.8-23.5
		c-8.9-8.1-16.3-17.1-22.2-26.9v384H364v60h98.7c47.9,0,115.5-20.7,165.9-119.1c33.6-65.8,54.7-157.8,62.9-274.4h-26.3L641.3,433.8z
		"/>
	<path d="M695,544.5c0-1.7,0.1-3.4,0.1-5.1h2.2l20.3-60h-22.5c-0.3-15.5-0.7-30.7-1.4-45.6h-11.8L695,544.5z"/>
	<path d="M575.8,539.4c2.4-8.4,3.6-17.5,3.6-27.2c0-11.9-1.8-22.9-5.3-32.8H472.6v-41c-5.4,3.6-10.6,8-15.5,13.4
		c-14.7,16-22.1,36.1-22.1,60.4s7.4,44.3,22.1,60.3c5,5.4,10.1,9.8,15.5,13.4v-46.4H575.8z"/>
	<path d="M158.5,596c4.2-3.7,11-5.6,20.5-5.6h6.3v-44.8L170,559.5H95.5l24.1-50.1l-24.1-50.1H170l15.2,13.7v-39.2H179
		c-9.6,0-16.5-1.9-20.6-5.6s-6.2-8.6-6.2-14.6c0-5.9,2-10.7,6-14.4H0l53.1,110.1L0,619.4h154.2c-1.3-2.7-2-5.7-2-9
		C152.2,604.5,154.3,599.8,158.5,596z"/>
	<path d="M434.9,417.2c11.8-10.8,24.4-18.6,37.8-23.5V60.6c40.9,4,75.3,32.8,102.5,85.9c30,58.7,48.9,142.8,56.5,250.8
		c4.2-2.5,10.1-3.7,17.9-3.7l41.9,0.2c-8.2-116.7-29.2-208.8-62.9-274.6C578.2,20.8,510.6,0.1,462.7,0.1H364v60h48.6v384.1
		C418.6,434.4,426,425.4,434.9,417.2z"/>
	<polygon points="800.3,539.4 807.4,479.4 777.2,479.4 797.4,539.4 	"/>
	<path d="M886.8,372.2l-24.7,24.7c1.3,0.7,2.5,1.5,3.5,2.3c4.1,3.6,6.2,8.5,6.2,14.5c0,5.1-1.6,9.4-4.9,13.1
		c-1.6,1.8-3.6,3.3-5.9,4.4l48.1,48.1h-61.7l-7,60h68.7l-64.7,64.7l42.4,42.4L1024,509.4L886.8,372.2z"/>
	<path d="M231.3,433.8h-6V492h43.9c15.8,0,28.8-4,39.3-11.9c0.3-0.2,0.6-0.5,0.9-0.7h-27.7L231.3,433.8z"/>
	<path d="M314.4,539.4c-9.4-4.9-21.4-7.3-36.2-7.3h-52.9v58.3l56.5-51H314.4z"/>
	<path d="M398.6,479.4h-42.2c-0.7,2.2-1.5,4.3-2.4,6.4c-3.4,7.7-8.5,14.8-15.4,21.3c12.6,7.6,22.1,16.4,28.4,26.5
		c1.2,1.9,2.3,3.8,3.2,5.8h27.2c-1.6-8.6-2.4-17.7-2.4-27.2C395,500.6,396.2,489.7,398.6,479.4z"/>
	<polygon points="739.8,539.4 754.8,539.4 747.2,516.8 	"/>
</g>
</svg>
