<?xml version="1.0" encoding="utf-8"?>
<!-- Generator: Adobe Illustrator 22.0.1, SVG Export Plug-In . SVG Version: 6.00 Build 0)  -->
<svg version="1.1" id="Capa_1" xmlns="http://www.w3.org/2000/svg" xmlns:xlink="http://www.w3.org/1999/xlink" x="0px" y="0px"
	 viewBox="0 0 16.1 13.3" style="enable-background:new 0 0 16.1 13.3;" xml:space="preserve">
<style type="text/css">
	.st0{fill:#030104;}
</style>
<g>
	<g>
		<path class="st0" d="M6.5,2.1C2.9,2.1,0,4.3,0,7.1c0,1.4,0.7,2.6,1.8,3.5c-0.1,0.9-0.3,2-0.9,2.6c1.3,0,2.6-0.8,3.4-1.4
			C5,12,5.7,12.1,6.5,12.1c3.6,0,6.5-2.2,6.5-5C13,4.3,10.1,2.1,6.5,2.1z"/>
		<path class="st0" d="M15.1,7.6C15.7,6.8,16,6,16,5.1c0-2.8-2.9-5-6.5-5c-1.6,0-3,0.4-4.2,1.2C5.9,1.1,6.4,1.1,7,1.1
			c3.9,0,7,2.5,7,5.5c0,1.2-0.5,2.3-1.3,3.2c0.8,0.6,2.1,1.4,3.4,1.4C15.2,10.4,15.1,8.4,15.1,7.6z"/>
	</g>
</g>
</svg>
