<?xml version="1.0" encoding="utf-8"?>
<!-- Generator: Adobe Illustrator 22.0.1, SVG Export Plug-In . SVG Version: 6.00 Build 0)  -->
<svg version="1.1" id="Layer_1" xmlns="http://www.w3.org/2000/svg" xmlns:xlink="http://www.w3.org/1999/xlink" x="0px" y="0px"
	 viewBox="0 0 1024 1024" style="enable-background:new 0 0 1024 1024;" xml:space="preserve">
<g>
	<path d="M153.1,605.2c15.2,0,29.2-2.6,41.7-7.9c9.4-3.9,17-9.3,23-16.1c4.1-4.7,6.2-9.1,6.2-13.2s-1.5-7.7-4.5-10.7
		c-3-3-6.5-4.5-10.5-4.5c-2.2,0-4.2,0.5-6,1.4c-1.8,0.9-4.2,3-7.3,6.1c-5.1,5.2-9.9,8.6-14.4,10.4c-7.7,3-17.1,4.5-28.3,4.5
		c-18.7,0-33.2-4.8-43.7-14.5C98.7,551,93.5,539,93.5,524.5V505c0-12.1,2.9-22.6,8.6-31.3c5.8-8.8,12.4-15.1,19.9-19
		c7.5-3.9,15.8-5.9,24.8-5.9c7.2,0,14.4,1.3,21.6,4s12.8,6.2,16.8,10.5c2.1,2.2,3.4,5.4,4.1,9.5c1.2,6.2,3,10.4,5.4,12.6
		c2.4,2.2,5.7,3.4,9.7,3.4c4.4,0,8-1.5,10.8-4.6s4.2-8.2,4.2-15.5v-25.5c0-7.2-1.4-12.4-4.2-15.4c-2.8-3-6.4-4.5-10.8-4.5
		c-2.5,0-4.9,0.6-7.1,1.9c-2.2,1.3-4.2,3.2-6.1,5.7c-6.5-4.1-13.6-7.2-21.2-9.2c-7.6-2-15.7-3-24.4-3c-14.5,0-28.1,3.7-41,11
		s-23,17.8-30.2,31.3c-7.3,13.5-10.9,28.1-10.9,43.7v20.4c0,14.9,4.1,28.7,12.2,41.4c8.1,12.6,17.9,21.9,29.4,27.8
		C119.3,601.6,135.3,605.2,153.1,605.2z"/>
	<path d="M247.9,573c-4.8,3-7.2,7.3-7.2,12.7c0,4.5,1.5,8.1,4.6,10.9s8.2,4.2,15.5,4.2h36.8c7.2,0,12.4-1.4,15.5-4.2
		s4.6-6.4,4.6-10.8c0-4.5-1.5-8.1-4.6-10.9s-8.2-4.2-15.5-4.2h-4.7v-43.5H357v43.5h-4.7c-7.1,0-12.3,1.4-15.4,4.2
		c-3.1,2.8-4.7,6.4-4.7,10.8c0,4.5,1.5,8.1,4.6,10.9s8.2,4.2,15.5,4.2h36.8c7.2,0,12.4-1.4,15.5-4.2s4.6-6.4,4.6-10.8
		c0-5.6-2.4-9.9-7.2-12.9c-2.2-1.5-7.2-2.2-14.9-2.2V453.3c5.3-0.5,9.3-2.1,11.9-4.8c2.7-2.7,4-6.2,4-10.3c0-4.5-1.5-8.1-4.6-10.8
		c-3.1-2.7-8.2-4.1-15.5-4.1l-30.6-0.1c-7.2,0-12.4,1.4-15.5,4.2s-4.6,6.4-4.6,10.9c0,4.5,1.5,8.1,4.6,10.9s8.2,4.2,15.5,4.2h4.7
		v43.9h-64.2v-43.9h4.7c7.2,0,12.4-1.4,15.5-4.2s4.6-6.4,4.6-10.9c0-4.5-1.5-8.1-4.6-10.8c-3.1-2.7-8.2-4.1-15.5-4.1l-30.6-0.1
		c-7.2,0-12.4,1.4-15.5,4.2s-4.6,6.4-4.6,10.9c0,4.1,1.3,7.5,4,10.3c2.7,2.7,6.7,4.3,11.9,4.8v117.5
		C255.2,570.7,250.2,571.4,247.9,573z"/>
	<path d="M446.5,453.6c0-11.1,2.5-21.5,7-30.5l-14.8,0c-7.2,0-12.4,1.4-15.5,4.2s-4.6,6.4-4.6,10.9c0,4.5,1.5,8.1,4.6,10.9
		s8.2,4.2,15.5,4.2h4.7v117.5h-4.7c-7.1,0-12.3,1.4-15.4,4.2c-3.1,2.8-4.7,6.4-4.7,10.8c0,4.5,1.5,8.1,4.6,10.9s8.2,4.2,15.5,4.2
		h36.3c-1.9-37-9.7-84.1-14.4-97.9C455,486.6,446.5,470.7,446.5,453.6z"/>
	<path d="M694.8,474.4c-5.6,0-9.9,2.4-12.9,7.2c-1.5,2.2-2.2,7.3-2.2,15.1h-23c-2.7,7.5-5.2,14.9-6.5,22.4
		c-4.5,26-9.1,54.3-10.6,81.8H760v-46.3c0-7.2-1.4-12.4-4.2-15.5s-6.4-4.6-10.8-4.6c-4.5,0-8.1,1.5-10.9,4.6s-4.2,8.2-4.2,15.5v16.3
		h-76.6v-44.1h26.4c0,7.9,0.7,13,2.2,15.2c3,4.8,7.3,7.2,12.9,7.2c5.3,0,9.5-2.3,12.6-6.9c1.6-2.2,2.3-6.6,2.3-13.2v-34.6
		c0-4.8-0.6-8.7-1.9-11.6c-3.5-2.7-7.2-5.5-10.8-8.3C696.4,474.5,695.6,474.4,694.8,474.4z"/>
	<polygon points="729.5,423.3 726.7,423.3 729.5,425.5 	"/>
	<path d="M668,453.3h1.4c-0.5-0.4-0.9-0.7-1.4-1.1C668,452.7,668,453,668,453.3z"/>
	<path d="M953.9,573.2c-2.4-1.6-7.5-2.3-15.1-2.3c-7.6-11.8-13.7-20.5-18.2-26.1c-7.2-8.7-14-15.8-20.4-21.4
		c11-6,19.3-12.8,24.8-20.4c5.5-7.7,8.2-16.2,8.2-25.6c0-15-5.8-27.8-17.5-38.3c-11.7-10.5-28.1-15.7-49.3-15.7l-68-0.1
		c-2,0-3.8,0.1-5.5,0.3L793,453c1.7,0.2,3.5,0.3,5.6,0.3h4.7v117.5h-4.7c-7.1,0-12.3,1.4-15.4,4.2c-3.1,2.8-4.7,6.4-4.7,10.8
		c0,4.5,1.5,8.1,4.6,10.9s8.2,4.2,15.5,4.2h45.6c7.2,0,12.4-1.4,15.5-4.2s4.6-6.4,4.6-10.8c0-4.5-1.5-8.1-4.6-10.9
		s-8.2-4.2-15.5-4.2h-10.8V533H863c16,7.6,36.2,30.2,60.5,67.8h17.1c7.2,0,12.4-1.4,15.4-4.2c3-2.8,4.5-6.4,4.5-10.8
		C960.5,580.4,958.3,576.2,953.9,573.2z M880,499c-6.8,2.6-14.6,4-23.3,4h-23.4v-49.7h34.4c11.6,0,20.5,2.4,26.5,7.3
		c6.1,4.8,9.1,10.1,9.1,15.7c0,3.8-1.6,7.7-4.8,11.6C895.3,491.8,889.1,495.5,880,499z"/>
	<path d="M271.4,810.1h-44.6L135,837c-22.3,6.5-35.1,29.9-28.6,52.3c6.5,22.3,29.9,35.1,52.3,28.6l354.3-104
		c3.2-0.9,6.1-2.2,8.9-3.7h-29.5H271.4z"/>
	<path d="M880,949.3L709.9,810.1h-1.5h-14h-50.1H577l249.7,204.4c18.1,14.8,44.6,12.1,59.3-5.9S898,964,880,949.3z"/>
	<path d="M713.5,784.1c-8.1-16.6-51.6-85-68-127H457.4c-40.6,31.3-154.1,102.8-186,127h43.8h226.6h3.4h133H713.5z"/>
	<path d="M668,453.3h-14.6v43.4h3.3c5.2-14.3,11.3-28.6,11.3-43C668,453.6,668,453.5,668,453.3z"/>
	<path d="M603.2,596.7c-3.1-2.8-4.6-6.4-4.6-10.9c0-4.4,1.6-8,4.7-10.8c3.1-2.8,8.3-4.2,15.4-4.2h4.7V453.3h-4.7
		c-7.2,0-12.4-1.4-15.5-4.2s-4.6-6.4-4.6-10.9c0-4.5,1.5-8.1,4.6-10.9s8.2-4.2,15.5-4.2l108,0.1L655.4,368
		c-12.3-9.7-30.8-9.7-45.3-9.7c-31.9,0-67.5,0-110.4,0c-6.1,0-11.8-3.2-15.1-8.5l-28.1-46c5.2,0.9,10.5,1,15.6,0.6
		c4.8-0.4,9.5-1.2,13.8-2.3c3.4-0.8,6.8-1.9,9.8-2.9c10,11.5,22.2,25.8,37,33.2c4.5,2.3,9.2,3.9,14.2,4.7c9.9,1.5,19.9-0.7,29.6-4.7
		c11-4.5,21.4-11,30.4-16.8c13.3,9.8,33.6,20.4,55.1,14.4c-2.5-11.6-4.3-23.4-5.5-35.2c-3.3-31.6,4.2-62.1-12.2-91.2
		c-14.8-26.3-40.7-47.4-70-51.7c-29.3-4.4-60.3,8.4-82,29.3c-21.6,20.8-25.1,48.2-34.6,74.8c-1,3-2.2,6-3.5,9
		c-0.8,2-1.7,3.9-2.6,5.9c-2.1,4.8-4.3,9.5-6.5,14.1l-53.8-88.2c5.4,2.7,10.1,4.6,11.3,3.1c3.3-3.7-18.6-26.4-15.9-30.7
		c0.3-0.5,1.1-0.8,2.4-0.9c3.5-0.3,10.2,1,16.6,2.3c7.5,1.5,14.5,2.6,15.6,0.4c2.1-4.6-25.2-20.1-23.9-24.9
		c1.4-4.8,32.8-3.1,33.6-8.1c0.7-4.9-29.9-12.1-29.9-17.1s30.7-12.3,29.9-17.1c-0.7-5-32.2-3.3-33.6-8.1c-1.5-4.9,26-20.4,23.9-24.9
		s-31.8,5.9-34.5,1.8c-2.7-4.3,19.1-26.9,15.9-30.7c-3.3-3.7-28.8,14.6-32.6,11.3c-3.7-3.3,10.8-31.2,6.6-33.9
		c-4.2-2.7-23.5,22.1-28.1,20.1c-4.6-2.1,1.7-32.9-3.2-34.4c-4.8-1.4-16.2,27.9-21.3,27.2C319,31.4,316.2,0,311.1,0
		s-7.9,31.4-12.8,32.1c-5,0.7-16.5-28.6-21.3-27.2c-4.9,1.5,1.4,32.3-3.2,34.4s-23.9-22.8-28.1-20.1c-4.3,2.7,10.4,30.7,6.6,33.9
		c-3.7,3.3-29.3-15.2-32.6-11.3c-3.3,3.7,18.6,26.4,15.9,30.7c-2.7,4.2-32.4-6.3-34.5-1.8c-2.1,4.6,25.2,20.1,23.9,24.9
		c-1.4,4.8-32.8,3.1-33.6,8.1c-0.7,4.9,29.9,12.1,29.9,17.1c0,5.1-30.7,12.3-29.9,17.1c0.7,5,32.2,3.3,33.6,8.1
		c1.5,4.9-26,20.4-23.9,24.9c2.1,4.6,31.8-5.9,34.5-1.8c2.7,4.3-19.1,26.9-15.9,30.7c3.3,3.7,28.8-14.6,32.6-11.3
		c3.7,3.3-10.8,31.2-6.6,33.9c4.2,2.7,23.5-22.1,28.1-20.1c4.6,2.1-1.7,32.9,3.2,34.4c4.2,1.2,13.4-20.9,19-26.1
		c0.8-0.8,1.6-1.2,2.3-1.1c2.3,0.3,4.1,7.2,5.8,14.3c2.1,8.5,4.2,17.7,7,17.7c0.8,0,1.7-0.9,2.4-2.4c1.8-3.5,3.3-10.6,4.9-16.8
		c1.7-6.6,3.3-12.6,5.5-12.8c0.9-0.1,2.1,0.7,3.3,2.2l127.5,209c-0.4,0.8-0.8,1.6-1.2,2.4l119.9,0.1V469c0,7.1-1.4,12.2-4.1,15.3
		c-2.7,3.1-6.3,4.6-10.8,4.6c-4.5,0-8.1-1.5-10.9-4.5c-2.8-3-4.2-8.2-4.2-15.4v-15.7h-70v43.4h26.4c0-7.8,0.7-12.8,2.2-15.1
		c3-4.8,7.3-7.2,12.9-7.2c4.4,0,8,1.5,10.8,4.6s4.2,8.2,4.2,15.5v34.6c0,6.5-0.8,10.9-2.3,13.2c-3.1,4.6-7.3,6.9-12.6,6.9
		c-5.6,0-9.9-2.4-12.9-7.2c-1.5-2.2-2.2-7.3-2.2-15.2h-26.4v44.1h76.6v-16.3c0-7.2,1.4-12.4,4.2-15.5s6.4-4.6,10.9-4.6
		c4.4,0,8,1.5,10.8,4.6s4.2,8.2,4.2,15.5v46.3H474.9c0.6,11.5,0.6,22.1-0.3,30.3h164.7c-0.5-9.9-0.3-20.1,0.3-30.3h-20.9
		C611.4,600.8,606.3,599.5,603.2,596.7z"/>
	<path d="M778.5,438.2c0-4.5,1.5-8.1,4.6-10.9c2.2-2,5.6-3.3,10-3.8l0.1-35.1c2,8,3.9,16,6.5,16c2.6,0,4.6-7.9,6.4-15.8
		c2-7.9,3.8-15.9,6.3-16.2c1.7-0.2,4.1,2.9,6.8,7.1c5.2,8.4,11.3,21,14.5,20.1c4.9-1.5-1.4-32.3,3.2-34.4
		c4.6-2.1,23.9,22.8,28.1,20.1c4.3-2.7-10.4-30.7-6.6-33.9c3.7-3.3,29.3,15.2,32.6,11.3c3.3-3.7-18.6-26.4-15.9-30.7
		c2.7-4.2,32.4,6.3,34.5,1.8s-25.2-20.1-23.9-24.9c1.4-4.8,32.8-3.1,33.6-8.1c0.7-4.9-29.9-12.1-29.9-17.1
		c0-5.1,30.7-12.3,29.9-17.1c-0.7-5-32.2-3.3-33.6-8.1c-1.5-4.9,26-20.4,23.9-24.9s-31.8,5.9-34.5,1.8c-2.7-4.3,19.1-26.9,15.9-30.7
		c-3.3-3.7-28.8,14.6-32.6,11.3c-3.7-3.3,10.8-31.2,6.6-33.9c-4.2-2.7-23.5,22.1-28.1,20.1s1.7-32.9-3.2-34.4
		c-4.8-1.4-16.2,27.9-21.3,27.2c-4.9-0.7-7.7-32.1-12.8-32.1s-7.9,31.4-12.8,32.1c-5,0.7-16.5-28.6-21.3-27.2
		c-4.9,1.5,1.4,32.3-3.2,34.4c-4.6,2.1-23.9-22.8-28.1-20.1c-4.3,2.7,10.4,30.7,6.6,33.9c-3.7,3.3-29.3-15.2-32.6-11.3
		c-3.3,3.7,18.6,26.4,15.9,30.7c-2.7,4.2-32.4-6.3-34.5-1.8s25.2,20.1,23.9,24.9c-1.4,4.8-32.8,3.1-33.6,8.1
		c-0.7,4.9,29.9,12.1,29.9,17.1c0,5.1-30.7,12.3-29.9,17.1c0.6,4.5,25.8,3.6,32.1,6.8c0.7,0.4,1.2,0.8,1.5,1.4
		c0.5,1.7-2.3,4.5-6.1,7.7c-7.6,6.3-19.1,14.2-17.8,17.2c0.9,2,6.9,1.1,13.6-0.1c4.6-0.8,9.5-1.9,13.4-2.4c3.8-0.5,6.8-0.5,7.6,0.7
		c1.4,2.1-3.4,8.8-8.1,15.5c-4.8,6.6-9.5,13.3-7.8,15.2c1,1.1,3.9,0.3,7.8-1.5c3.9-1.8,8.6-4.3,13-6.4l0.2,68.6l23.9,0V469
		c0,7.1-1.4,12.2-4.1,15.3c-2.7,3.1-6.3,4.6-10.8,4.6c-4.5,0-8.1-1.5-10.9-4.5c-2.8-3-4.2-8.2-4.2-15.4v-15.7h-54
		c7.7,5.9,17.7,13.6,27.7,21.3c3.4,0.5,6.2,1.9,8.5,4.4c0.9,1,1.7,2.3,2.3,3.8c17.8,13.7,33.3,25.5,33.3,25.5
		c5.6,3.6,13,5.5,19.8,5.6c0.1,0,0.1,0,0.2,0c17.4,0,31.5-14,31.6-31.5L793,453c-4.4-0.6-7.7-1.8-9.9-3.8
		C780,446.4,778.5,442.7,778.5,438.2z"/>
</g>
</svg>
