<?xml version="1.0" encoding="utf-8"?>
<!-- Generator: Adobe Illustrator 22.0.1, SVG Export Plug-In . SVG Version: 6.00 Build 0)  -->
<svg version="1.1" id="Layer_1" xmlns="http://www.w3.org/2000/svg" xmlns:xlink="http://www.w3.org/1999/xlink" x="0px" y="0px"
	 viewBox="0 0 1024 1024" style="enable-background:new 0 0 1024 1024;" xml:space="preserve">
<g>
	<path d="M217.9,581.2c4.1-4.7,6.2-9.1,6.2-13.2s-1.5-7.7-4.5-10.7c-3-3-6.5-4.5-10.5-4.5c-2.2,0-4.2,0.5-6,1.4
		c-1.8,0.9-4.2,3-7.3,6.1c-5.1,5.2-9.9,8.6-14.4,10.4c-7.7,3-17.1,4.5-28.3,4.5c-18.7,0-33.2-4.8-43.7-14.5
		C98.7,551,93.5,539,93.5,524.5V505c0-12.1,2.9-22.6,8.6-31.3c5.8-8.8,12.4-15.1,19.9-19c7.5-3.9,15.8-5.9,24.8-5.9
		c7.2,0,14.4,1.3,21.6,4s12.8,6.2,16.8,10.5c2.1,2.2,3.4,5.4,4.1,9.5c1.2,6.2,3,10.4,5.4,12.6c2.4,2.2,5.7,3.4,9.7,3.4
		c4.4,0,8-1.5,10.8-4.6s4.2-8.2,4.2-15.5v-25.5c0-7.2-1.4-12.4-4.2-15.4c-2.8-3-6.4-4.5-10.8-4.5c-2.5,0-4.9,0.6-7.1,1.9
		c-2.2,1.3-4.2,3.2-6.1,5.7c-6.5-4.1-13.6-7.2-21.2-9.2c-7.6-2-15.7-3-24.4-3c-14.5,0-28.1,3.7-41,11s-23,17.8-30.2,31.3
		c-7.3,13.5-10.9,28.1-10.9,43.7v20.4c0,14.9,4.1,28.7,12.2,41.4c8.1,12.6,17.9,21.9,29.4,27.8c14.3,7.3,30.3,11,48,11
		c15.2,0,29.2-2.6,41.7-7.9C204.2,593.4,211.9,588.1,217.9,581.2z"/>
	<path d="M361.9,466.7c11,12,16.6,27.1,16.6,45.3c0,18.3-5.5,33.4-16.6,45.3c-11,11.9-23.6,17.9-37.6,17.9c-14,0-26.5-6-37.5-17.9
		c-11-12-16.6-27-16.6-45.2c0-13.6,3.1-25.5,9.3-35.6c-10.2-2.2-19.6-6.6-27.5-12.8c-7.8,14-11.8,30.2-11.8,48.4
		c0,29.1,10,52.8,29.9,71c16.1,14.7,34.2,22.1,54.2,22.1c22.3,0,41.9-8.9,58.8-26.6c16.9-17.7,25.4-39.9,25.4-66.6
		c0-26.8-8.5-49-25.4-66.7c-7.5-7.8-15.5-13.9-24-18.3c-2.6,10-7.4,19.1-13.8,26.7C351.1,456.8,356.6,461.1,361.9,466.7z"/>
	<path d="M424.8,453.3l17.9,147.5h33.7l27.8-85.3l28.9,85.3h33.1l17.3-147.5c4.6-0.8,8.1-2.5,10.5-5.3c2.4-2.7,3.7-6,3.7-9.8
		c0-4.5-1.5-8.1-4.6-10.8c-3.1-2.7-8.2-4.1-15.5-4.1l-39.8-0.1c-7.2,0-12.4,1.4-15.5,4.2s-4.6,6.4-4.6,10.9c0,4.5,1.5,8.1,4.6,10.9
		s8.2,4.2,15.5,4.2h15.7l-10,83.9l-23.4-69.9h-31.2l-23.6,69.9l-10-83.9H471c7.2,0,12.4-1.4,15.5-4.2s4.6-6.4,4.6-10.9
		c0-4.5-1.5-8.1-4.6-10.8c-3.1-2.7-8.2-4.1-15.5-4.1l-40-0.1c-7.2,0-12.4,1.4-15.5,4.2c-3.1,2.8-4.6,6.6-4.6,11.3
		c0,4,1.2,7.3,3.5,9.9C416.8,451.2,420.3,452.7,424.8,453.3z"/>
	<path d="M618.6,423.2c-7.2,0-12.4,1.4-15.5,4.2s-4.6,6.4-4.6,10.9c0,4.5,1.5,8.1,4.6,10.9s8.2,4.2,15.5,4.2h4.7v117.5h-4.7
		c-7.1,0-12.3,1.4-15.4,4.2c-3.1,2.8-4.7,6.4-4.7,10.8c0,4.5,1.5,8.1,4.6,10.9s8.2,4.2,15.5,4.2H760v-46.3c0-7.2-1.4-12.4-4.2-15.5
		s-6.4-4.6-10.8-4.6c-4.5,0-8.1,1.5-10.9,4.6s-4.2,8.2-4.2,15.5v16.3h-76.6v-44.1h26.4c0,7.9,0.7,13,2.2,15.2
		c3,4.8,7.3,7.2,12.9,7.2c5.3,0,9.5-2.3,12.6-6.9c1.6-2.2,2.3-6.6,2.3-13.2v-34.6c0-7.2-1.4-12.4-4.2-15.5s-6.4-4.6-10.8-4.6
		c-5.6,0-9.9,2.4-12.9,7.2c-1.5,2.2-2.2,7.3-2.2,15.1h-26.4v-43.4h25c-7.1-8.5-12.1-18.8-14.3-30.1L618.6,423.2z"/>
	<path d="M724.3,477.6c0.7,2.9,1.8,5.1,3.3,6.7c2.8,3,6.4,4.5,10.9,4.5c4.5,0,8.1-1.5,10.8-4.6c2-2.3,3.3-5.7,3.8-10.3
		c-7.1,2.5-14.7,3.9-22.6,3.9C728.4,477.9,726.3,477.8,724.3,477.6z"/>
	<path d="M953.9,573.2c-2.4-1.6-7.5-2.3-15.1-2.3c-7.6-11.8-13.7-20.5-18.2-26.1c-7.2-8.7-14-15.8-20.4-21.4
		c11-6,19.3-12.8,24.8-20.4c5.5-7.7,8.2-16.2,8.2-25.6c0-15-5.8-27.8-17.5-38.3c-11.7-10.5-28.1-15.7-49.3-15.7l-68-0.1
		c-0.5,0-1,0-1.5,0c-2,10.1-6.2,19.4-12.1,27.3c3.1,1.9,7.6,2.8,13.6,2.8h4.7v117.5h-4.7c-7.1,0-12.3,1.4-15.4,4.2
		c-3.1,2.8-4.7,6.4-4.7,10.8c0,4.5,1.5,8.1,4.6,10.9s8.2,4.2,15.5,4.2h45.6c7.2,0,12.4-1.4,15.5-4.2s4.6-6.4,4.6-10.8
		c0-4.5-1.5-8.1-4.6-10.9s-8.2-4.2-15.5-4.2h-10.8V533H863c16,7.6,36.2,30.2,60.5,67.8h17.1c7.2,0,12.4-1.4,15.4-4.2
		c3-2.8,4.5-6.4,4.5-10.8C960.5,580.4,958.3,576.2,953.9,573.2z M880,499c-6.8,2.6-14.6,4-23.3,4h-23.4v-49.7h34.4
		c11.6,0,20.5,2.4,26.5,7.3c6.1,4.8,9.1,10.1,9.1,15.7c0,3.8-1.6,7.7-4.8,11.6C895.3,491.8,889.1,495.5,880,499z"/>
	<path d="M512,0C229.7,0,0,229.7,0,512s229.7,512,512,512s512-229.7,512-512S794.3,0,512,0z M512,987.4
		C249.9,987.4,36.6,774.1,36.6,512S249.9,36.6,512,36.6S987.4,249.9,987.4,512S774.1,987.4,512,987.4z"/>
	<path d="M345.2,453.8c-6.6-3.3-13.6-5-21-5c-14,0-26.5,6-37.5,18c-2.8,3-5.2,6.2-7.3,9.7c4.5,1,9.2,1.5,14,1.5
		C314.2,477.9,332.8,468.6,345.2,453.8z"/>
	<path d="M251.9,463.6c4.7-8.3,10.7-15.9,18.1-22.8c16.1-14.7,34.2-22.1,54.2-22.1c12.4,0,24,2.8,34.8,8.3c1.4-5.4,2.1-11,2.1-16.8
		c0-37.3-30.4-67.7-67.7-67.7c-37.3,0-67.7,30.4-67.7,67.7C225.7,431.9,236,451.2,251.9,463.6z"/>
	<path d="M778.5,438.2c0-4.5,1.5-8.1,4.6-10.9c2.9-2.6,7.5-3.9,13.9-4.1c0.8-4.2,1.3-8.5,1.3-13c0-37.3-30.4-67.7-67.7-67.7
		s-67.7,30.4-67.7,67.7c0,4.4,0.4,8.8,1.3,13l89.3,0.1V469c0,1.8-0.1,3.5-0.3,5c12.8-4.5,23.8-12.8,31.8-23.6
		c-0.7-0.4-1.3-0.8-1.9-1.3C780,446.4,778.5,442.7,778.5,438.2z"/>
	<path d="M723.4,453.3h-45c11.2,13.5,27.5,22.6,45.9,24.3c-0.6-2.4-0.9-5.3-0.9-8.6V453.3z"/>
	<path d="M824.3,676.4c-17.2,0-24.9-7.6-36.5-19.1c-13.4-13.2-30-29.7-62.3-29.7s-48.9,16.5-62.3,29.7
		c-11.7,11.5-19.4,19.1-36.5,19.1c-17.2,0-24.9-7.6-36.5-19.1c-13.4-13.2-30-29.7-62.3-29.7S479,644,465.6,657.3
		c-11.7,11.5-19.4,19.1-36.5,19.1c-17.2,0-24.9-7.6-36.6-19.1c-13.4-13.2-30-29.7-62.3-29.7S281.4,644,268,657.3
		c-11.7,11.5-19.4,19.1-36.6,19.1c-10.1,0-18.3,8.2-18.3,18.3s8.2,18.3,18.3,18.3c32.2,0,48.9-16.5,62.3-29.7
		c11.7-11.5,19.4-19.1,36.6-19.1s24.9,7.6,36.6,19.1c13.4,13.2,30,29.7,62.3,29.7c32.2,0,48.9-16.5,62.3-29.7
		c11.7-11.5,19.4-19.1,36.5-19.1c17.2,0,24.9,7.6,36.5,19.1c13.4,13.2,30,29.7,62.3,29.7c32.2,0,48.9-16.5,62.3-29.7
		c11.7-11.5,19.4-19.1,36.5-19.1s24.9,7.6,36.5,19.1c13.4,13.2,30,29.7,62.3,29.7c10.1,0,18.3-8.2,18.3-18.3
		S834.4,676.4,824.3,676.4z"/>
</g>
</svg>
