<?xml version="1.0" encoding="iso-8859-1"?>
<!-- Generator: Adobe Illustrator 16.0.0, SVG Export Plug-In . SVG Version: 6.00 Build 0)  -->
<!DOCTYPE svg PUBLIC "-//W3C//DTD SVG 1.1//EN" "http://www.w3.org/Graphics/SVG/1.1/DTD/svg11.dtd">
<svg version="1.1" id="Capa_1" xmlns="http://www.w3.org/2000/svg" xmlns:xlink="http://www.w3.org/1999/xlink" x="0px" y="0px"
	 width="112.58px" height="112.581px" viewBox="0 0 112.58 112.581" style="enable-background:new 0 0 112.58 112.581;"
	 xml:space="preserve">
<g>
	<path d="M81.578,30.904c0-5.054,4.099-9.151,9.15-9.151c5.055,0,9.15,4.097,9.15,9.151c0,5.054-4.097,9.151-9.15,9.151
		C85.677,40.055,81.578,35.958,81.578,30.904z M112.509,29.274l-4.086,16.615c-0.348,1.413-1.604,2.362-2.994,2.377l-0.344,0.003
		l-3.96,0.041l1.451,17.263c0.042,0.5,0.031,0.992-0.014,1.475c0.113,0.474,0.158,0.974,0.119,1.484
		c-0.013,0.139-0.029,0.281-0.052,0.416l-1.963,12.012l5.103,20.187c0.431,1.703-0.602,3.431-2.304,3.86
		c-1.593,0.402-3.214-0.487-3.768-1.995l-7.492-20.609c-0.163-0.448-0.223-0.909-0.188-1.356l0.03-0.408l0.375-4.975l-10.014,7.334
		l2.073,17.504c0.205,1.744-1.041,3.324-2.783,3.531c-1.643,0.193-3.145-0.916-3.484-2.5l-4.171-19.758
		c-0.289-1.371,0.206-2.725,1.184-3.592l0.285-0.252l10.619-9.412c-0.137-0.496-0.23-1.01-0.275-1.543l-1.481-17.622
		c-0.013-0.14-0.009-0.276-0.015-0.414l-8.191,0.724l-0.28,0.024c-1.386,0.122-2.638-0.689-3.141-1.909l-6.363-15.48
		c-0.533-1.298,0.086-2.785,1.385-3.319c1.223-0.503,2.617,0.028,3.221,1.174l6.572,12.568l11.672-1.98
		c0.291-0.049,0.863-0.046,0.863-0.046l2.258,3.791l2.772-3.871c0.004,0,0.009,0,0.013,0c0.146-0.001,0.291,0.005,0.433,0.02
		l7.384,0.748l4.681-13.547c0.459-1.327,1.904-2.031,3.232-1.573C112.118,26.695,112.812,28.015,112.509,29.274z M99.253,55.074
		l-0.365-5.84l-4.381,0.273l0.366,5.84L99.253,55.074z M64.82,49.3c0.551,3.021-1.995,5.768-4.227,7.539
		c-1.725,1.367-3.299,2.197-3.365,2.232l-0.207,0.109l-0.654-0.826l-0.958,0.76c0.185,0.592,0.161,1.252-0.129,1.855
		c-0.573,1.191-1.965,1.729-3.181,1.279l-15.851-5.917c-0.374-0.14-0.697-0.355-0.959-0.623l-0.225-0.231l-2.119-2.181l-4.29,13.549
		c-0.278,0.877-0.688,1.676-1.199,2.383l7.101,9.818l0.193,0.268c0.664,0.918,0.809,2.07,0.502,3.076l-5.842,18.713
		c-0.488,1.564-2.152,2.436-3.716,1.947c-1.477-0.461-2.335-1.984-2.014-3.467l3.756-17.123l-7.655-8.857l-0.741,4.316l-0.06,0.352
		c-0.083,0.484-0.281,0.938-0.547,1.312L5.378,97.898c-0.951,1.334-2.804,1.646-4.138,0.692c-1.256-0.895-1.598-2.6-0.842-3.907
		l10.77-18.498l0.939-11.237c0.026-0.312,0.083-0.611,0.167-0.896c0.024-0.756,0.142-1.518,0.381-2.271l4.231-13.361l-2.299,0.469
		l-3.63,5.358l-2.204,3.31l-1.072,1.646l-0.51,0.807l-0.219,0.357L6.9,60.45l-0.026,0.043l-0.013,0.021l0.023-0.051
		c0.061-0.141,0.093-0.303,0.09-0.457c-0.195,1.391-1.478,2.359-2.868,2.164c-1.39-0.193-2.358-1.478-2.164-2.867
		c0.059-0.309,0.154-0.623,0.278-0.916l0.159-0.348l0.252-0.521l0.471-0.937l0.938-1.807l1.894-3.552l3.832-7.055
		c0.374-0.689,0.988-1.164,1.681-1.379l0.329-0.102l10.751-3.312c0.577-0.178,1.163-0.209,1.722-0.124
		c1.374-0.294,2.84-0.251,4.276,0.204c0.899,0.284,1.71,0.712,2.43,1.24c0.533,0.194,1.035,0.494,1.456,0.928
		c0.086,0.089,0.17,0.184,0.246,0.278l6.994,8.735l13.798,6.631c0.017-0.045,0.036-0.09,0.049-0.135l1.625-1.292l0.052,0.064
		l9.16-7.27l0.47,0.591L64.82,49.3z M55.971,57.888l-0.945-1.19l-1.042,0.825l0.104,0.052c0.458,0.221,0.816,0.562,1.063,0.965
		L55.971,57.888z M64.27,49.468l-0.025-0.032l-8.716,6.915l1.297,1.636L56.81,58l0.359,0.453c0.482-0.271,1.745-1.012,3.068-2.062
		C62.33,54.73,64.718,52.188,64.27,49.468z M57.672,55.348l2.813,0.324l0.034-0.302l-2.812-0.324L57.672,55.348z M58.453,54.728
		l2.814,0.324l0.035-0.302l-2.815-0.324L58.453,54.728z M57.011,25.755c-4.966,3.001-12.847,7.694-9.055,5.166
		c3.785-2.523,3.414-6.996,3.093-8.761c-0.189-0.209-0.37-0.422-0.537-0.642c-1.018-1.344-1.595-2.882-1.595-4.516
		c0-5.26,5.984-9.525,13.366-9.525s13.366,4.264,13.366,9.525c0,5.259-5.984,9.524-13.366,9.524
		C60.409,26.526,58.627,26.25,57.011,25.755z M66.362,17.693c0,0.586-0.494,1.008-1.224,1.008c-0.576,0-1.111-0.195-1.48-0.442
		l-0.246,0.689c0.359,0.257,0.978,0.441,1.572,0.452v1.039h0.646V19.37c1.061-0.175,1.624-0.935,1.624-1.748
		c0-0.915-0.532-1.449-1.593-1.881c-0.896-0.37-1.273-0.638-1.273-1.172c0-0.411,0.297-0.884,1.09-0.884
		c0.656,0,1.078,0.226,1.295,0.349l0.257-0.678c-0.298-0.175-0.72-0.339-1.337-0.36v-0.997h-0.637v1.038
		c-0.945,0.154-1.554,0.801-1.554,1.655c0,0.894,0.646,1.367,1.696,1.778C65.96,16.778,66.361,17.128,66.362,17.693z M61.084,17.693
		c0,0.586-0.491,1.008-1.223,1.008c-0.575,0-1.11-0.195-1.48-0.442l-0.245,0.689c0.358,0.257,0.977,0.441,1.571,0.452v1.039h0.646
		V19.37c1.06-0.175,1.625-0.935,1.625-1.748c0-0.915-0.535-1.449-1.594-1.881c-0.895-0.37-1.275-0.638-1.275-1.172
		c0-0.411,0.299-0.884,1.091-0.884c0.657,0,1.08,0.226,1.295,0.349l0.257-0.678c-0.298-0.175-0.719-0.339-1.336-0.36v-0.997h-0.637
		v1.038c-0.946,0.154-1.553,0.801-1.553,1.655c0,0.894,0.647,1.367,1.695,1.778C60.685,16.778,61.084,17.128,61.084,17.693z
		 M30.164,39.409c4.85,0.668,9.321-2.722,9.989-7.572c0.021-0.151,0.026-0.3,0.039-0.449c1.617,0.845,3.007,1.154,3.22-0.1
		c0.24-1.412-0.876-2.745-2.199-3.8l0.233-1.712c0.325-2.37-1.328-4.553-3.701-4.881L28.308,19.6
		c-2.364-0.328-4.547,1.33-4.875,3.698l-0.289,2.117c-0.101,0.716,0.033,1.06,0.333,1.203c-0.438,0.857-0.748,1.797-0.886,2.805
		C21.928,34.272,25.313,38.744,30.164,39.409z"/>
</g>
<g>
</g>
<g>
</g>
<g>
</g>
<g>
</g>
<g>
</g>
<g>
</g>
<g>
</g>
<g>
</g>
<g>
</g>
<g>
</g>
<g>
</g>
<g>
</g>
<g>
</g>
<g>
</g>
<g>
</g>
</svg>
