<?xml version="1.0" encoding="utf-8"?>
<!-- Generator: Adobe Illustrator 22.0.1, SVG Export Plug-In . SVG Version: 6.00 Build 0)  -->
<svg version="1.1" id="Layer_1" xmlns="http://www.w3.org/2000/svg" xmlns:xlink="http://www.w3.org/1999/xlink" x="0px" y="0px"
	 viewBox="0 0 1024 1024" style="enable-background:new 0 0 1024 1024;" xml:space="preserve">
<g>
	<path d="M207.7,497.3c9.4-3.9,17-9.3,23-16.1c4.1-4.7,6.2-9.1,6.2-13.2s-1.5-7.7-4.5-10.7c-3-3-6.5-4.5-10.5-4.5
		c-2.2,0-4.2,0.5-6,1.4c-1.8,0.9-4.2,3-7.3,6.1c-5.1,5.2-9.9,8.6-14.4,10.4c-7.7,3-17.1,4.5-28.3,4.5c-18.7,0-33.2-4.8-43.7-14.5
		c-10.5-9.7-15.7-21.7-15.7-36.2V405c0-12.1,2.9-22.6,8.6-31.3c5.8-8.8,12.4-15.1,19.9-19c7.5-3.9,15.8-5.9,24.8-5.9
		c7.2,0,14.4,1.3,21.6,4s12.8,6.2,16.8,10.5c2.1,2.2,3.4,5.4,4.1,9.5c1.2,6.2,3,10.4,5.4,12.6c2.4,2.2,5.7,3.4,9.7,3.4
		c4.4,0,8-1.5,10.8-4.6s4.2-8.2,4.2-15.5v-25.5c0-7.2-1.4-12.4-4.2-15.4c-2.8-3-6.4-4.5-10.8-4.5c-2.5,0-4.9,0.6-7.1,1.9
		c-2.2,1.3-4.2,3.2-6.1,5.7c-6.5-4.1-13.6-7.2-21.2-9.2c-7.6-2-15.7-3-24.4-3c-14.5,0-28.1,3.7-41,11s-23,17.8-30.2,31.3
		c-7.3,13.5-10.9,28.1-10.9,43.7v20.4c0,14.9,4.1,28.7,12.2,41.4c8.1,12.6,17.9,21.9,29.4,27.8c14.3,7.3,30.3,11,48,11
		C181.2,505.2,195.1,502.6,207.7,497.3z"/>
	<path d="M376,376.3c0,0.1,0,0.2,0,0.4c2.3,2.4,4.9,4.6,7.7,6.6c1.8,0.9,3.6,2.3,5.9,3.6c4.4,2.4,8.8,5.2,13,7.7
		c1.4-3.3,2.4-6.7,3-10.3c-1.2-0.8-2.5-1.6-3.7-2.4c-0.9-0.5-2.3-1.4-3.2-1.8c-2.7-1.8-5.4-3.6-8.1-5.4c-0.5,0-0.5-0.5-0.9-0.5
		c-14.2-9.8-19.4-27.9-13.4-43.5c-2.8-1.4-5.7-2.5-8.8-3.5c-4.6,10.5-4.9,22.1-1.4,32.6c0.3,0.2,0.7,0.5,1,0.7
		C373,365.4,376,370.7,376,376.3z"/>
	<path d="M391.9,476c7.7,1.4,15.8,2.3,24.4,2.3c4.8,0,9.7-0.3,14.7-0.7c-1.1-1.7-2.5-3.1-4.3-4.4c-2.4-1.6-7.5-2.3-15.1-2.3
		c-0.4-0.6-0.7-1.1-1.1-1.7c-5-0.2-9.8-0.7-14.6-1.7c-1.8-0.5-4.1-0.9-5.9-1.4c-3.6-0.9-7.2-2.3-10.9-3.6c-3.6-1.4-7.2-3.2-10.9-5.4
		c-7.2-4.5-14-10-19-15.8c-10-11.9-15.4-25.1-18.1-38.2c-0.6,0-1.2,0-1.8,0H306v-49.7h25.4c1.8-10.3,4.6-20.3,7.9-30
		c0,0-0.1,0-0.1,0l-68-0.1c-7.2,0-12.4,1.4-15.5,4.2s-4.6,6.4-4.6,10.9c0,4.5,1.5,8.1,4.6,10.9s8.2,4.2,15.5,4.2h4.7v117.5h-4.7
		c-7.1,0-12.3,1.4-15.4,4.2c-3.1,2.8-4.7,6.4-4.7,10.8c0,4.5,1.5,8.1,4.6,10.9s8.2,4.2,15.5,4.2h45.6c7.2,0,12.4-1.4,15.5-4.2
		s4.6-6.4,4.6-10.8c0-4.5-1.5-8.1-4.6-10.9s-8.2-4.2-15.5-4.2H306V433h29.7c14.4,6.9,32.2,25.9,53.4,57.1v-14.6
		C390.1,475.6,391,476,391.9,476z"/>
	<path d="M570,426.7c10.1-5.7,20.5-11.8,31.3-18.4c-0.1-3.8-0.4-7.5-0.9-11.1c-10.1,6.3-19.8,12.1-29.1,17.4
		C571.1,418.8,570.7,422.8,570,426.7z"/>
	<path d="M479.6,457.3c-11.1,3.7-21.5,6.6-31.5,8.6c1.8,2.7,3.7,5.3,5.8,7.8c10.3-2.3,21.2-5.6,32.8-9.7
		C484.3,462,481.9,459.8,479.6,457.3z"/>
	<path d="M551.2,460.9c-2.2,2.1-4.4,3.9-6.7,5.5c12.2,4.1,23.5,7.1,34.3,9.1c1.9-2.2,3.7-4.4,5.3-6.7
		C573.7,467.1,562.8,464.5,551.2,460.9z"/>
	<path d="M495.6,354.1c2.8-1.5,5.6-2.6,8.5-3.5c-9.8-5.4-20.2-11.4-31.1-17.9c-2.1,1.4-4.1,3-6.1,4.6
		C477.1,343.4,486.7,349,495.6,354.1z"/>
	<path d="M535,352.4c9.3-5.3,19-11.1,29.3-17.4c-2.7-2-5.4-3.9-8.2-5.6c-11.8,7.2-23.1,13.7-33.9,19.7
		C526.6,349.5,530.9,350.6,535,352.4z"/>
	<path d="M475.3,372c-1.3,0.5-2.7,1.1-4.2,1.7c-0.5,0.5-1.4,0.5-1.8,0.9c-1.8,0.5-3.2,1.4-5,1.8c-0.5,0-1.4,0.5-1.8,0.5
		c-2.3,0.5-4.5,1.4-6.8,2.3c-0.5,0-0.9,0.5-1.4,0.5c-1.8,0.5-4.1,1.4-5.9,1.8c-0.9,0.5-1.4,0.5-2.3,0.9c-1.8,0.5-4.1,1.4-5.9,1.8
		c-0.5,0-0.9,0.5-1.4,0.5c-1,0.3-1.9,0.6-2.8,0.8c-0.8,3.3-1.5,6.7-2,10.2c9.1-1.9,20.4-5.2,33.8-10.4
		C469.8,380.5,472.3,376.1,475.3,372z"/>
	<path d="M648.9,357.9c-2.3,6.8-7.2,12.7-13.6,17.2c-0.5,0-0.5,0.5-0.9,0.5c-0.9,0.5-1.7,1-2.6,1.5c0.3,3.5,1,6.9,2.1,10.3
		c0,0,0,0,0,0c1.8-1.4,4.1-2.7,5.9-4.1c12.2-8.1,19-21.3,19.9-35.3c0.6-6.1-0.4-12.5-2.9-18.6c-2.5,1.6-4.8,3.4-7,5.4
		C652.1,342.5,651.7,350.7,648.9,357.9z"/>
	<path d="M691.6,349c1.6-0.1,3.3-0.2,5-0.2c7.4,0,14,1.3,19.6,3.8c5.7,2.5,9.9,5.7,12.7,9.4c1.7,2.1,3,5.7,4.1,10.7
		c1.1,5,2.7,8.3,4.8,10c2.7,2.2,6,3.4,9.7,3.4c4.4,0,8-1.5,10.8-4.6s4.2-8.2,4.2-15.5v-22.6c0-7.1-1.4-12.2-4.2-15.3
		s-6.4-4.6-10.8-4.6c-3.9,0-7.8,1.9-11.7,5.7c-5.4-3.5-11.4-6.1-17.9-7.8c-6.6-1.7-13.7-2.6-21.5-2.6c-4.8,0-9.3,0.3-13.7,1
		c0.5,1.3,0.9,2.5,1.3,3.8C687.3,331.8,689.8,340.3,691.6,349z"/>
	<path d="M696.1,427.2c13.6,2.5,22.3,4.5,26.2,6c6,2.1,10.3,4.9,12.9,8.1c2.6,3.3,4,6.8,4,10.5c0,5.6-2.7,10.3-8.2,14.1
		c-8.6,6.3-19.6,9.4-33,9.4c-8.6,0-16.5-1.6-23.7-4.7c-7.2-3.1-12.3-6.2-15.1-9.2c-0.7-0.8-1.4-2-2.1-3.6c-3.9,2.4-8,4.5-12.2,6.1
		c-3.6,1.4-7.2,2.7-10.9,3.6c-1.8,0.5-3.6,0.9-5.9,1.4c-0.8,0.2-1.6,0.3-2.4,0.4v7.6c2.1-0.4,4.1-0.8,6.1-1.3c0.9,0,1.8-0.5,2.7-0.5
		v17.6v6.5c1.9,0.8,4.1,1.3,6.5,1.3c2.3,0,4.3-0.4,5.9-1.3s3.7-2.9,6.4-6c7.4,4,15.1,7,22.9,9c7.9,2,15.9,3,24.2,3
		c21.5,0,39.2-5.9,53-17.6c10.4-8.9,15.7-20.8,15.7-35.6c0-10.6-2.7-19.8-8.2-27.5c-5.5-7.7-12.3-13.4-20.6-17
		c-8.3-3.6-20.1-6.9-35.4-10c-3.9-0.8-7.5-1.5-10.6-2.2c-1.2,9.9-3.8,19.9-8.3,29.7C689.1,425.8,692.5,426.5,696.1,427.2z"/>
	<path d="M940.9,424.5c-5.5-7.7-12.3-13.4-20.6-17c-8.3-3.6-20.1-6.9-35.4-10c-15.4-3-24.7-5.2-28.1-6.6c-5-2-8.8-4.7-11.4-8.1
		c-2.6-3.5-3.9-7.1-3.9-10.8c0-5.5,3.2-10.7,9.4-15.7c6.3-5,14.9-7.5,25.7-7.5c7.4,0,14,1.3,19.6,3.8c5.7,2.5,9.9,5.7,12.7,9.4
		c1.7,2.1,3,5.7,4.1,10.7c1.1,5,2.7,8.3,4.8,10c2.7,2.2,6,3.4,9.7,3.4c4.4,0,8-1.5,10.8-4.6s4.2-8.2,4.2-15.5v-22.6
		c0-7.1-1.4-12.2-4.2-15.3s-6.4-4.6-10.8-4.6c-3.9,0-7.8,1.9-11.7,5.7c-5.4-3.5-11.4-6.1-17.9-7.8c-6.6-1.7-13.7-2.6-21.5-2.6
		c-19.2,0-34.9,5.4-46.9,16.2c-12,10.8-18,23.4-18,37.7c0,9.1,2.4,17.5,7.3,25.3c4.9,7.8,11.5,13.9,19.9,18.2
		c8.4,4.3,20.8,8,37.2,11c13.6,2.5,22.3,4.5,26.2,6c6,2.1,10.3,4.9,12.9,8.1c2.6,3.3,4,6.8,4,10.5c0,5.6-2.7,10.3-8.2,14.1
		c-8.6,6.3-19.6,9.4-33,9.4c-8.6,0-16.5-1.6-23.7-4.7c-7.2-3.1-12.3-6.2-15.1-9.2c-1.4-1.6-2.7-4.5-4-8.9c-1.3-4.3-3.1-7.4-5.5-9.3
		c-2.4-1.9-5.3-2.8-8.9-2.8c-4.6,0-8.3,1.5-11.1,4.6s-4.2,8.2-4.2,15.5v20.2c0,7.1,1.4,12.2,4.2,15.3s6.5,4.6,11.1,4.6
		c2.3,0,4.3-0.4,5.9-1.3s3.7-2.9,6.4-6c7.4,4,15.1,7,22.9,9c7.9,2,15.9,3,24.2,3c21.5,0,39.2-5.9,53-17.6
		c10.4-8.9,15.7-20.8,15.7-35.6C949.1,441.4,946.3,432.2,940.9,424.5z"/>
	<path d="M342.5,679.5c-1.1-2.4-2.9-4.6-5.4-6.4c-2.2-1.6-6.9-2.3-13.9-2.3l-59.8-147.5l-64.9-0.1c-7.2,0-12.4,1.4-15.5,4.2
		s-4.6,6.4-4.6,10.9c0,4.5,1.5,8.1,4.6,10.9s8.2,4.2,15.5,4.2h19.6L171,670.8c-7.4-0.2-12.7,1.1-16,4c-3.2,2.8-4.8,6.5-4.8,11
		c0,4.5,1.5,8.1,4.6,10.9s8.2,4.2,15.5,4.2h40.4c7.2,0,12.4-1.4,15.5-4.2s4.6-6.4,4.6-10.8c0-4.5-1.5-8.1-4.6-10.9
		s-8.2-4.2-15.5-4.2h-7.3l7.3-18.3h72.9l7.2,18.3h-7.3c-7.2,0-12.4,1.4-15.5,4.2s-4.6,6.4-4.6,10.8c0,4.5,1.5,8.1,4.6,10.9
		s8.2,4.2,15.5,4.2h40.4c7.2,0,12.4-1.4,15.4-4.2c1.4-1.3,2.5-2.8,3.2-4.4c-0.9-1.9-1.3-4.1-1.3-6.5
		C341.2,683.5,341.7,681.4,342.5,679.5z M222.7,622.5L247,563l24.2,59.5H222.7z"/>
	<path d="M511.4,685.8c0-4.4,1.5-8,4.5-10.8c0.5-0.4,1-0.8,1.6-1.2c-0.3-0.2-0.5-0.4-0.8-0.6c-2.4-1.6-7.5-2.3-15.1-2.3
		c-0.1-0.1-0.2-0.3-0.3-0.4v30.4h2c6.3,0,10.9-1,14-3.1c-0.5-0.3-0.9-0.7-1.4-1C513,693.9,511.4,690.2,511.4,685.8z"/>
	<path d="M389.1,523.2l-27.9-0.1c-7.2,0-12.4,1.4-15.5,4.2s-4.6,6.4-4.6,10.9c0,4.5,1.5,8.1,4.6,10.9s8.2,4.2,15.5,4.2h4.7v117.5
		h-4.7c-7.1,0-12.3,1.4-15.4,4.2c-1.5,1.3-2.6,2.8-3.4,4.5c0.9,1.9,1.3,4,1.3,6.4c0,2.3-0.4,4.4-1.3,6.3c0.8,1.7,1.8,3.1,3.3,4.4
		c3.1,2.8,8.2,4.2,15.5,4.2h27.9V576.9V523.2z"/>
	<path d="M522.2,679.8v-8.1c-1.8,0.5-3.3,1.2-4.6,2C519.7,675.5,521.2,677.5,522.2,679.8z"/>
	<path d="M518.8,696.7c-0.4,0.4-0.9,0.7-1.3,1c1.3,0.9,2.9,1.6,4.8,2.1v-7.9C521.4,693.7,520.3,695.3,518.8,696.7z"/>
	<path d="M685.5,670.8V553.3c5.2-0.5,9.1-2.1,11.9-4.8c2.7-2.7,4.1-6.2,4.1-10.3c0-4.5-1.5-8.1-4.6-10.8c-3.1-2.7-8.2-4.1-15.5-4.1
		l-33.3-0.1l-13.7,30.9v22.9v51.6l21-47.2v89.5h-11c-4,0-7.3,0.5-10,1.3v27.4c2.7,0.9,6.1,1.3,10,1.3H684c7.2,0,12.4-1.4,15.5-4.2
		s4.6-6.4,4.6-10.8s-1.5-8-4.5-10.8C696.5,672.2,691.8,670.8,685.5,670.8z"/>
	<path d="M830.3,607.5c-8.3-3.6-20.1-6.9-35.4-10c-15.4-3-24.7-5.2-28.1-6.6c-5-2-8.8-4.7-11.4-8.1c-2.6-3.5-3.9-7.1-3.9-10.8
		c0-5.5,3.1-10.7,9.4-15.7c6.3-5,14.9-7.5,25.7-7.5c7.4,0,14,1.3,19.6,3.8c5.7,2.5,9.9,5.7,12.7,9.4c1.7,2.1,3,5.7,4.1,10.7
		c1.1,5,2.7,8.3,4.8,10c2.7,2.2,6,3.4,9.7,3.4c4.4,0,8-1.5,10.8-4.6s4.2-8.2,4.2-15.5v-22.6c0-7.1-1.4-12.2-4.2-15.3
		s-6.4-4.6-10.8-4.6c-3.9,0-7.8,1.9-11.7,5.7c-5.4-3.5-11.4-6.1-17.9-7.8c-6.6-1.7-13.7-2.6-21.5-2.6c-19.2,0-34.9,5.4-46.9,16.2
		c-12,10.8-18,23.4-18,37.7c0,9.1,2.4,17.5,7.3,25.3c4.9,7.8,11.5,13.9,19.9,18.2c8.4,4.3,20.8,8,37.2,11c13.6,2.5,22.3,4.5,26.2,6
		c6,2.1,10.3,4.9,12.9,8.1c2.6,3.3,4,6.8,4,10.5c0,5.6-2.7,10.3-8.2,14.1c-8.6,6.3-19.6,9.4-33,9.4c-8.6,0-16.5-1.6-23.7-4.7
		c-7.2-3.1-12.3-6.2-15.1-9.2c-1.4-1.6-2.7-4.5-4-8.9c-1.3-4.3-3.1-7.4-5.5-9.3c-2.4-1.9-5.3-2.8-8.9-2.8c-4.6,0-8.3,1.5-11.1,4.6
		s-4.2,8.2-4.2,15.5v20.2c0,7.1,1.4,12.2,4.2,15.3s6.5,4.6,11.1,4.6c2.3,0,4.3-0.4,5.9-1.3s3.7-2.9,6.4-6c7.4,4,15.1,7,22.9,9
		c7.9,2,15.9,3,24.2,3c21.5,0,39.2-5.9,53-17.6c10.4-8.9,15.7-20.8,15.7-35.6c0-10.6-2.7-19.8-8.2-27.5
		C845.4,616.8,838.5,611.1,830.3,607.5z"/>
	<path d="M513.1,454.3c-0.5,0-0.5-0.5-0.9-0.5s-0.5,0-0.9,0.5c-6.3,2.7-12.7,5.4-19,7.7c-1.9,0.7-3.7,1.4-5.5,2
		c9.2,7.4,19.3,11.2,30.3,11.2c9.9,0,19-3,27.4-8.8c-4-1.3-8.1-2.8-12.3-4.4C526.3,459.7,519.9,457.5,513.1,454.3z"/>
	<path d="M624.5,685.8c0-4.4,1.5-8,4.6-10.8c1.4-1.2,3.1-2.2,5.3-2.9v-43.6L621,658.7h-26.1l-34.9-77.3v89.5h10.8
		c7.2,0,12.4,1.4,15.5,4.2s4.6,6.4,4.6,10.9c0,4.4-1.5,8-4.6,10.8s-8.2,4.2-15.5,4.2h-39.4c-3.6,0-6.7-0.4-9.3-1.1v268.1
		c0,30.8,24.9,56.1,56.1,56.1s56.1-24.9,56.1-56.1V699.5c-2.1-0.7-3.9-1.6-5.3-2.9C626.1,693.9,624.5,690.2,624.5,685.8z"/>
	<path d="M478.5,539.1c11.7,10.5,17.5,23.3,17.5,38.3c0,9.4-2.7,17.9-8.2,25.6c-5.5,7.7-13.7,14.5-24.8,20.4
		c6.3,5.6,13.1,12.7,20.4,21.4c4.4,5.5,10.4,14.1,17.9,25.7v-58.2h20.8v59.5c2.3-0.6,4.9-0.9,7.9-0.9V553.3
		c-5.3-0.5-9.3-2.1-11.9-4.8c-2.7-2.7-4-6.2-4-10.3c0-4.5,1.5-8.1,4.6-10.9s8.2-4.2,15.5-4.2l33,0.1l40.9,90.4l26.4-59.6v-54.8
		c-1.7-0.8-3.3-1.9-4.6-3.3c-2.8-3.1-4.2-8.2-4.2-15.3v-3.7c-5.4,0.9-11.3,1.4-17.5,1.4c-9.4,0-19.1-1-29.4-2.8
		c-0.9,1.1-1.9,2.1-2.9,3.2c-16.9,17.7-36.5,26.6-58.8,26.6c-20,0-38.1-7.4-54.2-22.1c-3.2-3-6.2-6.1-8.9-9.4
		c-7.9,1.8-15.6,3.1-22.9,3.8c1.5,2.4,2.3,5.1,2.3,8.4c0,4.4-1.5,8-4.5,10.8c-3,2.8-8.2,4.2-15.4,4.2h-17.1
		c-2.4-3.7-4.8-7.3-7.1-10.7v2.6v30.4l40.1,0.1C450.4,523.3,466.9,528.6,478.5,539.1z"/>
	<path d="M425.7,633H396v37.8h10.8c7.2,0,12.4,1.4,15.5,4.2s4.6,6.4,4.6,10.9c0,4.4-1.5,8-4.6,10.8s-8.2,4.2-15.5,4.2h-17.7v267
		c0,30.8,24.9,56.1,56.1,56.1c31.2,0,56.1-24.9,56.1-56.1v-267h-15.1C461.9,663.2,441.8,640.6,425.7,633z"/>
	<path d="M456.9,560.6c-6.1-4.8-14.9-7.3-26.5-7.3H396V603h23.4c8.7,0,16.5-1.3,23.3-4c9.2-3.5,15.4-7.2,18.5-11.1
		c3.2-3.9,4.8-7.8,4.8-11.6C466,570.7,463,565.4,456.9,560.6z"/>
	<path d="M523.3,685.9c0-2.2-0.4-4.2-1.1-6.1v12C522.9,690.1,523.3,688.1,523.3,685.9z"/>
	<circle cx="512.7" cy="101.8" r="101.8"/>
	<path d="M417.2,391.4c1.8-0.5,3.6-0.9,5.9-1.8c0.5,0,1.4-0.5,1.8-0.5c1.8-0.5,3.6-0.9,5.4-1.8c0.5,0,0.9-0.5,1.4-0.5
		c1.4-0.6,2.9-1,4.5-1.4c4.4-17.3,13.3-32.2,26.7-44.6c1.4-1.2,2.7-2.4,4.1-3.5c-11.7-7.1-24-14.8-36.7-23.3
		c-2.3-0.9-3.6-1.4-4.5-2.3c-11.3-5.9-24.9-5-35.3,1.4c-4.1,2.7-8.1,6.3-10.9,10.9c-1.4,2.2-2.6,4.4-3.5,6.8c4.6,2.3,8.7,5,12.3,8.3
		c11.7,10.5,17.5,23.3,17.5,38.3c0,2.4-0.2,4.7-0.5,6.9c3.7,2.4,7.5,4.8,11.2,7.1H417.2z"/>
	<path d="M479.6,366.8c-1.5,1.7-3,3.4-4.3,5.2c0.6-0.2,1.1-0.4,1.6-0.5c4.1-1.8,8.6-3.6,13.1-5.9h0.5c4.5-2.3,9-4.1,13.6-6.8
		c-2.7-1.5-5.6-3.1-8.4-4.7C490,357.1,484.6,361.3,479.6,366.8z"/>
	<path d="M575.9,345.3c13.7,14.3,21.8,31.6,24.5,51.8c0.2-0.1,0.4-0.2,0.6-0.3c7.2-4.5,14.5-9,22.2-14c2.8-1.8,5.7-3.8,8.7-5.7
		c-0.1-1.5-0.2-2.9-0.2-4.4c0-14.4,6-26.9,18-37.7c0.1-0.1,0.2-0.1,0.2-0.2c-1-3.4-2.5-6.8-4.6-9.8c-3.2-4.5-6.8-8.1-10.9-10.9
		c-10.4-6.3-24-7.2-35.3-1.4c-1.4,0.5-2.3,1.4-3.6,2.3c-10.9,7.2-21.3,13.8-31.2,20C568.3,338,572.1,341.4,575.9,345.3z"/>
	<path d="M522.2,349.1c-1.7-0.2-3.4-0.3-5.1-0.3c-4.5,0-8.8,0.6-12.9,1.8c2.6,1.4,5.1,2.8,7.6,4.1
		C515.2,352.9,518.7,351,522.2,349.1z"/>
	<path d="M371.2,387.9c3.1-3.8,4.6-7.5,4.7-11.2c-4.6-4.9-8-10.7-10-16.8c-6-4.3-14.5-6.5-25.5-6.5h-9c-1.5,8.7-2.4,17.7-2.4,26.8
		c0,7.4,0.6,15.1,2.2,22.9c8-0.2,15.2-1.5,21.5-3.9C361.9,395.5,368.1,391.8,371.2,387.9z"/>
	<path d="M371,320.4c4.5-7.2,11.3-12.7,18.6-15.8c5.9-2.7,12.2-4.1,19-4.1c7.7,0,15.4,2.3,22.2,5.9c0.9,0.5,1.8,0.9,2.7,1.4
		c13.5,8.9,26.8,17.4,39.6,25c13.4-9.3,28.1-14,44-14c14.1,0,27,3.5,39,10.6c10.9-6.7,22.3-13.9,34-21.7c0.9-0.5,1.8-0.9,2.7-1.4
		c6.8-4.1,14.5-5.9,22.2-5.9c6.8,0,13.1,1.4,19,4.5c7.2,3.6,14,9,18.6,15.8c1.8,2.8,3.2,5.6,4.4,8.6c7.5-4.9,16.2-8.1,26-9.6
		c-3.8-10.4-8.3-20.4-13.6-29.7c-7.2-13.1-15.8-24.9-25.8-35.3c-5-5-10.9-9.5-18.1-13.6c-3.6-2.3-8.1-4.1-13.1-5.4
		c-4.1-1.8-8.6-2.7-13.6-2.7H425.3c-5,0-9.5,0.9-13.6,2.7c-5,1.4-9.5,3.2-13.1,5.4c-12.2,6.8-20.8,15.8-29,25.8
		c-11.8,14-21.3,31.7-28.5,51.1c-0.6,1.7-1.3,3.5-1.9,5.2c10.5,0,19.9,1.3,28.1,3.9C368.4,324.9,369.6,322.6,371,320.4z"/>
	<path d="M661.5,372.1c0,3.7,1.3,7.3,3.9,10.8c2.6,3.5,6.4,6.2,11.4,8.1c2.5,1,8.3,2.5,17.4,4.4c0.6-4.8,0.9-9.6,0.9-14.4
		c0-10.9-1.2-21.6-3.4-32c-8.5,0.7-15.4,3.1-20.7,7.3C664.7,361.4,661.5,366.6,661.5,372.1z"/>
	<path d="M448.1,465.9C438,450.7,433,432.8,433,412.1c0-5.7,0.4-11.2,1.1-16.4c-7.2,1.5-13,2.1-17.4,2.1c-5.9,0-9-0.9-10.9-1.4
		c-0.5-0.5-0.9-0.5-1.4-0.5l-0.5-0.5c-0.5-0.3-1-0.6-1.5-0.9c-1.2,2.9-2.8,5.7-4.7,8.4c-5.5,7.7-13.7,14.5-24.8,20.4
		c6.3,5.6,13.1,12.7,20.4,21.4c4.3,5.3,10,13.4,17.1,24.4c2.1,0.1,4.1,0.1,6.3,0.1C426.8,469.2,437.2,468.1,448.1,465.9z"/>
	<path d="M601.3,412.1c0,21.9-5.7,40.8-17.2,56.7c7.9,1.2,15.6,1.9,23.1,1.9c6.4,0,12.4-0.4,18.4-1.4v-8.8c0-7.2,1.4-12.4,4.2-15.5
		s6.5-4.6,11.1-4.6c3.5,0,6.5,0.9,8.9,2.8c2.4,1.9,4.2,5,5.5,9.3c0.6,2.1,1.2,3.8,1.8,5.2c12-7.5,21.8-18.4,27.6-30.1
		c0.4-0.8,0.8-1.7,1.2-2.5c-11.4-2.6-20.4-5.5-27-8.9c-8.4-4.3-15-10.4-19.9-18.2c-2.1-3.4-3.8-7-5-10.7
		c-11.3,7.5-22.2,14.4-32.7,20.9C601.3,409.5,601.3,410.8,601.3,412.1z"/>
	<path d="M500.9,449.3c2.3-0.9,4.5-1.8,7.2-2.7c1.4-0.5,2.7-1.4,4.1-1.8c17.9-7.8,37.5-17.9,59-30.2c0-0.8,0-1.7,0-2.5
		c0-18.3-5.5-33.4-16.6-45.3c-6.1-6.6-12.7-11.4-19.7-14.4c-21.2,12.1-39.7,21.4-55.8,28.2c-3.9,1.7-7.7,3.3-11.3,4.7
		c-3.2,8-4.9,17-4.9,26.8c0,18.2,5.5,33.2,16.6,45.2c0,0,0,0,0,0c2.4-0.8,4.8-1.6,7.3-2.5C491.4,452.9,495.9,451.1,500.9,449.3z"/>
	<path d="M554.7,457.3c7.9-8.6,13-18.8,15.2-30.7c-16.5,9.3-32.1,17.2-46.9,24c5,1.8,9.5,3.6,14,5.4c4.8,1.7,9.5,3.3,14.1,4.8
		C552.4,459.8,553.6,458.6,554.7,457.3z"/>
</g>
</svg>
