<?xml version="1.0" encoding="utf-8"?>
<!-- Generator: Adobe Illustrator 22.0.1, SVG Export Plug-In . SVG Version: 6.00 Build 0)  -->
<svg version="1.1" id="Layer_1" xmlns="http://www.w3.org/2000/svg" xmlns:xlink="http://www.w3.org/1999/xlink" x="0px" y="0px"
	 viewBox="0 0 1024 1024" style="enable-background:new 0 0 1024 1024;" xml:space="preserve">
<g>
	<path d="M376.1,586.7c0-5.5-2-10.2-6.1-14.3c-4-4-8.7-6.1-14.1-6.1c-3,0-5.7,0.6-8,1.9c-2.3,1.2-5.6,3.9-9.8,8.1
		c-6.8,6.9-13.2,11.5-19.1,13.9c-10.3,4-22.9,6.1-37.7,6.1c-24.9,0-44.3-6.4-58.3-19.3c-14-12.9-21-29-21-48.2v-26
		c0-16.1,3.8-30.1,11.5-41.8c7.7-11.7,16.5-20.2,26.6-25.4c10-5.2,21-7.8,33-7.8c9.6,0,19.2,1.8,28.8,5.3s17,8.2,22.4,14.1
		c2.7,3,4.6,7.2,5.5,12.7c1.6,8.2,4,13.8,7.2,16.8c3.3,3,7.5,4.5,12.9,4.5c5.9,0,10.6-2.1,14.4-6.2s5.6-11,5.6-20.6v-34
		c0-9.6-1.9-16.5-5.6-20.5c-3.7-4-8.5-6.1-14.4-6.1c-3.4,0-6.5,0.8-9.5,2.5c-2.9,1.7-5.6,4.2-8.1,7.6c-8.7-5.5-18.1-9.5-28.2-12.2
		c-10.1-2.7-20.9-4-32.5-4c-19.3,0-37.5,4.9-54.7,14.6S186.2,426,176.6,444c-9.7,18-14.6,37.5-14.6,58.3v27.1
		c0,19.9,5.4,38.3,16.2,55.2c10.8,16.9,23.9,29.2,39.3,37c14.3,7.4,29.9,11.9,46.9,13.8c34.5-16.8,71.2-30.2,109.4-39.8
		C375.3,592.6,376.1,589.6,376.1,586.7z"/>
	<path d="M468.3,540h39.6c12.7,6,27.3,19.1,43.9,39.3c18.2,1.1,36.1,3.1,53.8,5.8c-8.6-13.1-15.5-22.9-20.8-29.5
		c-9.6-11.6-18.7-21.1-27.1-28.5c14.7-7.9,25.7-17,33-27.2c7.3-10.2,10.9-21.6,10.9-34.1c0-20-7.8-37.1-23.3-51.1
		c-15.6-14-37.5-21-65.7-21l-90.6-0.2c-9.6,0-16.5,1.9-20.6,5.6s-6.2,8.6-6.2,14.6c0,6,2.1,10.8,6.2,14.6s11,5.6,20.6,5.6h6.3v151
		c13.2-2,26.6-3.5,40-4.6V540z M468.3,433.8h45.9c15.5,0,27.3,3.2,35.4,9.7c8.1,6.4,12.1,13.4,12.1,21c0,5.1-2.1,10.2-6.3,15.4
		c-4.2,5.2-12.5,10.2-24.7,14.8c-9.1,3.5-19.5,5.3-31.1,5.3h-31.3V433.8z"/>
	<path d="M796.8,630.5c9.6,0,16.5-1.9,20.6-5.6s6.2-8.5,6.2-14.4c0-6-2.1-10.8-6.2-14.6s-11-5.6-20.6-5.6h-27V531l65.6-97.3
		c9.4,0,16.1-1.9,20.3-5.6c4.2-3.7,6.3-8.6,6.3-14.6c0-6-2.1-10.8-6.2-14.5c-4.1-3.6-11-5.5-20.6-5.5l-37.7-0.2
		c-9.6,0.1-16.5,2-20.6,5.7c-4.1,3.6-6.2,8.5-6.2,14.5c0,4.4,1.2,8.3,3.7,11.7c2.5,3.4,6.6,6.2,12.5,8.4l-37.1,55.9L712,433.8
		c10.5-4.4,15.8-11.1,15.8-20.1c0-6-2.1-10.8-6.2-14.5c-4.1-3.6-11-5.5-20.6-5.5l-36.3-0.2c-9.6,0-16.5,1.9-20.6,5.6
		s-6.2,8.6-6.2,14.6c0,5.9,2.1,10.7,6.2,14.5c4.1,3.8,10.6,5.7,19.4,5.7l66.2,97.3v59.4h-27c-9.5,0-16.3,1.9-20.4,5.6
		c-1.8,1.6-3.2,3.4-4.2,5.5c26.5,7.8,52.1,17.5,76.8,29H796.8z"/>
	<path d="M78.9,609.4c0,0,80.8,0.7,80.8-80.6c0,0,0-37-26.7-76.8c0,0-23.7-35-33.3-95.1c0,0-99.7,89.8-99.7,165
		C0,521.9,0,609.3,78.9,609.4z"/>
	<path d="M68.9,244.8c30.2,0,54.7-24.5,54.7-54.7c0-44.7,36.4-81,81.1-81c44.7,0,81,36.3,81,81c0,30.2,24.5,54.7,54.7,54.7
		s54.7-24.5,54.7-54.7C395.1,85,309.6-0.4,204.6-0.4C99.5-0.4,14.1,85.1,14.1,190.1C14.1,220.3,38.7,244.8,68.9,244.8z"/>
	<path d="M675.8,245.4c30.2,0,54.7-24.5,54.7-54.7c0-44.7,36.4-81,81.1-81s81,36.3,81,81c0,30.2,24.5,54.7,54.7,54.7
		s54.7-24.5,54.7-54.7C1002,85.6,916.5,0.2,811.5,0.2C706.4,0.2,621,85.7,621,190.7C621,220.9,645.5,245.4,675.8,245.4z"/>
	<path d="M1018.6,898.5c-51.9-120-146.7-213.8-263.5-268h-52.2c-9.5,0-16.3-1.9-20.4-5.6s-6.2-8.6-6.2-14.6c0-3.3,0.7-6.3,2-8.9
		c-23.6-7-47.9-12.5-72.6-16.3c1.1,1.7,2.3,3.5,3.4,5.3c10.2,0,16.9,1,20.1,3.1c5.9,4,8.8,9.7,8.8,17c0,5.9-2,10.6-6.1,14.4
		c-4,3.7-10.9,5.6-20.5,5.6h-22.9c-13.2-20.3-25.4-37.4-36.7-51.2c-11.7-0.7-23.4-1.1-35.2-1.1c-16.3,0-32.4,0.7-48.3,2v10.2h14.5
		c9.6,0,16.5,1.9,20.6,5.6s6.2,8.6,6.2,14.6c0,5.9-2.1,10.6-6.2,14.4s-11,5.6-20.6,5.6H422c-9.6,0-16.5-1.9-20.6-5.6
		s-6.2-8.6-6.2-14.6c0-5.9,2.1-10.6,6.3-14.4c4.2-3.7,11-5.6,20.5-5.6h6.3v-5.6c-18.4,2.8-36.6,6.4-54.4,10.9
		c-1.4,2.8-3.3,5.7-5.9,8.6c-7.9,9.1-18.2,16.3-30.7,21.5c-16.8,7-35.4,10.5-55.7,10.5c-5.9,0-11.6-0.3-17.1-0.9
		C151,690.6,60.3,782.9,11.7,900.1c-13.9,33.5,2,71.9,35.5,85.8c8.3,3.4,16.8,5,25.2,5c25.8,0,50.2-15.2,60.7-40.5
		c60.7-146.3,211.3-240.9,383.6-240.9c168.4,0,318,94.7,381.4,241.1c14.4,33.3,53,48.6,86.3,34.2
		C1017.7,970.4,1033,931.8,1018.6,898.5z"/>
</g>
</svg>
