<?xml version="1.0" encoding="utf-8"?>
<!-- Generator: Adobe Illustrator 22.0.1, SVG Export Plug-In . SVG Version: 6.00 Build 0)  -->
<svg version="1.1" id="Layer_1" xmlns="http://www.w3.org/2000/svg" xmlns:xlink="http://www.w3.org/1999/xlink" x="0px" y="0px"
	 viewBox="0 0 1024 1024" style="enable-background:new 0 0 1024 1024;" xml:space="preserve">
<g>
	<path d="M210.9,554.6c4.7-9.2,12.2-16.5,21.3-21.1c0.3-3.1,0.4-6.3,0.4-9.7v-14.4c0-10.4-1.2-19.3-3.5-26.5
		c-2.3-7.2-5.8-14.5-10.5-21.8c-4.6-7.3-9.1-13.1-13.4-17.3c-5.7-5.6-13.2-10.2-22.5-13.8c-9.3-3.6-18.9-5.4-28.6-5.4l-62.8-0.1
		c-7.2,0-12.4,1.4-15.5,4.2s-4.6,6.4-4.6,10.9c0,4.4,1.5,8,4.5,10.8c3,2.8,7.7,4.2,14.1,4.3v117.5c-6.3-0.1-10.9,1.3-14,4.1
		c-3.1,2.8-4.6,6.4-4.6,10.8c0,4.5,1.5,8.1,4.6,10.9s8.2,4.2,15.5,4.2h60.4c15.5,0,28.2-2.3,37.9-6.9c5.2-2.5,10.7-6.1,16.5-10.9
		C204.4,574.3,206.1,563.8,210.9,554.6z M202.6,522.9c0,11-2,20-6,27c-4,6.9-10,12.6-17.9,17.1c-6.1,3.4-15,5.1-27,5.1h-31.9V454.7
		h31.6c10.6,0,19.5,2.1,26.6,6.2c7.1,4.2,13.5,11.8,19.1,22.9c3.6,7.1,5.4,15.4,5.4,24.9V522.9z"/>
	<path d="M431,584.1h-12.2l-58.7,15.4c3.1,1.8,7.5,2.7,13.3,2.7h40.4c7.2,0,12.4-1.4,15.4-4.2c1.3-1.2,2.3-2.5,3-4
		c-1-2-1.6-4.3-1.6-6.9C430.8,586.1,430.9,585.1,431,584.1z"/>
	<path d="M337,464.4l14.9,36.6l29.3-7.7l-27.8-68.6l-64.9-0.1c-7.2,0-12.4,1.4-15.5,4.2s-4.6,6.4-4.6,10.9c0,4.5,1.5,8.1,4.6,10.9
		s8.2,4.2,15.5,4.2h19.6l-25.9,64.5l36.2-9.5L337,464.4z"/>
	<path d="M433.9,587.3c0,2.5-0.5,4.8-1.5,6.8c0.8,1.5,1.8,2.8,3.1,4c3.1,2.8,8.2,4.2,15.5,4.2h39.4c7.2,0,12.4-1.4,15.5-4.2
		s4.6-6.4,4.6-10.8c0-1.1-0.1-2.1-0.3-3.1h-76.5C433.7,585.1,433.9,586.2,433.9,587.3z"/>
	<path d="M624,559.7c1.3,2.8,2.9,5.5,4.6,8.1c8.1,12.6,17.9,21.9,29.4,27.8c14.3,7.3,30.3,11,48,11c15.2,0,29.2-2.6,41.7-7.9
		c9.4-3.9,17-9.3,23-16.1c4.1-4.7,6.2-9.1,6.2-13.2c0-4.1-1.5-7.7-4.5-10.7c-3-3-6.5-4.5-10.5-4.5c-2.2,0-4.2,0.5-6,1.4
		c-1.8,0.9-4.2,3-7.3,6.1c-5.1,5.2-9.9,8.6-14.4,10.4c-7.7,3-17.1,4.5-28.3,4.5c-18.7,0-33.2-4.8-43.7-14.5
		c-10.5-9.7-15.7-21.7-15.7-36.2v-19.5c0-12.1,2.9-22.6,8.6-31.3c5.8-8.8,12.4-15.1,19.9-19c7.5-3.9,15.8-5.9,24.8-5.9
		c7.2,0,14.4,1.3,21.6,4s12.8,6.2,16.8,10.5c2.1,2.2,3.4,5.4,4.1,9.5c1.2,6.2,3,10.4,5.4,12.6c2.4,2.2,5.7,3.4,9.7,3.4
		c4.4,0,8-1.5,10.8-4.6s4.2-8.2,4.2-15.5v-25.5c0-7.2-1.4-12.4-4.2-15.4c-2.8-3-6.4-4.5-10.8-4.5c-2.5,0-4.9,0.6-7.1,1.9
		c-2.2,1.3-4.2,3.2-6.1,5.7c-6.5-4.1-13.6-7.2-21.2-9.2c-7.6-2-15.7-3-24.4-3c-14.5,0-28.1,3.7-41,11s-23,17.8-30.2,31.3
		c-1.6,2.9-3,5.9-4.2,8.9v85.9L624,559.7z"/>
	<path d="M948.7,540.5c-2.8-3.1-6.4-4.6-10.8-4.6c-4.5,0-8.1,1.5-10.9,4.6s-4.2,8.2-4.2,15.5v16.3h-76.6v-44.1h26.4
		c0,7.9,0.7,13,2.2,15.2c3,4.8,7.3,7.2,12.9,7.2c5.3,0,9.5-2.3,12.6-6.9c1.6-2.2,2.3-6.6,2.3-13.2v-34.6c0-7.2-1.4-12.4-4.2-15.5
		s-6.4-4.6-10.8-4.6c-5.6,0-9.9,2.4-12.9,7.2c-1.5,2.2-2.2,7.3-2.2,15.1h-26.4v-43.4h70v15.7c0,7.2,1.4,12.4,4.2,15.4
		c2.8,3,6.4,4.5,10.9,4.5c4.5,0,8.1-1.5,10.8-4.6c2.7-3.1,4.1-8.2,4.1-15.3v-45.7l-134.8-0.1c-7.2,0-12.4,1.4-15.5,4.2
		s-4.6,6.4-4.6,10.9c0,4.5,1.5,8.1,4.6,10.9s8.2,4.2,15.5,4.2h4.7v117.5h-4.7c-7.1,0-12.3,1.4-15.4,4.2c-3.1,2.8-4.7,6.4-4.7,10.8
		c0,4.5,1.5,8.1,4.6,10.9s8.2,4.2,15.5,4.2h141.4v-46.3C952.8,548.7,951.5,543.5,948.7,540.5z"/>
	<path d="M778,276.3c13.1,0,25.4-6.3,33-16.9c7.6-10.6,9.7-24.3,5.5-36.7L751.5,31C744.3,9.7,721.2-1.6,700,5.6
		c-21.2,7.2-32.6,30.2-25.4,51.5l46.8,137.3H307.5l46.8-138c7.2-21.2-4.2-44.3-25.4-51.5c-21.2-7.2-44.3,4.2-51.5,25.4l-65,191.7
		c-4.2,12.4-2.2,26.1,5.5,36.7c7.6,10.6,19.9,16.9,33,16.9h157.2v210.7l-26.8,7l32,78.9c7,0,11.7,0.8,13.9,2.3
		c2.3,1.7,4.1,3.7,5.2,5.9c0.7-1.5,1.7-2.8,3-4c3-2.8,7.7-4.2,14.1-4.2V454.7h-4.7c-7.2,0-12.4-1.4-15.5-4.2s-4.6-6.4-4.6-10.9
		c0-4.5,1.5-8.1,4.6-10.9s8.2-4.2,15.5-4.2l34.7,0.1l76.8,120.4v-90.4h-10.8c-7.2,0-12.4-1.4-15.5-4.2s-4.6-6.4-4.6-10.9
		c0-4.5,1.5-8.1,4.6-10.9s8.2-4.2,15.5-4.2l39.4,0.1c7.2,0,12.4,1.4,15.5,4.1c3.1,2.7,4.6,6.3,4.6,10.8c0,4.4-1.5,8-4.5,10.8
		c-3,2.8-7.7,4.2-13.9,4.2v147.5h-29.7l-77.2-120.8v90.8h10.8c7.2,0,12.4,1.4,15.5,4.2c2.3,2.1,3.8,4.7,4.3,7.8h19.3l49.3,143.3
		l-51,237.6c-5.7,26.3,11.1,52.2,37.4,57.9c3.4,0.7,6.9,1.1,10.3,1.1c22.5,0,42.7-15.6,47.6-38.5l53.9-250.9
		c1.9-8.7,1.3-17.7-1.6-26.1L624,559.7c-5.1-10.4-7.6-21.4-7.6-33.2v-20.4c0-12.3,2.2-23.9,6.7-34.8v-195H778z"/>
	<polygon points="312.7,523.8 361.2,523.8 351.9,501 318.5,509.7 	"/>
	<path d="M353.4,587.1c0-4.4,1.5-8,4.6-10.8s8.2-4.2,15.5-4.2h7.3l-7.2-18.3h-72.9l-7.3,18.3h7.3c7.2,0,12.4,1.4,15.5,4.2
		s4.6,6.4,4.6,10.9c0,4.4-1.5,8-4.6,10.8s-8.2,4.2-15.5,4.2h-40.4c-7.2,0-12.4-1.4-15.5-4.2s-4.6-6.4-4.6-10.9c0-4.5,1.6-8.2,4.8-11
		c3.2-2.8,8.5-4.1,16-4l21.3-53l-40.5,10.6c-3.4,0.9-6.6,2.1-9.7,3.7c-0.8,8.8-2.8,16.9-6,24.1c-4.3,9.8-9.9,17.8-16.9,24
		c-1.1,1-2.2,1.9-3.2,2.8c0.5,3.3,1.4,6.6,2.6,9.8l66.1,175.5c7.4,19.5,25.9,31.6,45.6,31.5c5.7,0,11.5-1,17.2-3.1
		c25.2-9.5,37.9-37.6,28.4-62.8l-47.1-124.9l41.4-10.8c-0.8-0.4-1.5-0.9-2.1-1.5C355,595.2,353.4,591.6,353.4,587.1z"/>
	<path d="M433.5,584.1c-0.3-1.3-0.7-2.6-1.2-3.7c-0.6,1.2-1,2.4-1.3,3.7H433.5z"/>
	<ellipse transform="matrix(0.7071 -0.7071 0.7071 0.7071 91.6426 389.5237)" cx="516" cy="84.1" rx="84.1" ry="84.1"/>
</g>
</svg>
