<?xml version="1.0" encoding="iso-8859-1"?>
<!-- Generator: Adobe Illustrator 19.0.0, SVG Export Plug-In . SVG Version: 6.00 Build 0)  -->
<svg version="1.1" id="Capa_1" xmlns="http://www.w3.org/2000/svg" xmlns:xlink="http://www.w3.org/1999/xlink" x="0px" y="0px"
	 viewBox="0 0 512 512" style="enable-background:new 0 0 512 512;" xml:space="preserve">
<g>
	<g>
		<path d="M126.001,226c-5.52,0-10,4.48-10,10s4.48,10,10,10c5.52,0,10-4.48,10-10S131.521,226,126.001,226z"/>
	</g>
</g>
<g>
	<g>
		<path d="M86.001,86c-5.52,0-10,4.48-10,10s4.48,10,10,10c5.52,0,10-4.48,10-10S91.521,86,86.001,86z"/>
	</g>
</g>
<g>
	<g>
		<path d="M416.001,125.999c-8.224,0-15.874,2.497-22.238,6.769C388.36,117.319,373.597,106,356.001,106
			c-11.933,0-22.654,5.259-29.989,13.573C318.256,110.79,307.458,106,296.001,106c-7.283,0-14.112,1.966-20,5.381V40
			c0-22.056-17.944-40-40-40c-22.056,0-40,17.944-40,40c0,24.156,0,221.419,0,246.005c-29.489-6.642-59.704-10.005-90-10.005
			c-22.056,0-40,17.944-40,40c0,22.056,17.944,40,40,40c20.685,0,41.416,1.953,61.622,5.804c13.037,2.479,25.151,8.96,35.031,18.742
			c4.356,4.314,8.831,8.35,13.347,12.059V482c0,3.798,2.152,7.269,5.554,8.957c1.731,0.859,42.982,21.043,94.446,21.043
			s92.715-20.184,94.446-21.043c3.402-1.688,5.554-5.159,5.554-8.957v-80.092c24.823-14.836,40-41.353,40-70.629
			c0-14.139,0-148.155,0-165.28C456.001,143.9,438.102,125.999,416.001,125.999z M336.001,146c0-11.028,8.972-20,20-20
			c11.045,0,20,8.954,20,20c0,7.151,0,69.199,0,80c0,11.028-8.972,20-20,20c-11.028,0-20-8.972-20-20V146z M276.001,146
			c0-11.028,8.972-20,20-20c11.045,0,20,8.954,20,20v80c0,11.028-8.972,20-20,20c-11.028,0-20-8.972-20-20V146z M396.001,475.51
			c-12.286,5.136-43.579,16.49-80,16.49c-36.271,0-67.679-11.371-80-16.5v-68.821c18.461,10.91,41.779,19.321,80,19.321
			c26.751,0,54.83-5.598,80-14.984V475.51z M436.001,331.28c0,23.768-13.209,45.14-34.438,55.759
			c-0.153,0.076-10.634,5.191-27.155,10.082c1.037-3.565,1.593-7.302,1.593-11.121c0-16.107-9.586-30.571-24.422-36.85
			c-5.087-2.151-10.955,0.226-13.107,5.312c-2.152,5.086,0.226,10.955,5.312,13.107c7.422,3.141,12.217,10.375,12.217,18.431
			c0,7.406-4.128,14.205-10.608,17.659c-9.996,1.547-19.878,2.341-29.392,2.341c-38.431,0-61.981-9.167-83.782-26.03
			c-5.222-4.039-10.434-8.626-15.493-13.636c-12.719-12.593-28.407-20.953-45.362-24.177C149.93,338.071,127.939,336,106.001,336
			c-11.028,0-20-8.972-20-20s8.972-20,20-20c32.905,0,65.708,4.169,97.496,12.391c12.562,3.25,25.121,7.177,37.328,11.673
			c5.184,1.91,10.932-0.745,12.84-5.928c1.909-5.183-0.745-10.931-5.928-12.84c-10.4-3.83-21.044-7.26-31.736-10.244
			c0-12.808,0-103.057,0-115.053V96V40c0-11.028,8.972-20,20-20c11.028,0,20,8.972,20,20v56c0,25.479,0,65.514,0,80v50
			c0,22.056,17.944,40,40,40c11.938,0,22.665-5.264,30-13.585c7.335,8.321,18.062,13.585,30,13.585
			c8.231,0,15.888-2.501,22.255-6.78c5.472,15.578,20.321,26.78,37.745,26.78c7.283,0,14.112-1.966,20-5.381V331.28z M436.001,246
			c0,11.028-8.972,20-20,20c-11.028,0-20-8.972-20-20v-80c0-11.028,8.972-20,20-20c11.045,0,20,8.954,20,20
			C436.001,191.479,436.001,231.514,436.001,246z"/>
	</g>
</g>
<g>
	<g>
		<path d="M246.001,86h-20c-5.523,0-10,4.477-10,10s4.477,10,10,10h20c5.523,0,10-4.477,10-10S251.524,86,246.001,86z"/>
	</g>
</g>
<g>
	<g>
		<path d="M246.001,166h-20c-5.523,0-10,4.477-10,10s4.477,10,10,10h20c5.523,0,10-4.477,10-10S251.524,166,246.001,166z"/>
	</g>
</g>
<g>
	<g>
		<path d="M173.073,108.928l-60-60c-3.905-3.905-10.237-3.905-14.143,0c-3.905,3.905-3.905,10.237,0,14.143l60,60
			c3.904,3.905,10.237,3.906,14.143,0C176.978,119.166,176.978,112.834,173.073,108.928z"/>
	</g>
</g>
<g>
	<g>
		<path d="M148.427,146.299l-80-20c-5.36-1.34-10.788,1.917-12.127,7.276c-1.339,5.358,1.918,10.787,7.276,12.127l80,20
			c0.814,0.203,1.63,0.301,2.433,0.301c4.48,0,8.558-3.033,9.694-7.577C157.042,153.068,153.785,147.639,148.427,146.299z"/>
	</g>
</g>
<g>
	<g>
		<path d="M155.703,193.574c-1.34-5.358-6.771-8.613-12.127-7.276l-80,20c-5.358,1.34-8.616,6.769-7.276,12.127
			c1.339,5.355,6.763,8.615,12.127,7.276l80-20C153.785,204.361,157.043,198.932,155.703,193.574z"/>
	</g>
</g>
<g>
</g>
<g>
</g>
<g>
</g>
<g>
</g>
<g>
</g>
<g>
</g>
<g>
</g>
<g>
</g>
<g>
</g>
<g>
</g>
<g>
</g>
<g>
</g>
<g>
</g>
<g>
</g>
<g>
</g>
</svg>
