<?xml version="1.0" encoding="utf-8"?>
<!-- Generator: Adobe Illustrator 22.0.1, SVG Export Plug-In . SVG Version: 6.00 Build 0)  -->
<svg version="1.1" id="Layer_1" xmlns="http://www.w3.org/2000/svg" xmlns:xlink="http://www.w3.org/1999/xlink" x="0px" y="0px"
	 viewBox="0 0 1024 1024" style="enable-background:new 0 0 1024 1024;" xml:space="preserve">
<g>
	<path d="M133.4,600.8c7.2,0,12.4-1.4,15.5-4.2s4.6-6.4,4.6-10.8c0-4.5-1.5-8.1-4.6-10.9s-8.2-4.2-15.5-4.2h-10.8v-33.3l18.5-15.7
		c7.5,3,14,7.1,19.4,12.1c5.4,5,11.2,13.1,17.2,24.1c7.4,13.6,14.3,27.8,20.5,42.8h27.2c7.2,0,12.4-1.4,15.4-4.2
		c3-2.8,4.5-6.4,4.5-10.8c0-4.5-1.5-8.1-4.6-10.9s-8.2-4.2-15.3-4.2h-8.1c-6.8-17.5-14.7-32.1-23.5-43.9
		c-8.8-11.8-18.3-20.6-28.3-26.4l53.9-47.2c6.5,0,11.4-1.4,14.4-4.2c3.1-2.8,4.6-6.4,4.6-10.8c0-4.5-1.5-8.1-4.6-10.8
		c-3.1-2.7-8.2-4.1-15.5-4.1l-30.6-0.1c-7.2,0-12.4,1.4-15.5,4.2c-3.1,2.8-4.6,6.5-4.6,11.1c0,2.8,0.6,5.2,1.8,7.2
		c1.2,2,3.3,4.1,6.4,6.3l-53.3,45.8v-44.5h10.8c7.2,0,12.4-1.4,15.5-4.2s4.6-6.4,4.6-10.9c0-4.5-1.5-8.1-4.6-10.8
		c-3.1-2.7-8.2-4.1-15.5-4.1l-45.6-0.1c-7.2,0-12.4,1.4-15.5,4.2s-4.6,6.4-4.6,10.9c0,4.5,1.5,8.1,4.6,10.9s8.2,4.2,15.5,4.2h4.7
		v117.5h-4.7c-7.1,0-12.3,1.4-15.4,4.2c-3.1,2.8-4.7,6.4-4.7,10.8c0,4.5,1.5,8.1,4.6,10.9s8.2,4.2,15.5,4.2H133.4z"/>
	<path d="M296.3,480l12.3,19.2l17.8-28.7l-30.1-47.2l-34.7-0.1c-7.2,0-12.4,1.4-15.5,4.2s-4.6,6.4-4.6,10.9c0,4.5,1.5,8.1,4.6,10.9
		s8.2,4.2,15.5,4.2h4.7v113.9l30-48.3V480z"/>
	<path d="M252.2,575.1c-3,2.8-4.5,6.4-4.5,10.7c0,3,0.7,5.7,2.1,7.9l14.2-22.8C258.8,571.2,254.9,572.6,252.2,575.1z"/>
	<path d="M346.8,427.3c-3.1,2.8-4.6,6.4-4.6,10.9c0,2,0.3,3.8,0.9,5.5l12.5-20.1C351.7,424.3,348.8,425.5,346.8,427.3z"/>
	<path d="M559.7,570.8h-2.3l-16.1,30h48.4v-46.3c0-7.2-1.4-12.4-4.2-15.5c-2.3-2.6-5.3-4.1-8.7-4.5l-17.1,31.9V570.8z"/>
	<path d="M759.9,423.3l-42.6,0c6.9,13.7,11.3,22.4,11.3,22.4L759.9,423.3z"/>
	<polygon points="769.7,600.8 769.7,584.2 746.4,600.8 	"/>
	<path d="M640.3,578.1l-7.2-15.1v7.8h-4.7c-7.1,0-12.3,1.4-15.4,4.2c-3.1,2.8-4.7,6.4-4.7,10.8c0,4.5,1.5,8.1,4.6,10.9
		s8.2,4.2,15.5,4.2h29.5C650.6,594.7,644.5,586.9,640.3,578.1z"/>
	<path d="M952,526.9c-2.8-3.1-6.4-4.6-10.8-4.6c-4.5,0-8.1,1.5-10.9,4.6s-4.2,8.2-4.2,15.5v28.4h-64.7v-51.9l-30,21.4v30.5H814
		c-7.2,0-12.4,1.4-15.5,4.2s-4.6,6.4-4.6,10.8c0,4.5,1.5,8.1,4.6,10.9s8.2,4.2,15.5,4.2h142.2v-58.4
		C956.2,535.2,954.8,530,952,526.9z"/>
	<path d="M628.4,453.3c-7.2,0-12.4-1.4-15.5-4.2s-4.6-6.4-4.6-10.9c0-4.5,1.5-8.1,4.6-10.9s8.2-4.2,15.5-4.2l88.9,0.1
		c-10.9-21.7-28.1-55.9-43.8-87.2c-22-43.6-55.7-79.5-97.8-104.4c-17.3-10.7-37-14.6-55.7-12.2c-24.7,3.1-47.8,16.9-62,39.6
		L355.6,423.7c2-0.3,4.2-0.5,6.6-0.5l39.4,0.1c7.2,0,12.4,1.4,15.5,4.1c3.1,2.7,4.6,6.3,4.6,10.8c0,4.4-1.5,8-4.5,10.8
		c-3,2.8-7.7,4.2-13.9,4.2v147.5h-29.7l-64.9-101.6L296.3,519v51.9h10.8c7.2,0,12.4,1.4,15.5,4.2s4.6,6.4,4.6,10.9
		c0,4.4-1.5,8-4.6,10.8s-8.2,4.2-15.5,4.2h-39.4c-7.2,0-12.4-1.4-15.5-4.2c-1-0.9-1.8-1.9-2.5-3l-1.5,2.4
		c-39.5,63.6-26.2,147.9,31,196.2l71.9,60.7H167.7c-47.2,0-85.5,38.3-85.5,85.5c0,47.2,38.3,85.5,85.5,85.5h417.1
		c35.9,0,67.9-22.4,80.3-56.1c12.3-33.7,2.3-71.5-25.1-94.7L471.5,730.9l69.7-130.1h-92.9c-7.2,0-12.4-1.4-15.5-4.2
		s-4.6-6.4-4.6-10.9c0-4.4,1.6-8,4.7-10.8c3.1-2.8,8.3-4.2,15.4-4.2h4.7V453.3h-4.7c-7.2,0-12.4-1.4-15.5-4.2s-4.6-6.4-4.6-10.9
		c0-4.5,1.5-8.1,4.6-10.9s8.2-4.2,15.5-4.2l134.8,0.1V469c0,7.1-1.4,12.2-4.1,15.3c-2.7,3.1-6.3,4.6-10.8,4.6
		c-4.5,0-8.1-1.5-10.9-4.5c-2.8-3-4.2-8.2-4.2-15.4v-15.7h-70v43.4h26.4c0-7.8,0.7-12.8,2.2-15.1c3-4.8,7.3-7.2,12.9-7.2
		c4.4,0,8,1.5,10.8,4.6s4.2,8.2,4.2,15.5v34.6c0,6.5-0.8,10.9-2.3,13.2c-3.1,4.6-7.3,6.9-12.6,6.9c-5.6,0-9.9-2.4-12.9-7.2
		c-1.5-2.2-2.2-7.3-2.2-15.2h-26.4v44.1h74.3l2.3-4.3v-12c0-7.2,1.4-12.4,4.2-15.5s6.4-4.6,10.9-4.6c0.7,0,1.4,0.1,2,0.1l22.6-42.1
		l33.7,70.4V453.3H628.4z"/>
	<path d="M684.9,614.8c5.6,1.4,11.4,2.2,17.1,2.2c14.1,0,28-4.4,39.7-12.7l4.8-3.4h-88.5C665.7,607.4,674.8,612.2,684.9,614.8z"/>
	<path d="M373.1,453.3h-10.8c-7.2,0-12.4-1.4-15.5-4.2c-1.7-1.5-2.9-3.4-3.7-5.4l-16.7,26.8l46.6,73.2V453.3z"/>
	<path d="M814,453.3c-7.2,0-12.4-1.4-15.5-4.2s-4.6-6.4-4.6-10.9c0-4.5,1.5-8.1,4.6-10.9s8.2-4.2,15.5-4.2l65,0.1
		c7.2,0,12.4,1.4,15.5,4.1c3.1,2.7,4.6,6.3,4.6,10.8c0,4.5-1.5,8.1-4.6,10.9s-8.2,4.2-15.5,4.2h-17.6v65.5l51.6-36.8
		c30.8-21.9,37.9-64.6,16-95.4c-21.9-30.7-64.6-37.9-95.4-16l-73.8,52.6l3.2,0V469c0,7.1-1.4,12.2-4.1,15.3
		c-2.7,3.1-6.3,4.6-10.8,4.6c-4.5,0-8.1-1.5-10.9-4.5c-2.8-3-4.2-8.2-4.2-15.4v-15.7h-70v43.4h26.4c0-7.8,0.7-12.8,2.2-15.1
		c3-4.8,7.3-7.2,12.9-7.2c4.4,0,8,1.5,10.8,4.6s4.2,8.2,4.2,15.5v34.6c0,6.5-0.8,10.9-2.3,13.2c-3.1,4.6-7.3,6.9-12.6,6.9
		c-5.6,0-9.9-2.4-12.9-7.2c-1.5-2.2-2.2-7.3-2.2-15.2h-26.4v44.1h76.6v-16.3c0-7.2,1.4-12.4,4.2-15.5s6.4-4.6,10.9-4.6
		c4.4,0,8,1.5,10.8,4.6s4.2,8.2,4.2,15.5v29.7l61.7-43.9v-86.9H814z"/>
	<path d="M266.3,567.2l-2.3,3.6c0.7,0,1.5-0.1,2.3-0.1V567.2z"/>
	<path d="M748.6,247.5c68.4,0,123.7-55.4,123.7-123.7C872.3,55.4,816.9,0,748.6,0c-68.3,0-123.7,55.4-123.7,123.7
		C624.8,192.1,680.2,247.5,748.6,247.5z"/>
</g>
</svg>
