<?xml version="1.0" encoding="iso-8859-1"?>
<!-- Generator: Adobe Illustrator 18.0.0, SVG Export Plug-In . SVG Version: 6.00 Build 0)  -->
<!DOCTYPE svg PUBLIC "-//W3C//DTD SVG 1.1//EN" "http://www.w3.org/Graphics/SVG/1.1/DTD/svg11.dtd">
<svg version="1.1" id="Capa_1" xmlns="http://www.w3.org/2000/svg" xmlns:xlink="http://www.w3.org/1999/xlink" x="0px" y="0px"
	 viewBox="0 0 495.19 495.19" style="enable-background:new 0 0 495.19 495.19;" xml:space="preserve">
<g>
	<path d="M449.29,187.01c-10.592-14.863-31.246-18.335-46.117-7.742l-50.864,36.242c0,0.008-14.29-28.402-26.642-52.98
		c-10.626-21.096-26.918-38.462-47.28-50.485c-8.363-5.198-17.874-7.055-26.948-5.909c-11.934,1.5-23.124,8.162-29.986,19.167
		L120.078,288.27c-19.104,30.736-12.676,71.524,14.969,94.874l34.765,29.373H81.099c-22.834,0-41.337,18.504-41.337,41.337
		c0,22.832,18.503,41.337,41.337,41.337h201.713c17.357,0,32.859-10.836,38.817-27.136c5.957-16.294,1.115-34.579-12.142-45.778
		l-81.464-68.82l61.812-115.268l19.797,41.354c4.215,8.807,12.11,15.308,21.557,17.747c2.728,0.701,5.506,1.048,8.268,1.048
		c6.814,0,13.532-2.107,19.184-6.136l82.898-59.065C456.427,222.536,459.883,201.889,449.29,187.01z"/>
	<path d="M361.997,119.677c33.054,0,59.825-26.79,59.825-59.835C421.822,26.789,395.051,0,361.997,0
		c-33.053,0-59.843,26.789-59.843,59.842C302.154,92.887,328.944,119.677,361.997,119.677z"/>
</g>
<g>
</g>
<g>
</g>
<g>
</g>
<g>
</g>
<g>
</g>
<g>
</g>
<g>
</g>
<g>
</g>
<g>
</g>
<g>
</g>
<g>
</g>
<g>
</g>
<g>
</g>
<g>
</g>
<g>
</g>
</svg>
