<?xml version="1.0" encoding="utf-8"?>
<!-- Generator: Adobe Illustrator 22.0.1, SVG Export Plug-In . SVG Version: 6.00 Build 0)  -->
<svg version="1.1" id="Layer_1" xmlns="http://www.w3.org/2000/svg" xmlns:xlink="http://www.w3.org/1999/xlink" x="0px" y="0px"
	 viewBox="0 0 1024 1024" style="enable-background:new 0 0 1024 1024;" xml:space="preserve">
<g>
	<polygon points="348.8,484.3 358.6,476.2 341.2,430.1 331.4,438.3 	"/>
	<path d="M294.2,529.9l2.6-2.2h-3l30.9-83.8l-18.4,15.4l-28.1,76c0.4,0,0.8,0,1.2,0C284.6,535.3,289.8,533.5,294.2,529.9z"/>
	<path d="M767.8,531c0.8-1.1,1.2-2.2,1.2-3.5c0-1.9-0.6-3.3-1.9-4.5c-1.3-1.1-3.4-1.7-6.3-1.7l-18,0l10.3,8.5c2,1.6,4.2,2.9,6.4,3.8
		c3-0.1,5-0.2,5.7-0.5C766.2,532.8,767.1,532.1,767.8,531z"/>
	<path d="M655.8,432c-3.9,2.2-7.5,4.8-10.8,7.8l10,8.4c2.9-2.7,6-4.9,9-6.5c9.1-4.9,19.4-7.4,30.7-7.4c6.7,0,13.1,0.8,19.2,2.5
		L696.3,422c-0.9,0-1.7,0-2.6,0C680,421.9,667.4,425.3,655.8,432z"/>
	<path d="M744.3,462.5c0.1,2.8,0.7,4.8,1.8,5.9c1.1,1.1,2.5,1.7,4.2,1.7c1.1,0,2.1-0.2,3-0.7l-9-7.5
		C744.2,462.1,744.2,462.3,744.3,462.5z"/>
	<path d="M512,0C229.7,0,0,229.7,0,512s229.7,512,512,512s512-229.7,512-512S794.3,0,512,0z M613.4,377.8l139.6-116.4
		c9.9-8.2,24.6-6.9,32.8,3c8.2,9.9,6.9,24.6-3,32.8l-118.2,98.5l31.6,26.3c18.7,0.5,34.6,5.9,47.7,16.2c0-4.8,0.2-7.7,0.5-8.6
		c0.3-1,1-1.8,2.1-2.6c1.1-0.7,2.3-1.1,3.7-1.1c1.8,0,3.2,0.6,4.4,1.9c1.2,1.3,1.8,3.4,1.8,6.3v27.8c0,3-0.6,5.2-1.8,6.4
		c-0.4,0.5-0.9,0.8-1.4,1.1l29.7,24.7c9.9,8.2,11.2,22.9,3,32.8c-4.6,5.5-11.2,8.4-17.9,8.4c-2.9,0-5.7-0.5-8.5-1.6
		c-0.9,0-1.9,0-3.1,0v52.7c-9.4,5.2-18.7,9.1-28.1,11.7c-9.3,2.6-18.6,4-27.9,4c-13.2,0-24.8-2-34.8-5.9c-10-3.9-18.5-9.4-25.4-16.4
		c-6.9-7-12.3-14.9-16.2-23.6c-3.9-8.7-5.8-19.7-5.8-33.1v-22.6c0-13.5,3.3-26.6,10-39.3c4.5-8.5,10-15.6,16.7-21.5l-31.5-26.3
		c-5.3-4.4-8.4-11-8.4-17.9C605.1,388.7,608.2,382.2,613.4,377.8z M491.6,427.6c1.3,1.1,1.9,2.6,1.9,4.5c0,1.9-0.6,3.3-1.9,4.5
		c-1.3,1.1-3.4,1.7-6.3,1.7h-22.7V541c0,13.6,4.6,25.1,13.9,34.6c9.3,9.5,20.3,14.2,33,14.2c8.1,0,15.5-1.9,22.2-5.6
		c6.7-3.7,12.5-9.4,17.6-17.1c5-7.7,7.5-16.4,7.5-26.1V438.2H534c-2.9,0-5-0.6-6.3-1.7c-1.3-1.1-1.9-2.6-1.9-4.5
		c0-1.9,0.6-3.3,1.9-4.5c1.3-1.1,3.4-1.7,6.3-1.7h45.4c2.9,0,5,0.6,6.3,1.7c1.3,1.1,1.9,2.6,1.9,4.5c0,1.9-0.6,3.3-1.9,4.5
		c-1.3,1.1-3.4,1.7-6.3,1.7h-10.4V541c0,17.3-5.8,31.8-17.3,43.5c-11.5,11.7-25.4,17.6-41.7,17.6c-10.9,0-20.7-2.4-29.2-7.2
		c-8.5-4.8-15.7-12-21.7-21.8c-6-9.7-8.9-20.4-8.9-32.2V438.2h-10.4c-2.9,0-5-0.6-6.3-1.7c-1.3-1.1-1.9-2.6-1.9-4.5
		c0-1.9,0.7-3.4,2.1-4.7c1.2-1,3.2-1.5,6.2-1.5h45.4C488.2,425.9,490.3,426.4,491.6,427.6z M243.9,586.6c1.3-1.1,3.4-1.7,6.3-1.7
		h9.5l18.4-49.7c-6.3-0.3-12.4-3.2-16.7-8.3c-8.2-9.9-6.9-24.6,3-32.8l41.9-34.9l7.8-21.1h-36.3c-2.9,0-5-0.6-6.3-1.7
		c-1.3-1.1-1.9-2.6-1.9-4.5c0-1.9,0.6-3.3,1.9-4.5c1.3-1.1,3.4-1.7,6.3-1.7h62l1.6,4.2l41.3-34.4l-118.2-98.5
		c-9.9-8.2-11.2-22.9-3-32.8c8.2-9.9,22.9-11.2,32.8-3l139.6,116.4c5.3,4.4,8.4,11,8.4,17.9c0,6.9-3.1,13.5-8.4,17.9l-75.2,62.6
		l41.1,108.8h9.5c2.9,0,5,0.6,6.3,1.7c1.3,1.1,1.9,2.6,1.9,4.5c0,1.8-0.6,3.2-1.9,4.4c-1.3,1.2-3.4,1.8-6.3,1.8h-45.8
		c-3,0-5.2-0.6-6.4-1.8c-1.3-1.2-1.9-2.6-1.9-4.4c0-1.9,0.6-3.3,1.9-4.5c1.3-1.1,3.4-1.7,6.4-1.7h23.4L370,540h-80.9l-16.6,45h23.6
		c2.9,0,5,0.6,6.3,1.7c1.3,1.1,1.9,2.6,1.9,4.5c0,1.8-0.6,3.2-1.9,4.4c-1.3,1.2-3.4,1.8-6.3,1.8h-46c-2.9,0-5-0.6-6.3-1.8
		c-1.3-1.2-1.9-2.6-1.9-4.4C242,589.2,242.6,587.8,243.9,586.6z M222.3,597.3H86.4c-2.9,0-5-0.6-6.3-1.8c-1.3-1.2-1.9-2.6-1.9-4.4
		c0-1.9,0.6-3.3,1.9-4.5c1.3-1.1,3.4-1.7,6.3-1.7h29.3V438.2H86.4c-2.9,0-5-0.6-6.3-1.7c-1.3-1.1-1.9-2.6-1.9-4.5
		c0-1.9,0.6-3.3,1.9-4.5c1.3-1.1,3.4-1.7,6.3-1.7h71c2.9,0,5,0.6,6.3,1.7c1.3,1.1,1.9,2.6,1.9,4.5c0,1.9-0.6,3.3-1.9,4.5
		c-1.3,1.1-3.4,1.7-6.3,1.7h-29.3v146.8h81.7V536c0-2.9,0.6-5,1.8-6.3c1.2-1.3,2.7-1.9,4.5-1.9c1.8,0,3.2,0.6,4.4,1.8
		c1.2,1.2,1.8,3.3,1.8,6.4V597.3z M512,930.9c-154,0-279.3-125.3-279.3-279.3c0-12.8,10.4-23.3,23.3-23.3h512
		c12.9,0,23.3,10.4,23.3,23.3C791.3,805.6,666,930.9,512,930.9z M937.6,597.3h-42.8c-2.9,0-5-0.6-6.3-1.8c-1.3-1.2-1.9-2.6-1.9-4.4
		c0-1.9,0.6-3.3,1.8-4.5c1.2-1.1,3.3-1.7,6.4-1.7h16.4v-70.6h-81.6v70.6h16.6c2.9,0,5,0.6,6.3,1.7c1.3,1.1,1.9,2.6,1.9,4.5
		c0,1.8-0.6,3.2-1.9,4.4c-1.3,1.2-3.4,1.8-6.3,1.8h-42.8c-2.9,0-5-0.6-6.3-1.8c-1.3-1.2-1.9-2.6-1.9-4.4c0-1.9,0.6-3.3,1.9-4.5
		c1.3-1.1,3.4-1.7,6.3-1.7h13.9V438.2h-7.6c-3,0-5.2-0.6-6.4-1.7c-1.3-1.1-1.9-2.6-1.9-4.5c0-1.9,0.6-3.3,1.9-4.5
		c1.3-1.1,3.4-1.7,6.4-1.7h36.5c2.9,0,5,0.6,6.3,1.7c1.3,1.1,1.9,2.6,1.9,4.5c0,1.9-0.6,3.3-1.9,4.5c-1.3,1.1-3.4,1.7-6.3,1.7h-16.6
		V502h81.6v-63.9h-16.4c-2.9,0-5-0.6-6.3-1.7c-1.3-1.1-1.9-2.6-1.9-4.5c0-1.9,0.6-3.3,1.8-4.5c1.2-1.1,3.3-1.7,6.4-1.7h36.5
		c3,0,5.2,0.6,6.4,1.7c1.3,1.1,1.9,2.6,1.9,4.5c0,1.9-0.6,3.3-1.9,4.5c-1.3,1.1-3.4,1.7-6.4,1.7h-7.6v146.8h13.9
		c2.9,0,5,0.6,6.3,1.7c1.3,1.1,1.9,2.6,1.9,4.5c0,1.8-0.6,3.2-1.9,4.4C942.6,596.7,940.5,597.3,937.6,597.3z"/>
	<path d="M728.1,442.1c-4.5-2.3-9.2-4.2-14.1-5.5l30.2,25.2C743.4,453.9,738,447.3,728.1,442.1z"/>
	<polygon points="331.3,438.2 326.8,438.2 324.7,443.9 331.4,438.3 	"/>
	<path d="M638.5,469.8c-5.3,9.1-7.9,19.4-7.9,30.9v22.4c0,20.4,6.2,36.6,18.8,48.6c12.5,12,29.7,18,51.7,18c7.4,0,14.3-0.8,20.7-2.3
		c6.3-1.6,13.8-4.3,22.3-8.2v-45.6h-42.3c-2.9,0-5-0.6-6.3-1.7c-1.3-1.1-1.9-2.6-1.9-4.5c0-1.9,0.6-3.4,1.9-4.5
		c1.3-1.2,3.4-1.8,6.3-1.8l41.2,0.1L655,448.1C649.2,453.4,643.7,460.6,638.5,469.8z"/>
	<polygon points="365.3,527.7 348.8,484.3 296.8,527.7 	"/>
</g>
</svg>
