<?xml version="1.0" encoding="iso-8859-1"?>
<!-- Generator: Adobe Illustrator 18.0.0, SVG Export Plug-In . SVG Version: 6.00 Build 0)  -->
<!DOCTYPE svg PUBLIC "-//W3C//DTD SVG 1.1//EN" "http://www.w3.org/Graphics/SVG/1.1/DTD/svg11.dtd">
<svg version="1.1" id="Capa_1" xmlns="http://www.w3.org/2000/svg" xmlns:xlink="http://www.w3.org/1999/xlink" x="0px" y="0px"
	 viewBox="0 0 44 44" style="enable-background:new 0 0 44 44;" xml:space="preserve">
<g>
	<path d="M22,0C9.869,0,0,9.869,0,22s9.869,22,22,22s22-9.869,22-22S34.131,0,22,0z M26.359,16.232l6-5
		c0.426-0.354,1.056-0.296,1.409,0.128s0.296,1.055-0.128,1.408L28.562,17l5.078,4.232c0.424,0.354,0.481,0.984,0.128,1.408
		C33.57,22.877,33.286,23,32.999,23c-0.226,0-0.452-0.076-0.64-0.232l-6-5C26.132,17.578,26,17.297,26,17
		S26.132,16.422,26.359,16.232z M11.359,12.768c-0.424-0.354-0.481-0.984-0.128-1.408c0.354-0.424,0.982-0.482,1.409-0.128l6,5
		C18.868,16.422,19,16.703,19,17s-0.132,0.578-0.359,0.768l-6,5C12.453,22.924,12.227,23,12.001,23c-0.287,0-0.571-0.123-0.77-0.36
		c-0.354-0.424-0.296-1.055,0.128-1.408L16.437,17L11.359,12.768z M22,40c-6.617,0-12-5.383-12-12c0-0.552,0.447-1,1-1h22
		c0.553,0,1,0.448,1,1C34,34.617,28.617,40,22,40z"/>
</g>
<g>
</g>
<g>
</g>
<g>
</g>
<g>
</g>
<g>
</g>
<g>
</g>
<g>
</g>
<g>
</g>
<g>
</g>
<g>
</g>
<g>
</g>
<g>
</g>
<g>
</g>
<g>
</g>
<g>
</g>
</svg>
