<?xml version="1.0" encoding="utf-8"?>
<!-- Generator: Adobe Illustrator 22.0.1, SVG Export Plug-In . SVG Version: 6.00 Build 0)  -->
<svg version="1.1" id="Layer_1" xmlns="http://www.w3.org/2000/svg" xmlns:xlink="http://www.w3.org/1999/xlink" x="0px" y="0px"
	 viewBox="0 0 1024 1024" style="enable-background:new 0 0 1024 1024;" xml:space="preserve">
<g>
	<path d="M138.1,489.5v-55.7h23.4c9.6,0,16.5-1.9,20.6-5.6s6.2-8.6,6.2-14.6c0-6-2.1-10.8-6.2-14.5c-4.1-3.6-11-5.5-20.6-5.5
		l-86.7-0.2c-9.6,0-16.5,1.9-20.6,5.6s-6.2,8.6-6.2,14.6c0,6,2.1,10.8,6.2,14.6s11,5.6,20.6,5.6H98v55.9c1.8-0.1,3.5-0.2,5.3-0.2
		H138.1z"/>
	<path d="M98,547.6v42.8H74.8c-0.9,0-1.8,0-2.7,0.1v39.9c0.9,0,1.8,0.1,2.7,0.1h189.6v-59.1c-3.2-13.8-15.6-24.2-30.4-24.2h-9.4
		c-0.1,1.7-0.2,3.5-0.2,5.4v37.9h-86.3v-43.3h-34.7C101.6,547.1,99.8,547.3,98,547.6z"/>
	<path d="M359.7,393.6l-25.3,0c-9.6,0-16.5,1.9-20.6,5.6s-6.2,8.6-6.2,14.6c0,6,2.1,10.8,6.2,14.6c2.4,2.1,5.7,3.7,9.9,4.6
		C335.4,423.3,347.5,409.8,359.7,393.6z"/>
	<path d="M455.3,630.5c9.6,0,16.5-1.9,20.6-5.6s6.2-8.5,6.2-14.4c0-6-2.1-10.8-6.2-14.6s-11-5.6-20.6-5.6h-40.4V433.8h40.4
		c9.6,0,16.5-1.9,20.6-5.6s6.2-8.6,6.2-14.6c0-6-2.1-10.8-6.2-14.5c-4.1-3.6-11-5.5-20.6-5.5l-25.9,0
		c-17.5,27.3-35.9,51.9-54.5,70.4v126.3h-40.4c-4.3,0-8.1,0.4-11.3,1.1v37.8c3.2,0.7,7,1.1,11.3,1.1H455.3z"/>
	<path d="M526.3,399.1c-4.1,3.7-6.2,8.6-6.2,14.6c0,6,2.1,10.8,6.2,14.6s11,5.6,20.6,5.6h6.3v156.6h-6.3c-9.5,0-16.3,1.9-20.5,5.6
		c-4.2,3.7-6.3,8.5-6.3,14.4c0,6,2.1,10.8,6.2,14.6s11,5.6,20.6,5.6h60.7c9.6,0,16.5-1.9,20.6-5.6s6.2-8.5,6.2-14.4
		c0-6-2.1-10.8-6.2-14.6s-11-5.6-20.6-5.6h-14.5v-44.3l24.6-20.9c10,4,18.7,9.4,25.9,16.1c7.2,6.7,14.9,17.4,22.9,32.1
		c9.9,18.1,19,37.1,27.3,57h36.3c9.6,0,16.5-1.9,20.5-5.6c4-3.7,6.1-8.5,6.1-14.4c0-6-2.1-10.8-6.2-14.6s-10.9-5.6-20.4-5.6h-10.7
		c-9.1-23.3-19.6-42.8-31.3-58.6c-11.8-15.8-24.4-27.5-37.8-35.2l71.9-62.9c8.7,0,15.1-1.9,19.2-5.7c1-0.9,1.8-1.9,2.6-2.9
		c-19.4,2.2-37.6,5.3-52.9,8.6c-0.9,0.2-1.9,0.4-2.8,0.6c-11.1,1.8-22.9,4.2-35.2,7l-60.1,51.6v-59.4h11.5c-0.1-0.1-0.1-0.1-0.2-0.2
		c-10.1-9-16.3-22-18.4-40l-39.2-0.1C537.2,393.5,530.4,395.4,526.3,399.1z"/>
	<path d="M932.2,474.6c-1-3.8-2.4-7.6-4.5-11.4C928.5,468.2,930,471.9,932.2,474.6z"/>
	<path d="M833.8,590.4v-58.8h35.2c0,10.5,1,17.3,2.9,20.3c4,6.4,9.8,9.6,17.2,9.6c7,0,12.6-3.1,16.8-9.2c2.1-3,3.1-8.9,3.1-17.6
		v-46.1c0-9.6-1.9-16.5-5.6-20.6s-8.5-6.2-14.4-6.2c-7.4,0-13.2,3.2-17.2,9.6c-2,3-2.9,9.7-2.9,20.1h-35.2v-57.8h57.6
		c-33.1-12.8-82.5-14.2-128.4-10.4c1,1.8,2.3,3.4,3.9,4.9c4.1,3.7,11,5.6,20.6,5.6h6.3v156.6h-6.3c-9.5,0-16.3,1.9-20.5,5.6
		c-4.2,3.7-6.3,8.5-6.3,14.4c0,6,2.1,10.8,6.2,14.6s11,5.6,20.6,5.6h162.4c1.5-5.8,2.1-11.5,1.9-17.2c-0.7-17.3-9.2-31.9-15.9-40.8
		v17.9H833.8z"/>
	<path d="M967.2,419.1v-25.3l-28.4,0c5.7,3.7,11,7.7,15.8,12.1C959.3,410.1,963.5,414.5,967.2,419.1z"/>
	<path d="M927.7,463.3c-0.4-2.6-0.6-5.4-0.6-8.6v-20.9h-35.7c9.6,3.7,17.8,8.4,24.2,14.2C921,452.9,924.9,458,927.7,463.3z"/>
	<path d="M553.1,133.8c1.7-4.5,2.1-9.4,1.3-14.3c-3.6-24-2.4-53.3,2.8-62.1c11.3,0.2,42,3.4,60.4,28.9c21.8,30.2,21,84.2-2.6,155.7
		c-23.2,70.3-32.7,119.1-28.9,151.7l21.5,0.1c9.6,0,16.5,1.8,20.6,5.5c4.1,3.6,6.2,8.5,6.2,14.5c0,6-2.1,10.8-6.2,14.6
		s-11,5.6-20.6,5.6h-3c14.1,12.5,32.9,13.1,46.5,8.2c0.7-0.2,1.4-0.3,2.1-0.5l11-9.5c-4.2-3-7-5.8-8.6-8.4c-1.6-2.6-2.3-5.8-2.3-9.6
		c0-6.1,2.1-11.1,6.2-14.8c4.1-3.8,11-5.7,20.6-5.7l40.8,0.2c9.6,0,16.5,1.8,20.6,5.5c4.1,3.6,6.2,8.5,6.2,14.5
		c0,4.5-1.2,8.3-3.6,11.6c6.2-0.7,12.5-1.3,19-1.9c-1.5-2.8-2.3-6-2.3-9.7c0-6,2.1-10.8,6.2-14.6s11-5.6,20.6-5.6l151.3,0.2
		c-35-22.5-87.3-32.3-156.1-29c-56.3,2.6-103.4,13.1-105.4,13.5H677c-10.7,1.9-22.1,4.3-33.6,6.9c-0.9-13.7,1.5-47.8,26.8-124.4
		c30-91.2,28.3-161-5.6-207.7C629.1,3.9,572.3,0,555.6,0c-16.1,0-30.8,6.6-41.3,18.8c-23.8,27.6-21,78.6-18,102.1
		c-23.1,61.8-80,196.9-136.6,272.6l69.6,0.1C496.5,288.7,550,142.2,553.1,133.8z"/>
	<path d="M979.8,696.2c21-26.8,31-55.5,29.8-85c-1.3-32.5-15.8-58-27.8-73.7c12.5-31.2,18.1-78.4-14.6-118.4v35.6
		c0,9.5-1.8,16.3-5.5,20.4c-3.6,4.1-8.5,6.2-14.5,6.2c-6,0-10.8-2-14.6-6.1c-0.2-0.2-0.3-0.4-0.5-0.6c6.5,24.8-7.3,48.2-9.4,51.5
		c-7.9,12-5.6,27.6,5.1,37.3c0.1,0.1,3.6,3.4,7.9,9.1v-3.8c0-9.6,1.9-16.5,5.6-20.6s8.6-6.2,14.6-6.2c5.9,0,10.6,2.1,14.4,6.2
		s5.6,11,5.6,20.6v61.7h-26.1c-3.5,13.5-11.8,27.1-24.9,40.6c-9,9.4-10.7,23.8-3.9,34.9c0,0.2,8.8,15.2,9.9,35.8
		c1.5,28.1-12,52.9-40.3,74.1c-10.1,7.7-14.1,21-9.9,33c0,0.2,9.2,28.5-5.8,55.2c-14.3,25.7-46.3,44.1-94.6,54.4
		c-38.8,8.4-91.4,9.9-156.1,4.7c-0.9,0-1.9,0-3,0c-137.7,3-276.9-15-278.4-15.2h-0.2l-21.6-2.6c1.3-6,1.9-12.4,1.9-18.8V629.3
		c-3.9-0.9-7.1-2.4-9.3-4.4c-4.1-3.7-6.2-8.6-6.2-14.6c0-5.9,2.1-10.6,6.2-14.4c2.3-2,5.4-3.5,9.3-4.4v-13.2
		c0-9.2-1.5-18.2-4.1-26.6c3.9-14.3,14.6-46.3,39.8-73.4c5.3-4.2,10.7-9,16-14.3v-30.3h-40.4c-4.1,0-7.6-0.3-10.7-1
		c-0.6,0.5-1.2,1-1.9,1.5c-1.3,0.9-2.4,1.9-3.4,3c-19.7,20.8-33,43.3-42,63c-12.6-6.9-27-10.7-42.4-10.7h-95.9v57.6h86.6
		c0.6-6.8,2.4-11.9,5.3-15.2c3.7-4.1,8.6-6.2,14.6-6.2c5.9,0,10.6,2.1,14.4,6.2s5.6,11,5.6,20.6v18.8c0.5,2.3,0.8,4.6,0.8,7.1v348
		c0,17.3-14.1,31.3-31.3,31.3H103.4v0.2c-17.3,0-31.3-14.1-31.3-31.3V630.4c-8.2-0.3-14.2-2.2-17.9-5.5c-4.1-3.7-6.2-8.6-6.2-14.6
		c0-5.9,2.1-10.6,6.2-14.4c3.7-3.4,9.7-5.2,17.9-5.5v-12.1c0-15.5,11.3-28.3,25.9-30.8v-57.9c-46.8,2.8-83.7,41.7-83.7,88.9v348
		c0,49.3,40,89.1,89.1,89.1H234c19.1,0,36.8-6,51.4-16.3l50.3,6c7.7,1.1,144.8,18.4,285.4,15.6c25.5,1.9,49.5,3,71.7,3
		c38.3,0,71.7-3,99.6-9c65.5-13.9,110.3-41.8,133-82.7c17.3-31.3,17.3-62.3,14.6-82c42.6-38.5,50.1-81.2,48.6-111.1
		C987.8,721.9,983.9,707.1,979.8,696.2z"/>
</g>
</svg>
