<?xml version="1.0" encoding="iso-8859-1"?>
<!-- Generator: Adobe Illustrator 18.1.1, SVG Export Plug-In . SVG Version: 6.00 Build 0)  -->
<svg version="1.1" id="Capa_1" xmlns="http://www.w3.org/2000/svg" xmlns:xlink="http://www.w3.org/1999/xlink" x="0px" y="0px"
	 viewBox="0 0 63.805 63.805" style="enable-background:new 0 0 63.805 63.805;" xml:space="preserve">
<g>
	<g>
		<circle style="fill:#010002;" cx="31.686" cy="9.089" r="9.089"/>
		<path style="fill:#010002;" d="M58.496,48.961c-4.383-10.289-19.918-26.166-20.22-26.362c-1.563-1.687-3.848-2.515-6.156-2.549
			v-0.007c-0.001,0-0.434,0-0.435,0v0.007c-2.308,0.035-4.594,0.863-6.156,2.549C25.227,22.795,9.691,38.672,5.308,48.961
			c-1.071,2.516-0.068,4.885,1.611,6.282c-0.416,1.38-0.426,2.921,0.041,4.408c0.803,2.562,2.881,4.154,5.418,4.154
			c4.854,0,34.166,0,39.047,0c2.537,0,4.614-1.593,5.417-4.154c0.468-1.487,0.458-3.028,0.041-4.408
			C58.565,53.846,59.568,51.477,58.496,48.961z M17.23,47.34c1.864-3.046,3.989-5.831,6.299-8.511c0,2.764,0.08,9.679,0.219,10.307
			C23.279,49.015,18.925,47.918,17.23,47.34z M40.058,49.136c0.138-0.628,0.218-7.543,0.218-10.307
			c2.312,2.68,4.437,5.465,6.3,8.511C44.882,47.918,40.528,49.015,40.058,49.136z"/>
	</g>
</g>
<g>
</g>
<g>
</g>
<g>
</g>
<g>
</g>
<g>
</g>
<g>
</g>
<g>
</g>
<g>
</g>
<g>
</g>
<g>
</g>
<g>
</g>
<g>
</g>
<g>
</g>
<g>
</g>
<g>
</g>
</svg>
