<?xml version="1.0" encoding="utf-8"?>
<!-- Generator: Adobe Illustrator 22.0.1, SVG Export Plug-In . SVG Version: 6.00 Build 0)  -->
<svg version="1.1" id="Layer_1" xmlns="http://www.w3.org/2000/svg" xmlns:xlink="http://www.w3.org/1999/xlink" x="0px" y="0px"
	 viewBox="0 0 1024 1024" style="enable-background:new 0 0 1024 1024;" xml:space="preserve">
<g>
	<path d="M659.3,495.6l35.3-35.3c-2.1-3-4.4-5.9-6.9-8.6c-14.7-15.9-31.4-23.9-50.2-23.9c-18.6,0-35.3,8-50,24
		c-14.7,16-22.1,36.1-22.1,60.4s7.4,44.3,22.1,60.3c14.7,16,31.4,23.9,50,23.9c18.8,0,35.5-7.9,50.2-23.8c2.6-2.8,4.9-5.7,7-8.7
		l-35.4-35.4C649.9,519,649.9,505,659.3,495.6z"/>
	<polygon points="302.9,433.8 307.2,438.1 307.2,433.8 	"/>
	<polygon points="347.3,469.3 347.3,478.2 362.9,493.8 	"/>
	<path d="M723.3,592.4c-2.3,2.9-4.8,5.7-7.4,8.5c-22.6,23.6-48.7,35.4-78.4,35.4c-26.7,0-50.8-9.8-72.3-29.5
		c-26.6-24.3-39.8-55.9-39.8-94.7c0-38.8,13.3-70.4,39.8-94.9c21.5-19.7,45.6-29.5,72.3-29.5c29.7,0,55.8,11.8,78.4,35.4
		c2.6,2.7,5.1,5.6,7.4,8.5L1010,144.9c9.4-9.4,14-23.4,14-32.7s-4.7-23.4-14-32.7L944.5,14c-9.4-9.4-23.4-14-32.7-14
		c-14,0-23.4,4.7-32.7,14L528.4,364.7c-9.4,9.4-23.4,9.4-32.7,0L144.9,14c-9.4-9.4-23.4-14-32.7-14c-9.4,0-23.4,4.7-32.7,14L14,79.5
		c-9.4,9.4-14,23.4-14,32.7c0,9.4,4.7,23.4,14,32.7l261.4,261.4c1-2.8,2.6-5.2,4.9-7.3c4.1-3.7,11-5.6,20.6-5.6l46.3,0.2
		l102.3,160.5V433.8h-14.5c-9.6,0-16.5-1.9-20.6-5.6s-6.2-8.6-6.2-14.6c0-6,2.1-10.8,6.2-14.6s11-5.6,20.6-5.6l52.5,0.2
		c9.6,0,16.5,1.8,20.6,5.5c4.1,3.6,6.2,8.5,6.2,14.5c0,5.9-2,10.7-6.1,14.5c-4,3.8-10.2,5.7-18.6,5.7v196.7h-39.6l-79.2-124
		c1.9,7.5-0.1,15.7-6.3,21.9l-17.5,17.5v44.6h14.5c9.6,0,16.5,1.9,20.6,5.6s6.2,8.6,6.2,14.6c0,5.9-2.1,10.6-6.2,14.4
		s-11,5.6-20.6,5.6h-52.5c-9.6,0-16.5-1.9-20.6-5.6c-4-3.6-6.1-8.4-6.1-14.2L14,879.1c-9.4,9.4-14,23.4-14,32.7s4.7,23.4,14,32.7
		l65.5,65.5c9.4,9.4,23.4,14,32.7,14s23.4-4.7,32.7-14l350.7-350.7c9.4-9.4,23.4-9.4,32.7,0L879.1,1010c9.4,9.4,23.4,14,32.7,14
		s23.4-4.7,32.7-14l65.5-65.5c9.4-9.4,14-23.4,14-32.7s-4.7-23.4-14-32.7L723.3,592.4z"/>
	<path d="M307.2,585.9l-4.8,4.8c1.5-0.2,3.1-0.2,4.8-0.2V585.9z"/>
	<path d="M274.2,413.7c0,6,2.1,10.8,6.2,14.6s11,5.6,20.6,5.6h1.9l-27.4-27.4C274.6,408.6,274.2,411,274.2,413.7z"/>
	<path d="M288.5,596.1c-4,3.8-6.1,8.5-6.1,14.3c0,0.1,0,0.2,0,0.3l20-20C296.4,591.3,291.7,593.1,288.5,596.1z"/>
	<polygon points="347.3,478.2 307.2,438.1 307.2,585.9 347.3,545.8 	"/>
	<path d="M362.9,493.8l8.1,12.7c-1-3.9-3.1-7.7-6.3-10.9L362.9,493.8z"/>
	<path d="M709.8,512.1c0,20.1-5,37.3-15.1,51.7l28.6,28.6c17.6-22.1,26.5-48.9,26.5-80.3c0-31.5-8.8-58.4-26.5-80.5l-28.7,28.7
		C704.7,474.7,709.8,492,709.8,512.1z"/>
</g>
</svg>
