<svg xmlns="http://www.w3.org/2000/svg" xmlns:xlink="http://www.w3.org/1999/xlink" version="1.1" x="0px" y="0px" viewBox="0 0 81.157 282.72875" style="enable-background:new 0 0 81.157 226.183;" xml:space="preserve"><g><path d="M61.692,105.72h-0.004h-0.005c-4.967-0.023-10.388-1.182-16.782-3.572c-1.347-0.503-2.721-1.042-4.159-1.657   c-0.056-0.024-0.113-0.051-0.169-0.075c-0.053,0.022-0.107,0.049-0.159,0.071c-1.438,0.615-2.81,1.153-4.155,1.657   c-6.397,2.393-11.821,3.552-16.792,3.574h-0.004h-0.005c-1.877,0-3.659-0.197-5.355-0.548c-0.191-0.039-0.378-0.087-0.567-0.132   v3.842v18.564v86.374c0,6.83,5.535,12.363,12.363,12.363c6.828,0,12.363-5.533,12.363-12.363v-78.647h4.637v78.647   c0,6.83,5.535,12.363,12.363,12.363s12.363-5.533,12.363-12.363v-86.374v-18.564v-3.842c-0.189,0.044-0.376,0.092-0.567,0.132   C65.362,105.523,63.576,105.72,61.692,105.72z"/><ellipse transform="matrix(0.2268 -0.9739 0.9739 0.2268 9.4644 56.9212)" cx="40.581" cy="22.5" rx="22.495" ry="22.495"/><path d="M21.366,68.947c-2.535-1.289-5.506-1.101-7.83,0.339c-0.947,0.586-1.79,1.375-2.447,2.362   c-2.446,3.68-1.448,8.646,2.231,11.092c0.071,0.047,0.144,0.095,0.216,0.142c0.589,0.39,1.187,0.781,1.789,1.172   c0.229,0.148,0.458,0.296,0.686,0.444c1.13,0.728,2.245,1.438,3.287,2.094c0.024-0.007,0.051-0.015,0.075-0.021   c0.403-0.112,0.827-0.232,1.264-0.359c0.131-0.038,0.266-0.077,0.399-0.116c0.385-0.113,0.779-0.23,1.182-0.352   c0.114-0.035,0.227-0.068,0.343-0.103c0.509-0.155,1.027-0.316,1.552-0.483c0.102-0.032,0.206-0.066,0.309-0.099   c0.426-0.136,0.854-0.275,1.281-0.416c0.159-0.053,0.318-0.105,0.478-0.159c0.435-0.146,0.868-0.293,1.298-0.442   c0.099-0.034,0.199-0.068,0.297-0.103c0.512-0.179,1.015-0.36,1.508-0.541c0.133-0.049,0.263-0.098,0.394-0.147   c0.374-0.14,0.739-0.28,1.095-0.419c0.139-0.054,0.277-0.108,0.412-0.163c0.46-0.184,0.906-0.366,1.321-0.546   c0.934-0.401,1.895-0.836,2.881-1.302c0.029-0.014,0.061-0.03,0.09-0.044c0.966-0.456,1.959-0.945,2.974-1.461   c-4.698-2.568-10.302-5.927-16.268-9.898C21.916,69.241,21.644,69.087,21.366,68.947z"/><path d="M8.673,101.002c0.775,0.463,1.585,0.874,2.429,1.211c0.79,0.318,1.606,0.565,2.434,0.778   c0.443,0.114,0.89,0.22,1.343,0.305c1.484,0.28,3.013,0.422,4.579,0.422c4.661-0.021,9.701-1.104,15.507-3.226   c1.01-0.369,2.045-0.771,3.105-1.204c0.517-0.211,1.024-0.411,1.555-0.638c0.309-0.133,0.633-0.286,0.945-0.424   c5.749-2.541,12.231-6.004,19.645-10.593c1.595-0.987,3.244-2.041,4.927-3.133c0.822-0.534,1.641-1.063,2.485-1.623   c0.072-0.048,0.141-0.091,0.213-0.139c1.434-0.953,2.453-2.291,3.027-3.784c0.9-2.338,0.697-5.061-0.796-7.306   c-0.656-0.987-1.498-1.774-2.444-2.361c-2.325-1.441-5.297-1.629-7.833-0.34c-0.276,0.141-0.548,0.293-0.813,0.469   c-10.556,7.019-19.073,11.699-25.68,14.539c-6.595,2.859-11.284,3.789-13.843,3.762c-1.291,0-2.018-0.201-2.357-0.34   c-0.134-0.068-0.219-0.11-0.28-0.144c0.005-0.001,0.011-0.002,0.016-0.003c-0.046-0.03-0.097-0.059-0.143-0.088   c-0.988-0.623-2.086-1.251-3.156-1.901c-0.451-0.274-0.896-0.552-1.324-0.836c-4.591-3.053-5.84-9.273-2.79-13.863   c1.036-1.559,2.472-2.752,4.114-3.516c1.304-0.606,2.734-0.95,4.221-0.95c1.746,0,3.436,0.479,4.945,1.344   c0.194,0.111,0.397,0.206,0.585,0.331c6.162,4.101,12.204,7.688,17.335,10.431c5.195-2.766,10.961-6.248,17.25-10.432   c0.187-0.124,0.388-0.217,0.581-0.328c1.511-0.866,3.201-1.345,4.948-1.345c1.488,0,2.92,0.344,4.225,0.952   c1.641,0.764,3.074,1.955,4.111,3.513c1.232,1.854,1.752,3.972,1.644,6.042c-0.159,3.055-1.698,6.003-4.435,7.823   c-0.448,0.298-0.877,0.572-1.32,0.863c-9.223,6.062-17.299,10.679-24.542,14.021c1.062,0.433,2.099,0.836,3.11,1.206   c5.803,2.118,10.841,3.201,15.499,3.224c1.57,0,3.103-0.143,4.589-0.425c0.453-0.086,0.9-0.19,1.344-0.305   c0.824-0.213,1.637-0.459,2.424-0.777c3.922-1.534,7.107-4.604,8.809-7.992c1.746-3.394,2.29-6.919,2.299-10.267   c-0.039-4.413-0.945-8.708-2.359-12.715c-0.912-2.586-2.031-5.056-3.281-7.351c-1.631-2.919-3.463-5.536-5.731-7.77   c-1.146-1.112-2.408-2.144-3.989-3.012c-0.847-0.461-1.817-0.883-2.907-1.179c-0.92-0.387-1.93-0.601-2.99-0.601H21.263   c-1.057,0-2.063,0.213-2.98,0.597c-1.096,0.297-2.07,0.72-2.922,1.183c-2.742,1.534-4.621,3.497-6.367,5.683   c-2.568,3.288-4.679,7.211-6.295,11.494C1.108,74.569,0.016,79.177,0,83.952c0.007,4.418,0.977,9.346,4.463,13.503   C5.624,98.834,7.064,100.04,8.673,101.002z"/></g><text x="0" y="241.183" fill="#000000" font-size="5px" font-weight="bold" font-family="'Helvetica Neue', Helvetica, Arial-Unicode, Arial, Sans-serif">Created by Gan Khoon Lay</text><text x="0" y="246.183" fill="#000000" font-size="5px" font-weight="bold" font-family="'Helvetica Neue', Helvetica, Arial-Unicode, Arial, Sans-serif">from the Noun Project</text></svg>