<?xml version="1.0" encoding="utf-8"?>
<!-- Generator: Adobe Illustrator 22.0.1, SVG Export Plug-In . SVG Version: 6.00 Build 0)  -->
<svg version="1.1"
	 id="Layer_1" xmlns:cc="http://creativecommons.org/ns#" xmlns:dc="http://purl.org/dc/elements/1.1/" xmlns:inkscape="http://www.inkscape.org/namespaces/inkscape" xmlns:rdf="http://www.w3.org/1999/02/22-rdf-syntax-ns#" xmlns:sodipodi="http://sodipodi.sourceforge.net/DTD/sodipodi-0.dtd" xmlns:svg="http://www.w3.org/2000/svg"
	 xmlns="http://www.w3.org/2000/svg" xmlns:xlink="http://www.w3.org/1999/xlink" x="0px" y="0px" viewBox="0 0 61.6 125"
	 style="enable-background:new 0 0 61.6 125;" xml:space="preserve">
<g transform="translate(0,-952.36216)">
	<path d="M30.9,952.4c-5.6,0-10.2,4.6-10.2,10.2c0,5.7,4.6,10.2,10.2,10.2c5.7,0,10.2-4.5,10.2-10.2
		C41.1,956.9,36.5,952.4,30.9,952.4z M18.9,972.1c-1.6,0-3,1-3.6,2.5l-4.1,9.9l-3.7-7.9c-0.9-2-3.3-2.9-5.3-1.9s-2.9,3.3-1.9,5.3
		c0,0,0,0,0,0l7.6,16c0.9,2,3.3,2.9,5.3,1.9c0.9-0.4,1.6-1.2,2-2.1l2-4.8v33.4v47c0,3.2,2.5,5.7,5.6,5.8c3.2,0,5.7-2.5,5.8-5.6
		c0-0.1,0-0.1,0-0.2v-47h4.8v47c0,3.2,2.5,5.7,5.6,5.8c3.2,0,5.7-2.5,5.8-5.6c0-0.1,0-0.1,0-0.2v-50.4v-30l2,4.8
		c0.8,2,3.2,3,5.2,2.2c0.9-0.4,1.7-1.1,2.1-2l7.6-16c0.9-2,0.1-4.4-1.9-5.3c-2-0.9-4.4-0.1-5.3,1.9l-3.7,7.9l-4.1-9.9
		c-0.6-1.5-2.1-2.5-3.7-2.5c-1.9,0-3,0.4-4.1,1.1c-2.2,1.6-4.9,2.5-7.8,2.5c-2.7,0-5.2-0.8-7.3-2.2l0,0
		C22.1,972.7,21.1,972.1,18.9,972.1L18.9,972.1L18.9,972.1L18.9,972.1z"/>
</g>
</svg>
