<?xml version="1.0" encoding="utf-8"?>
<!-- Generator: Adobe Illustrator 22.0.1, SVG Export Plug-In . SVG Version: 6.00 Build 0)  -->
<svg version="1.1" id="Layer_1" xmlns="http://www.w3.org/2000/svg" xmlns:xlink="http://www.w3.org/1999/xlink" x="0px" y="0px"
	 viewBox="0 0 81.2 225.9" style="enable-background:new 0 0 81.2 225.9;" xml:space="preserve">
<g>
	<path d="M61.7,105.7L61.7,105.7L61.7,105.7c-5,0-10.4-1.2-16.8-3.6c-1.3-0.5-2.7-1-4.2-1.7c-0.1,0-0.1-0.1-0.2-0.1
		c-0.1,0-0.1,0-0.2,0.1c-1.4,0.6-2.8,1.2-4.2,1.7c-6.4,2.4-11.8,3.6-16.8,3.6h0h0c-1.9,0-3.7-0.2-5.4-0.5c-0.2,0-0.4-0.1-0.6-0.1
		v3.8v18.6v86.4c0,6.8,5.5,12.4,12.4,12.4s12.4-5.5,12.4-12.4v-78.6h4.6v78.6c0,6.8,5.5,12.4,12.4,12.4s12.4-5.5,12.4-12.4v-86.4
		v-18.6V105c-0.2,0-0.4,0.1-0.6,0.1C65.4,105.5,63.6,105.7,61.7,105.7z"/>
	<ellipse cx="40.6" cy="22.5" rx="22.5" ry="22.5"/>
	<path d="M21.4,68.9c-2.5-1.3-5.5-1.1-7.8,0.3c-0.9,0.6-1.8,1.4-2.4,2.4c-2.4,3.7-1.4,8.6,2.2,11.1c0.1,0,0.1,0.1,0.2,0.1
		c0.6,0.4,1.2,0.8,1.8,1.2c0.2,0.1,0.5,0.3,0.7,0.4c1.1,0.7,2.2,1.4,3.3,2.1c0,0,0.1,0,0.1,0c0.4-0.1,0.8-0.2,1.3-0.4
		c0.1,0,0.3-0.1,0.4-0.1c0.4-0.1,0.8-0.2,1.2-0.4c0.1,0,0.2-0.1,0.3-0.1c0.5-0.2,1-0.3,1.6-0.5c0.1,0,0.2-0.1,0.3-0.1
		c0.4-0.1,0.9-0.3,1.3-0.4c0.2-0.1,0.3-0.1,0.5-0.2c0.4-0.1,0.9-0.3,1.3-0.4c0.1,0,0.2-0.1,0.3-0.1c0.5-0.2,1-0.4,1.5-0.5
		c0.1,0,0.3-0.1,0.4-0.1c0.4-0.1,0.7-0.3,1.1-0.4c0.1-0.1,0.3-0.1,0.4-0.2c0.5-0.2,0.9-0.4,1.3-0.5c0.9-0.4,1.9-0.8,2.9-1.3
		c0,0,0.1,0,0.1,0c1-0.5,2-0.9,3-1.5c-4.7-2.6-10.3-5.9-16.3-9.9C21.9,69.2,21.6,69.1,21.4,68.9z"/>
	<path d="M8.7,101c0.8,0.5,1.6,0.9,2.4,1.2c0.8,0.3,1.6,0.6,2.4,0.8c0.4,0.1,0.9,0.2,1.3,0.3c1.5,0.3,3,0.4,4.6,0.4
		c4.7,0,9.7-1.1,15.5-3.2c1-0.4,2-0.8,3.1-1.2c0.5-0.2,1-0.4,1.6-0.6c0.3-0.1,0.6-0.3,0.9-0.4c5.7-2.5,12.2-6,19.6-10.6
		c1.6-1,3.2-2,4.9-3.1c0.8-0.5,1.6-1.1,2.5-1.6c0.1,0,0.1-0.1,0.2-0.1c1.4-1,2.5-2.3,3-3.8c0.9-2.3,0.7-5.1-0.8-7.3
		c-0.7-1-1.5-1.8-2.4-2.4c-2.3-1.4-5.3-1.6-7.8-0.3c-0.3,0.1-0.5,0.3-0.8,0.5c-10.6,7-19.1,11.7-25.7,14.5
		c-6.6,2.9-11.3,3.8-13.8,3.8c-1.3,0-2-0.2-2.4-0.3c-0.1-0.1-0.2-0.1-0.3-0.1c0,0,0,0,0,0c0,0-0.1-0.1-0.1-0.1
		c-1-0.6-2.1-1.3-3.2-1.9c-0.5-0.3-0.9-0.6-1.3-0.8c-4.6-3.1-5.8-9.3-2.8-13.9c1-1.6,2.5-2.8,4.1-3.5c1.3-0.6,2.7-0.9,4.2-0.9
		c1.7,0,3.4,0.5,4.9,1.3c0.2,0.1,0.4,0.2,0.6,0.3c6.2,4.1,12.2,7.7,17.3,10.4c5.2-2.8,11-6.2,17.3-10.4c0.2-0.1,0.4-0.2,0.6-0.3
		c1.5-0.9,3.2-1.3,4.9-1.3c1.5,0,2.9,0.3,4.2,1c1.6,0.8,3.1,2,4.1,3.5c1.2,1.9,1.8,4,1.6,6c-0.2,3.1-1.7,6-4.4,7.8
		c-0.4,0.3-0.9,0.6-1.3,0.9c-9.2,6.1-17.3,10.7-24.5,14c1.1,0.4,2.1,0.8,3.1,1.2c5.8,2.1,10.8,3.2,15.5,3.2c1.6,0,3.1-0.1,4.6-0.4
		c0.5-0.1,0.9-0.2,1.3-0.3c0.8-0.2,1.6-0.5,2.4-0.8c3.9-1.5,7.1-4.6,8.8-8c1.7-3.4,2.3-6.9,2.3-10.3c0-4.4-0.9-8.7-2.4-12.7
		c-0.9-2.6-2-5.1-3.3-7.4c-1.6-2.9-3.5-5.5-5.7-7.8c-1.1-1.1-2.4-2.1-4-3c-0.8-0.5-1.8-0.9-2.9-1.2c-0.9-0.4-1.9-0.6-3-0.6H21.3
		c-1.1,0-2.1,0.2-3,0.6c-1.1,0.3-2.1,0.7-2.9,1.2c-2.7,1.5-4.6,3.5-6.4,5.7C6.4,62.1,4.3,66,2.7,70.3C1.1,74.6,0,79.2,0,84
		c0,4.4,1,9.3,4.5,13.5C5.6,98.8,7.1,100,8.7,101z"/>
</g>
</svg>
