<?xml version="1.0" encoding="utf-8"?>
<!-- Generator: Adobe Illustrator 22.0.1, SVG Export Plug-In . SVG Version: 6.00 Build 0)  -->
<svg version="1.1" id="Layer_1" xmlns="http://www.w3.org/2000/svg" xmlns:xlink="http://www.w3.org/1999/xlink" x="0px" y="0px"
	 viewBox="0 0 1024 1024" style="enable-background:new 0 0 1024 1024;" xml:space="preserve">
<g>
	<path d="M168.7,570.8H150v-30.9h28.4c12.1,0,21.8-1.4,29.2-4.3c7.4-2.9,14.6-7.2,21.7-12.9c7.1-5.7,12.1-11.5,15.2-17.4
		c4-7.8,6-16.1,6-24.9c0-15.9-5.9-29.4-17.8-40.5c-11.9-11.1-28-16.6-48.3-16.6l-26.8-0.1l-62.4,15.6c0.1,4.2,1.7,7.7,4.6,10.3
		c3.1,2.8,8.2,4.2,15.5,4.2h4.7v117.5h-4.7c-7.1,0-12.3,1.4-15.4,4.2c-3.1,2.8-4.7,6.4-4.7,10.8c0,4.5,1.5,8.1,4.6,10.9
		s8.2,4.2,15.5,4.2h31.2C151.4,589.2,159.1,578.9,168.7,570.8z M140.1,472c0-7.3,4-13.7,9.9-17.2v-1.4h3c2.2-0.8,4.6-1.3,7.1-1.3
		s4.9,0.5,7.1,1.3h17.3c11.5,0,20.4,2.6,26.6,7.9c6.2,5.3,9.3,11.4,9.3,18.5c0,8.3-3.8,15.4-11.5,21.3c-7.7,5.9-18,8.9-31.1,8.9H150
		v-20.7C144.1,485.7,140.1,479.3,140.1,472z"/>
	<path d="M358.7,604.4c-14.6-2.6-29.4-4.9-44.1-6.7c10.3,5,21.3,7.5,32.9,7.5C351.3,605.2,355,605,358.7,604.4z"/>
	<path d="M374.4,566.7c8.6,1.6,17.2,3.4,25.7,5.3c0-7.5,0-23.1,0-44.2c-2.3,11.4-7.3,21.2-15,29.5
		C381.7,561,378.1,564.1,374.4,566.7z"/>
	<path d="M293.4,512.1c0-18.2,5.5-33.3,16.6-45.3c11-12,23.5-18,37.5-18c14.1,0,26.6,6,37.6,17.9c7.7,8.3,12.7,18.2,15,29.6
		c0-17.2,0-36.4,0-56.9c-15.5-13.8-33-20.7-52.7-20.7c-20,0-38.1,7.4-54.2,22.1c-19.9,18.4-29.9,42.1-29.9,71.2
		c0,15.4,2.8,29.2,8.3,41.6c12.7,0.8,25.3,1.9,37.9,3.3C298.8,545,293.4,530.1,293.4,512.1z"/>
	<path d="M588.2,596.7c3.1-2.8,4.6-6.4,4.6-10.8c0-4.5-1.5-8.1-4.6-10.9s-8.2-4.2-15.5-4.2h-30.3v-63.5
		c-13.8-14.4-22.3-33.9-22.3-55.3v-28.8l-38-0.1c-7.2,0-12.4,1.4-15.5,4.2s-4.6,6.4-4.6,10.9c0,4.5,1.5,8.1,4.6,10.9
		s8.2,4.2,15.5,4.2h30.3v117.5h-30.3c-7.2,0-12.4,1.4-15.5,4.2s-4.6,6.4-4.6,10.8c0,1,0.1,1.9,0.2,2.9c12.3,3.8,24.5,7.9,36.5,12.2
		h74C580,600.8,585.1,599.5,588.2,596.7z"/>
	<path d="M560.2,453.3h12.6c7.2,0,12.4-1.4,15.5-4.2s4.6-6.4,4.6-10.9c0-4.5-1.5-8.1-4.6-10.8c-3.1-2.7-8.2-4.1-15.5-4.1l-12.6,0
		V452C560.1,452.4,560.1,452.9,560.2,453.3z"/>
	<path d="M660.1,504.8c-5.8,6.6-12.6,12.2-20.3,16.6v49.4c-6.3,0-11,1.4-14.1,4.2c-3,2.8-4.5,6.4-4.5,10.7c0,4.5,1.5,8.1,4.6,10.9
		s8.2,4.2,15.5,4.2h39.4c7.2,0,12.4-1.4,15.5-4.2s4.6-6.4,4.6-10.8c0-4.5-1.5-8.1-4.6-10.9s-8.2-4.2-15.5-4.2h-10.8v-56.6
		C666.4,511.3,663.1,508.2,660.1,504.8z"/>
	<path d="M720.3,427.3c-3.1,2.8-4.6,6.4-4.6,10.9c0,4.5,1.5,8.1,4.6,10.9s8.2,4.2,15.5,4.2h10.8v28.6c8.3-7.3,13.5-18,13.5-29.9
		c0-5,0-15.4,0-28.8l-24.3-0.1C728.6,423.2,723.4,424.5,720.3,427.3z"/>
	<path d="M713.3,491.4l-33.2-52V452C680.1,471.7,694.5,488.1,713.3,491.4z"/>
	<path d="M746.6,527.5v16.2l-8.7-13.7c-5.7,1.3-11.7,2-17.8,2c-6.3,0-12.5-0.7-18.4-2.1l45.3,71h29.7v-60
		c-5.2-6.7-9.3-14.2-12.2-22.4C759.1,522.2,753,525.2,746.6,527.5z"/>
	<path d="M619.7,427.3c-3.1,2.8-4.6,6.4-4.6,10.9c0,4.5,1.5,8.1,4.6,10.9s8.2,4.2,15.5,4.2h4.7v3.3c0.2-1.5,0.3-3.1,0.3-4.7v-28.8
		l-5,0C627.9,423.2,622.8,424.5,619.7,427.3z"/>
	<path d="M920.1,423.3c0,9.7,0,19.8,0,30.1H935v28.4c0,7.2,1.4,12.4,4.2,15.5s6.4,4.6,10.8,4.6c4.5,0,8.1-1.5,10.9-4.6
		s4.2-8.2,4.2-15.5v-58.4L920.1,423.3z"/>
	<path d="M853.8,570.8c-3.8,0.7-7.6,1-11.5,1.1c-2.4,0.7-4.4,1.7-5.8,3c-3.1,2.8-4.6,6.4-4.6,10.8c0,4.5,1.5,8.1,4.6,10.9
		s8.2,4.2,15.5,4.2h28.2v-39.6c-2.6,1.5-5.3,2.9-8.1,4.1v5.5H853.8z"/>
	<path d="M922.3,600.8c7.2,0,12.4-1.4,15.5-4.2s4.6-6.4,4.6-10.8c0-4.5-1.5-8.1-4.6-10.9s-8.2-4.2-15.5-4.2h-2.1c0,10.6,0,20.7,0,30
		H922.3z"/>
	<path d="M809.5,481.8c0,7.2,1.4,12.4,4.2,15.5s6.4,4.6,10.8,4.6c4.5,0,8.1-1.5,10.9-4.6s4.2-8.2,4.2-15.5v-28.4H872v62.8
		c5.1-6.7,8.1-15.1,8.1-24.1c0-14,0-40,0-68.8l-70.7-0.1V481.8z"/>
	<path d="M160.1,492c11,0,20-9,20-20c0-8.5-5.4-15.8-12.9-18.7H153c-1,0.4-2,0.9-3,1.4v34.4C153,491,156.4,492,160.1,492z"/>
	<circle cx="80.1" cy="192" r="20"/>
	<path d="M880.1,662.6c0,47.5-26.4,90.3-68.9,111.5c-0.3,0.2-21.3,10.4-54.3,20.2c2.1-7.1,3.2-14.6,3.2-22.2
		c0-32.2-19.2-61.1-48.8-73.7c-10.2-4.3-21.9,0.5-26.2,10.6s0.5,21.9,10.6,26.2c14.8,6.3,24.4,20.8,24.4,36.9
		c0,14.8-8.3,28.4-21.2,35.3c-20,3.1-39.8,4.7-58.8,4.7c-76.9,0-124-18.3-167.6-52.1c-10.4-8.1-20.9-17.3-31-27.3
		c-25.4-25.2-56.8-41.9-90.7-48.4C308,676.1,264,672,220.1,672c-22.1,0-40-17.9-40-40s17.9-40,40-40c31.6,0,63.1,1.9,94.4,5.8
		c-7.4-3.6-14.5-8.5-21.3-14.6c-9.4-8.6-16.6-18.4-21.5-29.5c-17.2-1.1-34.4-1.6-51.6-1.6c-19.6,0-37.5,7.1-51.5,18.8h11.7
		c7.2,0,12.4,1.4,15.5,4.2s4.6,6.4,4.6,10.9c0,4.4-1.5,8-4.6,10.8s-8.2,4.2-15.5,4.2h-33.9c-4.1,9.6-6.3,20.1-6.3,31.2
		c0,44.1,35.9,80,80,80c41.4,0,82.8,3.9,123.2,11.6c26.1,5,50.3,17.9,70.1,37.5c8.7,8.6,17.7,16.7,26.7,24.1V964
		c0,7.6,4.3,14.5,11.1,17.9c3.5,1.7,86,42.1,188.9,42.1s185.4-40.4,188.9-42.1c6.8-3.4,11.1-10.3,11.1-17.9V803.8
		c49.6-29.7,80-82.7,80-141.3c0-7.3,0-30.6,0-61.7h-40V662.6z M800.1,951c-24.6,10.3-87.2,33-160,33c-72.5,0-135.4-22.7-160-33
		V813.4c36.9,21.8,83.6,38.6,160,38.6c53.5,0,109.7-11.2,160-30V951z"/>
	<path d="M406.3,445.3c16.9,17.7,25.4,40,25.4,66.7c0,26.7-8.5,48.9-25.4,66.6c-14,14.7-29.9,23.3-47.6,25.8
		c18.9,3.4,37.8,7.5,56.4,12.3c25.1,6.5,50.2,14.4,74.7,23.3c10.4,3.8,21.9-1.5,25.7-11.9c3.8-10.4-1.5-21.9-11.9-25.7
		c-1.6-0.6-3.2-1.2-4.8-1.7h-16.7c-7.2,0-12.4-1.4-15.5-4.2c-2.4-2.2-3.8-4.9-4.4-8.1c-7.4-2.3-14.7-4.4-22.1-6.5
		c0-25.6,0-206.1,0-230.1V192V80c0-22.1,17.9-40,40-40c22.1,0,40,17.9,40,40v112c0,51,0,131,0,160v71.2l40,0.1V292
		c0-22.1,17.9-40,40-40c22.1,0,40,17.9,40,40v131.2l29.7,0.1l10.3,16.1V292c0-22.1,17.9-40,40-40c22.1,0,40,17.9,40,40
		c0,11,0,86.9,0,131.2l15.1,0.1c7.2,0,12.4,1.4,15.5,4.1c3.1,2.7,4.6,6.3,4.6,10.8c0,4.4-1.5,8-4.5,10.8c-3,2.8-7.7,4.2-13.9,4.2
		v87.5c14.6,19,37.6,31.2,63.3,31.2c0.7,0,1.5,0,2.2,0c2.6-0.8,5.8-1.1,9.6-1.1h1.9c6.3-1.1,12.4-3,18.2-5.5v-49.2
		c-7.3,9.6-18.9,15.9-31.9,15.9c-22.1,0-40-17.9-40-40V332c0-22.1,17.9-40,40-40c22.1,0,40,17.9,40,40c0,26.3,0,60.4,0,91.2l40,0
		c0-44.3,0-80.1,0-91.3c0-44.2-35.8-80-80-80c-16.4,0-31.7,5-44.5,13.5c-10.8-30.9-40.3-53.5-75.5-53.5c-23.9,0-45.3,10.5-60,27.1
		c-15.5-17.6-37.1-27.1-60-27.1c-14.6,0-28.2,3.9-40,10.8V80c0-44.1-35.9-80-80-80s-80,35.9-80,80c0,32.7,0,224,0,359.4
		C402.2,441.3,404.3,443.2,406.3,445.3z"/>
	<path d="M902,570.8h18.1c0-36.4,0-78.6,0-117.5H902V570.8z"/>
	<path d="M669.9,514.2c9.2,7.4,20,12.9,31.9,15.7L669.9,480V514.2z"/>
	<path d="M310,557.3c11,12,23.5,17.9,37.5,17.9c9.7,0,18.7-2.8,27-8.5c-21.5-4.1-43.1-7.4-64.8-9.8C309.7,557,309.8,557.1,310,557.3
		z"/>
	<path d="M401.7,512.1c0-5.5-0.5-10.8-1.5-15.8c0,11.5,0,22,0,31.5C401.1,522.9,401.7,517.6,401.7,512.1z"/>
	<path d="M746.6,481.9c-7.1,6.3-16.3,10.1-26.5,10.1c-2.3,0-4.6-0.2-6.8-0.6l24.6,38.6c3-0.7,5.9-1.5,8.7-2.5V481.9z"/>
	<path d="M600.1,492c-21.6,0-39.3-17.2-40-38.7h-17.7v54c14.6,15.2,35,24.7,57.7,24.7c14.4,0,28-3.9,39.7-10.6v-64.7
		C637.5,476.5,620.6,492,600.1,492z"/>
	<path d="M226,246.1c7.8,7.8,20.5,7.8,28.3,0c7.8-7.8,7.8-20.5,0-28.3l-120-120c-7.8-7.8-20.5-7.8-28.3,0c-7.8,7.8-7.8,20.5,0,28.3
		L226,246.1z"/>
	<path d="M35.3,291.4l160,40c1.6,0.4,3.3,0.6,4.9,0.6c9,0,17.1-6.1,19.4-15.2c2.7-10.7-3.8-21.6-14.6-24.3l-160-40
		c-10.7-2.7-21.6,3.8-24.3,14.6C18,277.9,24.6,288.7,35.3,291.4z"/>
	<path d="M99.8,427.3c3.1-2.8,8.2-4.2,15.5-4.2l42.3,0.1l47.4-11.8c10.7-2.7,17.2-13.5,14.6-24.3s-13.5-17.2-24.3-14.6l-160,40
		c-10.7,2.7-17.2,13.5-14.6,24.3c2.7,10.7,13.5,17.2,24.3,14.6l50.3-12.6c0-0.2,0-0.4,0-0.6C95.2,433.8,96.7,430.1,99.8,427.3z"/>
</g>
</svg>
