<?xml version="1.0" encoding="utf-8"?>
<!-- Generator: Adobe Illustrator 22.0.1, SVG Export Plug-In . SVG Version: 6.00 Build 0)  -->
<svg version="1.1" id="Layer_1" xmlns="http://www.w3.org/2000/svg" xmlns:xlink="http://www.w3.org/1999/xlink" x="0px" y="0px"
	 viewBox="0 0 1024 1024" style="enable-background:new 0 0 1024 1024;" xml:space="preserve">
<g>
	<path d="M360.1,603.9c3.3-7.8,5-16.5,5-26.2c0-14.2-3.6-26.4-10.9-36.7c-7.3-10.3-16.4-17.8-27.4-22.7c-11-4.8-26.8-9.2-47.3-13.3
		c-20.5-4-33-7-37.4-8.8c-6.6-2.6-11.7-6.2-15.1-10.8c-3.5-4.6-5.2-9.4-5.2-14.4c0-7.3,4.2-14.3,12.6-21
		c8.4-6.7,19.8-10.1,34.3-10.1c9.9,0,18.6,1.7,26.2,5.1c7.5,3.4,13.2,7.6,17,12.5c2.2,2.9,4,7.6,5.5,14.3c1.4,6.6,3.6,11.1,6.4,13.3
		c3.6,3,7.9,4.5,12.9,4.5c5.9,0,10.6-2.1,14.4-6.2s5.6-11,5.6-20.6v-30.1c0-2.7-0.2-5.2-0.5-7.4c-4.7,0.7-9.5,1.1-14.5,1.1
		c-23.5,0-43.6-8.3-60.3-25c-0.3-0.3-0.6-0.7-0.9-1c-3.9-0.4-7.8-0.5-11.9-0.5c-25.7,0-46.5,7.2-62.5,21.6c-16,14.4-24,31.2-24,50.3
		c0,12.1,3.3,23.4,9.8,33.8c6.5,10.4,15.4,18.5,26.6,24.2c11.2,5.7,27.7,10.6,49.6,14.6c18.1,3.4,29.8,6.1,35,8
		c7.9,2.9,13.7,6.5,17.2,10.8c3.5,4.4,5.3,9,5.3,14c0,7.4-3.6,13.7-10.9,18.8c-11.5,8.3-26.1,12.5-43.9,12.5
		c-11.5,0-22-2.1-31.6-6.3c-9.6-4.2-16.3-8.3-20.1-12.3c-1.8-2.1-3.6-6-5.3-11.8c-1.7-5.8-4.1-9.9-7.3-12.4
		c-3.2-2.5-7.1-3.7-11.8-3.7c-6.1,0-11,2.1-14.7,6.2s-5.6,11-5.6,20.6v27c0,9.5,1.9,16.3,5.6,20.4s8.6,6.2,14.7,6.2
		c3.1,0,5.8-0.6,7.9-1.8s5-3.8,8.5-8c9.9,5.3,20.1,9.3,30.6,12c10.5,2.7,21.3,4,32.3,4c17.5,0,33.2-2.9,46.9-8.8
		C332.1,626.7,345.3,614.7,360.1,603.9z"/>
	<path d="M596.8,568.2L531.1,406l-86.5-0.2c-9.6,0-16.5,1.9-20.6,5.6s-6.2,8.6-6.2,14.6c0,6,2.1,10.8,6.2,14.6s11,5.6,20.6,5.6h26.2
		l-50,124.6c28.6-10.8,59.1-16.3,91.5-16.3C542,554.4,570.2,559,596.8,568.2z M509.3,459l32.2,79.3h-64.6L509.3,459z"/>
	<path d="M831.4,454.7c-6.2-9.8-12.1-17.4-17.9-23c-7.6-7.4-17.5-13.5-30-18.4c-12.4-4.8-25.2-7.2-38.2-7.2l-7.2,0
		c-15.7,13.6-34.1,20.5-55.4,20.5c-16.5,0-31.3-4.1-44.4-12.3c-2.4,3.2-3.6,7.1-3.6,11.7c0,5.9,2,10.6,6.1,14.4
		c4,3.7,10.3,5.6,18.8,5.8v154.5c1.5,1.1,3,2.1,4.5,3.2c15.9,11.7,30.1,24.7,42.4,39h35.5c20.7,0,37.6-3.1,50.6-9.2
		c8.2-3.9,17-10,26.3-18.3c9.3-8.3,16.8-18.9,22.6-32c5.7-13.1,8.6-28.1,8.6-45v-19.1c0-13.9-1.6-25.7-4.7-35.4
		C842.3,474.1,837.6,464.4,831.4,454.7z M810,537.1c0,14.7-2.7,26.7-8,35.9c-5.3,9.2-13.3,16.9-23.8,22.9
		c-8.1,4.6-20.1,6.8-35.9,6.8h-42.6V446.1h42.2c14.2,0,26,2.8,35.4,8.3c9.4,5.5,17.9,15.7,25.5,30.6c4.8,9.5,7.2,20.6,7.2,33.2
		V537.1z"/>
	<path d="M955.4,254.9c-45.8-78.4-107.8-140.5-186.3-186.3C690.7,22.9,605.1,0,512.2,0c-92.9,0-178.5,22.9-256.9,68.6
		C176.9,114.4,114.8,176.5,69,254.9C23.3,333.3,0.4,419,0.4,511.8c0,92.9,22.9,178.5,68.6,256.9c45.8,78.4,107.8,140.5,186.3,186.3
		c78.4,45.8,164.1,68.6,256.9,68.6s178.5-22.9,256.9-68.6c78.4-45.8,140.5-107.9,186.3-186.3c45.8-78.4,68.6-164.1,68.6-256.9
		C1024,418.9,1001.1,333.3,955.4,254.9z M904.7,677.4c-22.7,52.6-53,98-91,136c-38,38-83.3,68.3-136,90.9
		c-52.6,22.7-107.8,34-165.6,34s-113-11.3-165.6-34c-52.6-22.7-98-53-136-90.9c-38-38-68.3-83.3-91-136
		c-22.7-52.6-34-107.9-34-165.6c0-57.8,11.3-113,34-165.6c22.7-52.6,53-98,91-136c38-38,83.3-68.3,136-91
		c52.6-22.7,107.8-34,165.6-34c57.7,0,113,11.3,165.6,34c52.6,22.7,98,53,136,91c38,38,68.3,83.3,91,136
		c22.7,52.6,34,107.8,34,165.6C938.7,569.6,927.4,624.8,904.7,677.4z"/>
	<path d="M629.4,605.8c3.3,2.4,5.7,5.2,7.2,8.4c1-2.3,2.5-4.3,4.4-6.1c4.1-3.8,10.3-5.6,18.7-5.5v-2.2
		c-19.8-13.9-40.8-24.7-62.8-32.3l14,34.5C620.2,602.7,626.4,603.8,629.4,605.8z"/>
	<path d="M641,637.2c-1.9-1.7-3.4-3.7-4.4-5.9c-1,2.2-2.4,4.2-4.3,5.9c-4,3.7-10.9,5.6-20.5,5.6h-53.9c-9.6,0-16.5-1.9-20.6-5.6
		s-6.2-8.6-6.2-14.6c0-5.9,2.1-10.6,6.2-14.4s11-5.6,20.6-5.6h9.8l-9.6-24.4h-97.3l-9.8,24.4h9.8c9.6,0,16.5,1.9,20.6,5.6
		s6.2,8.6,6.2,14.6c0,5.9-2.1,10.6-6.2,14.4s-11,5.6-20.6,5.6h-53.9c-9.6,0-16.5-1.9-20.6-5.6s-6.2-8.6-6.2-14.6
		c0-6,2.1-10.9,6.4-14.6c4.3-3.8,11.4-5.5,21.3-5.3l12.8-32c-21.2,8-41.4,19-60.5,33.1c-0.1,0-0.1,0.1-0.2,0.1
		c-3.5,8.1-8.8,15.2-15.9,21.3c-7.2,6.1-15.1,10.9-23.8,14.6c-23.7,26.6-41.1,57.9-52.1,93.9c-3.6,11.1-2.7,21.9,2.7,32.3
		c5.3,10.4,13.8,17.4,25.3,21c11.1,3.6,21.9,2.7,32.3-2.7c10.4-5.3,17.4-13.8,21-25.3c11.1-35.6,31.7-64.3,61.6-86.3
		c30-22,63.6-33,101-33c37.3,0,71,11,101,33c30,22,50.5,50.8,61.6,86.3c3.5,11.5,10.7,20,21.3,25.3c10.7,5.3,21.6,6.2,32.7,2.7
		c11.1-3.6,19.3-10.6,24.7-21c5.3-10.4,6.2-21.2,2.7-32.3c-10.6-34.7-27.1-65-49.5-91h-45C652,642.8,645.1,640.9,641,637.2z"/>
	<path d="M636.6,631.3c1.1-2.5,1.7-5.3,1.7-8.4c0-3.1-0.6-6-1.8-8.6c-1.1,2.5-1.7,5.3-1.7,8.4C634.8,625.8,635.5,628.7,636.6,631.3z
		"/>
	<path d="M321,413.8c5.2-5.1,10.4-7.6,15.6-7.6c5.9,0,10.6,2.1,14.4,6.2c2.7,2.9,4.4,7.3,5.1,13c17.4-2.8,32.7-10.7,45.8-23.9
		c16.7-16.7,25-36.8,25-60.3c0-23.5-8.3-43.6-25-60.3c-16.7-16.7-36.8-25-60.3-25c-23.5,0-43.7,8.3-60.3,25
		c-16.7,16.7-25,36.8-25,60.3c0,23.1,8,42.9,24.1,59.3c5.8,0.5,11.4,1.5,16.7,2.9C305.8,405.7,313.8,409.2,321,413.8z"/>
	<path d="M661.6,405.8l76.6,0.2c1.7-1.4,3.3-2.9,4.9-4.5c16.7-16.7,25-36.8,25-60.3c0-23.5-8.3-43.6-25-60.3
		c-16.7-16.7-36.8-25-60.3-25c-23.5,0-43.7,8.3-60.3,25c-16.6,16.7-25,36.8-25,60.3s8.3,43.7,25,60.3c5,5,10.3,9.2,16,12.7
		c0.7-1,1.6-2,2.6-2.8C645.1,407.7,652,405.8,661.6,405.8z"/>
</g>
</svg>
