<?xml version="1.0" encoding="iso-8859-1"?>
<!-- Generator: Adobe Illustrator 16.0.0, SVG Export Plug-In . SVG Version: 6.00 Build 0)  -->
<!DOCTYPE svg PUBLIC "-//W3C//DTD SVG 1.1//EN" "http://www.w3.org/Graphics/SVG/1.1/DTD/svg11.dtd">
<svg version="1.1" id="Capa_1" xmlns="http://www.w3.org/2000/svg" xmlns:xlink="http://www.w3.org/1999/xlink" x="0px" y="0px"
	 width="196.824px" height="196.824px" viewBox="0 0 196.824 196.824" style="enable-background:new 0 0 196.824 196.824;"
	 xml:space="preserve">
<g>
	<path d="M57.834,22.552C60.552,6.869,77.002,3.968,85.325,4.629c0.978,0.077,1.878,0.388,2.656,0.871
		C91.034,2.124,95.476,0,100.42,0c9.207,0,16.674,7.366,16.674,16.452c0,9.086-7.467,16.454-16.674,16.454
		c-9.206,0-16.67-7.365-16.672-16.45c-2.667-0.059-12.833,0.237-14.196,8.124c-0.472,2.719,0.114,5.149,1.692,7.024
		c2.174,2.583,6.164,4.124,10.974,4.137c9.053,0.022,26.419-0.139,36.024-0.139c1.031,0,2.327,0.287,3.115,0.729
		c27.682,15.535,15.264,64.784,14.725,66.864c-0.69,2.681-3.102,4.457-5.748,4.457c-0.49,0-0.989-0.062-1.485-0.189
		c-3.177-0.818-5.103-4.059-4.286-7.236c2.665-10.378,6.352-36.984-4.218-49.457v137.136c0,4.924-3.961,8.916-8.886,8.916
		c-4.926,0-8.885-3.992-8.885-8.916V120.48h-4.298v67.426c0,4.925-3.96,8.918-8.886,8.918c-4.925,0-8.885-3.993-8.885-8.918V47.567
		c-7.664-0.425-14.156-3.335-18.341-8.305C58.313,34.684,56.763,28.75,57.834,22.552z"/>
</g>
<g>
</g>
<g>
</g>
<g>
</g>
<g>
</g>
<g>
</g>
<g>
</g>
<g>
</g>
<g>
</g>
<g>
</g>
<g>
</g>
<g>
</g>
<g>
</g>
<g>
</g>
<g>
</g>
<g>
</g>
</svg>
