<?xml version="1.0" encoding="utf-8"?>
<!-- Generator: Adobe Illustrator 22.0.1, SVG Export Plug-In . SVG Version: 6.00 Build 0)  -->
<svg version="1.1" id="Layer_1" xmlns="http://www.w3.org/2000/svg" xmlns:xlink="http://www.w3.org/1999/xlink" x="0px" y="0px"
	 viewBox="0 0 1024 1024" style="enable-background:new 0 0 1024 1024;" xml:space="preserve">
<g>
	<path d="M137,507.9c-7.6-3.3-18.4-6.4-32.5-9.1c-14.1-2.8-22.7-4.8-25.7-6c-4.6-1.8-8-4.3-10.4-7.5c-2.4-3.2-3.6-6.5-3.6-9.9
		c0-5,2.9-9.8,8.7-14.4c5.8-4.6,13.6-6.9,23.6-6.9c6.8,0,12.8,1.2,18,3.5c5.2,2.3,9.1,5.2,11.7,8.6c1.5,2,2.8,5.2,3.8,9.8
		c1,4.6,2.5,7.6,4.4,9.1c2.5,2.1,5.5,3.1,8.9,3.1c4,0,7.3-1.4,9.9-4.2c2.6-2.8,3.8-7.5,3.8-14.2v-20.7c0-6.5-1.3-11.2-3.8-14
		c-2.6-2.8-5.8-4.2-9.9-4.2c-3.6,0-7.2,1.7-10.7,5.2c-4.9-3.2-10.4-5.6-16.4-7.2c-6-1.6-12.6-2.4-19.7-2.4c-17.6,0-32,4.9-43,14.8
		c-11,9.9-16.5,21.4-16.5,34.6c0,8.3,2.2,16.1,6.7,23.2c4.5,7.2,10.6,12.7,18.3,16.7c7.7,3.9,19.1,7.3,34.1,10.1
		c12.4,2.3,20.5,4.2,24,5.5c5.5,2,9.4,4.5,11.8,7.5c2.4,3,3.6,6.2,3.6,9.6c0,5.1-2.5,9.4-7.5,12.9c-7.9,5.7-17.9,8.6-30.2,8.6
		c-7.9,0-15.1-1.4-21.8-4.3c-6.6-2.9-11.2-5.7-13.8-8.5c-1.3-1.4-2.5-4.1-3.6-8.1c-1.2-4-2.8-6.8-5-8.5c-2.2-1.7-4.9-2.6-8.1-2.6
		c-4.2,0-7.6,1.4-10.1,4.2c-2.6,2.8-3.8,7.5-3.8,14.2v18.5c0,6.5,1.3,11.2,3.8,14c2.6,2.8,5.9,4.2,10.1,4.2c2.1,0,4-0.4,5.4-1.2
		c1.5-0.8,3.4-2.6,5.8-5.5c6.8,3.7,13.8,6.4,21,8.3c7.2,1.8,14.6,2.8,22.2,2.8c19.7,0,35.9-5.4,48.6-16.1c9.6-8.1,14.4-19,14.4-32.6
		c0-9.8-2.5-18.2-7.5-25.2C150.9,516.4,144.6,511.2,137,507.9z"/>
	<path d="M345.1,568.1c-2.1-1.4-6.3-2.1-12.8-2.1l-54.8-135.2l-59.5-0.1c-6.6,0-11.3,1.3-14.2,3.8c-2.8,2.6-4.2,5.9-4.2,10
		c0,4.1,1.4,7.5,4.2,10c2.8,2.6,7.5,3.8,14.2,3.8h18l-43.2,107.7c-6.8-0.2-11.7,1-14.6,3.6c-3,2.6-4.4,6-4.4,10.1
		c0,4.1,1.4,7.5,4.2,10c2.8,2.6,7.5,3.8,14.2,3.8h37.1c6.6,0,11.3-1.3,14.2-3.8c2.8-2.6,4.2-5.8,4.2-9.9c0-4.1-1.4-7.5-4.2-10
		c-2.8-2.6-7.5-3.8-14.2-3.8h-6.7l6.7-16.8h66.9l6.6,16.8h-6.7c-6.6,0-11.3,1.3-14.2,3.8c-2.8,2.6-4.2,5.8-4.2,9.9
		c0,4.1,1.4,7.5,4.2,10c2.8,2.6,7.5,3.8,14.2,3.8H333c6.6,0,11.3-1.3,14.1-3.8c2.8-2.6,4.2-5.8,4.2-9.9
		C351.3,574.9,349.2,571,345.1,568.1z M240.2,521.6l22.3-54.5l22.2,54.5H240.2z"/>
	<path d="M416,565.9V458.2h2.8v-27.6l-46.4-0.1c-6.6,0-11.3,1.3-14.2,3.8c-2.8,2.6-4.2,5.9-4.2,10c0,4.1,1.4,7.5,4.2,10
		c2.8,2.6,7.5,3.8,14.2,3.8h16v107.7h-16c-6.6,0-11.3,1.3-14.2,3.8c-2.8,2.6-4.2,5.8-4.2,9.9c0,4.1,1.4,7.5,4.2,10
		c2.8,2.6,7.5,3.8,14.2,3.8h46.4v-27.5H416z"/>
	<path d="M648.1,521.4c2.4-9.5,5-21.5,7.4-35.3v-27.9c1.4,0,2.8-0.1,4-0.2c1-8.5,1.8-17.4,2.4-26.5c-2.2-0.5-4.8-0.8-7.8-0.8
		l-28-0.1v27.6h1.8v80.4c0,3.8-0.6,7.2-1.8,10.2v39.4c3.9-2.4,7.5-5.3,11-8.7c9.1-8.9,14.8-19.1,17.1-30.8
		C648.1,541.4,645.5,531.4,648.1,521.4z"/>
	<path d="M721.5,458.2h21.8v107.7H725c-6.6,0-11.3,1.3-14.2,3.8c-2.8,2.6-4.2,5.8-4.2,9.9c0,4.1,1.4,7.5,4.2,10
		c2.8,2.6,7.5,3.8,14.2,3.8h64.5c6.6,0,11.3-1.3,14.2-3.8c2.8-2.6,4.2-5.8,4.2-9.9c0-4.1-1.4-7.5-4.2-10c-2.8-2.6-7.5-3.8-14.2-3.8
		h-18.5V458.2h30.2v26c0,6.6,1.3,11.3,3.8,14.2c2.6,2.8,5.8,4.2,9.9,4.2c4.1,0,7.5-1.4,10-4.2c2.6-2.8,3.8-7.5,3.8-14.2v-53.6
		l-104.8-0.1C723.3,440.2,722.5,449.4,721.5,458.2z"/>
	<path d="M988.2,536.8c-2.6-2.8-5.8-4.2-9.9-4.2c-4.1,0-7.5,1.4-10,4.2c-2.6,2.8-3.8,7.5-3.8,14.2v14.9h-70.2v-40.4h24.2
		c0,7.3,0.7,11.9,2,14c2.8,4.4,6.7,6.6,11.8,6.6c4.8,0,8.7-2.1,11.5-6.3c1.4-2.1,2.1-6.1,2.1-12.1V496c0-6.6-1.3-11.3-3.8-14.2
		c-2.6-2.8-5.8-4.2-9.9-4.2c-5.1,0-9,2.2-11.8,6.6c-1.3,2.1-2,6.7-2,13.8h-24.2v-39.7h64.2v14.4c0,6.6,1.3,11.3,3.8,14.1
		c2.6,2.8,5.9,4.2,10,4.2c4.1,0,7.4-1.4,9.9-4.2c2.5-2.8,3.8-7.5,3.8-14v-41.9l-123.5-0.1c-6.6,0-11.3,1.3-14.2,3.8
		c-2.8,2.6-4.2,5.9-4.2,10c0,4.1,1.4,7.5,4.2,10c2.8,2.6,7.5,3.8,14.2,3.8h4.3v107.7h-4.3c-6.5,0-11.2,1.3-14.1,3.8
		c-2.9,2.6-4.3,5.8-4.3,9.9c0,4.1,1.4,7.5,4.2,10c2.8,2.6,7.5,3.8,14.2,3.8H992V551C992,544.4,990.8,539.7,988.2,536.8z"/>
	<path d="M713.6,484.3c0,6.6-1.3,11.3-3.8,14.2c-2.6,2.8-5.9,4.2-10,4.2c-4,0-7.3-1.4-9.9-4.2c-2.6-2.8-3.8-7.5-3.8-14.2v-53.7
		l37.8,0c5-83.6-6.9-193.6-92.5-241.6c-4.1-2.3-10.8-3.8-16.2-3.8c-50,0-140.3,0.8-187.4,0.7c-25-0.1-45.8-8.1-57.1-21.5
		c-8.2-9.8-11.3-22.4-8.8-36.5c7.1-41,60-42.6,73.9-42.3c0,47.3,38.8,85.6,86.7,85.6c47.9,0,86.7-38.3,86.7-85.6S570.3,0,522.4,0
		c-25.7,0-48.8,11.1-64.7,28.6c-4-2.5-8.7-4.1-13.8-4.5c-43.3-3.4-128.9,11.7-143,93.2c-5.6,32.2,2.5,63.1,22.5,86.9
		c21.8,25.9,55.5,41,95.4,43.2v183.2l13.3,0c6.6,0,11.3,1.3,14.2,3.8c2.8,2.5,4.2,5.8,4.2,9.9c0,4.1-1.4,7.5-4.2,10
		c-2.8,2.6-7.5,3.8-14.2,3.8h-13.3v107.7h56.5v-26c0-6.6,1.3-11.3,3.8-14.2c2.6-2.8,5.9-4.2,10-4.2c4,0,7.3,1.4,9.9,4.2
		c2.6,2.8,3.8,7.5,3.8,14.2v53.6h-84v384.2c0,25.6,20.6,46.4,46.2,46.4c25.6,0,46.2-20.8,46.2-46.4V626.8h22.4v350.8
		c0,25.6,20.6,46.4,46.2,46.4c25.6,0,46.2-20.8,46.2-46.4V588.3c-9.8,6.1-20.8,9.2-33.1,9.2c-8.5,0-16.5-1.5-24-4.5
		c-7.5-3-14.2-7.4-20.1-13.2c-6-5.8-10.6-11.9-13.9-18.2c-3.3-6.3-5-14.7-5-25.3v-78c-5.8,0-10.1-1.3-12.9-3.9
		c-2.8-2.6-4.2-5.9-4.2-9.9c0-4.1,1.4-7.4,4.2-9.9c2.8-2.5,7.5-3.8,14.2-3.8l36.1-0.1c6.6,0,11.3,1.3,14.2,3.8
		c2.8,2.6,4.2,5.9,4.2,10c0,4.1-1.4,7.5-4.2,10c-2.8,2.6-7.5,3.8-14.2,3.8h-9.9v80.4c0,8.2,3.4,15.5,10.3,21.8
		c6.8,6.3,15.1,9.5,24.8,9.5c6.4,0,12.5-1.5,18.1-4.6c5.6-3,10.2-7.5,13.8-13.3c0.6-1,1.1-2.1,1.6-3.2v-90.6h-8.2
		c-6.6,0-11.3-1.3-14.2-3.8c-2.8-2.6-4.2-5.9-4.2-10c0-4.1,1.4-7.5,4.2-10c2.8-2.6,7.5-3.8,14.2-3.8l8.2,0V264.1
		c34,40.1,39.6,108.3,35.7,167.3c2.7,0.6,4.8,1.6,6.4,3c2.8,2.5,4.2,5.8,4.2,9.9c0,4-1.4,7.3-4.2,9.9c-2.1,2-5.1,3.2-8.9,3.7
		c-1.2,9.9-2.5,19.4-4,28.1v50.1c0,4.4-0.4,8.6-1.2,12.6c4,4.9,9.6,8.6,16.2,10.3c2.6,0.7,5.2,1,7.7,1c13.8,0,26.3-9.2,29.9-23.2
		c0.9-3.7,8.9-35.3,13.6-78.7h-8V484.3z"/>
</g>
</svg>
