<?xml version="1.0" encoding="iso-8859-1"?>
<!-- Generator: Adobe Illustrator 19.0.0, SVG Export Plug-In . SVG Version: 6.00 Build 0)  -->
<svg version="1.1" id="Layer_1" xmlns="http://www.w3.org/2000/svg" xmlns:xlink="http://www.w3.org/1999/xlink" x="0px" y="0px"
	 viewBox="0 0 512.001 512.001" style="enable-background:new 0 0 512.001 512.001;" xml:space="preserve">
<g>
	<g>
		<path d="M256.001,0C114.841,0,0,114.841,0,256.001s114.841,256.001,256.001,256.001S512.001,397.16,512.001,256.001
			S397.16,0,256.001,0z M256.001,493.701c-131.069,0-237.702-106.631-237.702-237.7S124.932,18.299,256.001,18.299
			s237.702,106.632,237.702,237.702S387.068,493.701,256.001,493.701z"/>
	</g>
</g>
<g>
	<g>
		<path d="M146.723,171.267c-18.666,0-33.852,15.186-33.852,33.852c0,18.666,15.187,33.852,33.852,33.852
			c18.666,0,33.852-15.186,33.852-33.852C180.575,186.453,165.39,171.267,146.723,171.267z"/>
	</g>
</g>
<g>
	<g>
		<path d="M365.277,171.267c-18.666,0-33.852,15.186-33.852,33.852c0,18.666,15.186,33.852,33.852,33.852
			s33.852-15.186,33.852-33.852C399.129,186.453,383.943,171.267,365.277,171.267z"/>
	</g>
</g>
<g>
	<g>
		<path d="M412.156,338.187c-8.593,0-12.443-3.803-18.272-9.559c-6.693-6.611-15.024-14.839-31.133-14.839
			c-16.109,0-24.438,8.229-31.133,14.839c-5.828,5.757-9.679,9.559-18.272,9.559c-8.596,0-12.446-3.803-18.273-9.559
			c-6.694-6.611-15.025-14.839-31.134-14.839c-16.109,0-24.438,8.229-31.133,14.839c-5.828,5.757-9.679,9.559-18.273,9.559
			c-8.597,0-12.447-3.804-18.277-9.559c-6.694-6.611-15.025-14.839-31.134-14.839s-24.44,8.229-31.134,14.839
			c-5.83,5.757-9.681,9.559-18.277,9.559c-5.054,0-9.15,4.097-9.15,9.15s4.095,9.15,9.15,9.15c16.109,0,24.44-8.228,31.134-14.839
			c5.83-5.757,9.681-9.559,18.277-9.559s12.447,3.804,18.277,9.559c6.694,6.611,15.025,14.839,31.134,14.839
			c16.108,0,24.438-8.228,31.133-14.839c5.828-5.757,9.679-9.559,18.273-9.559c8.596,0,12.446,3.803,18.273,9.559
			c6.694,6.611,15.025,14.839,31.134,14.839c16.107,0,24.438-8.228,31.132-14.839c5.828-5.757,9.679-9.559,18.273-9.559
			s12.445,3.803,18.273,9.559c6.693,6.611,15.024,14.839,31.132,14.839c5.054,0,9.15-4.097,9.15-9.15
			S417.21,338.187,412.156,338.187z"/>
	</g>
</g>
<g>
	<g>
		<g>
			<circle cx="158.007" cy="199.399" r="9.15"/>
			<circle cx="376.376" cy="199.399" r="9.15"/>
		</g>
	</g>
</g>
<g>
</g>
<g>
</g>
<g>
</g>
<g>
</g>
<g>
</g>
<g>
</g>
<g>
</g>
<g>
</g>
<g>
</g>
<g>
</g>
<g>
</g>
<g>
</g>
<g>
</g>
<g>
</g>
<g>
</g>
</svg>
