<?xml version="1.0" encoding="utf-8"?>
<!-- Generator: Adobe Illustrator 22.0.1, SVG Export Plug-In . SVG Version: 6.00 Build 0)  -->
<svg version="1.1" id="Layer_1" xmlns="http://www.w3.org/2000/svg" xmlns:xlink="http://www.w3.org/1999/xlink" x="0px" y="0px"
	 viewBox="0 0 1024 1024" style="enable-background:new 0 0 1024 1024;" xml:space="preserve">
<g>
	<path d="M186.7,507.5c-8.3-3.6-20.1-6.9-35.4-10c-15.4-3-24.7-5.2-28.1-6.6c-5-2-8.8-4.7-11.4-8.1c-2.6-3.5-3.9-7.1-3.9-10.8
		c0-5.5,3.1-10.7,9.4-15.7c6.3-5,14.9-7.5,25.7-7.5c7.4,0,14,1.3,19.6,3.8c5.7,2.5,9.9,5.7,12.7,9.4c1.7,2.1,3,5.7,4.1,10.7
		c1.1,5,2.7,8.3,4.8,10c2.7,2.2,6,3.4,9.7,3.4c4.4,0,8-1.5,10.8-4.6s4.2-8.2,4.2-15.5v-22.6c0-7.1-1.4-12.2-4.2-15.3
		s-6.4-4.6-10.8-4.6c-3.9,0-7.8,1.9-11.7,5.7c-5.4-3.5-11.4-6.1-17.9-7.8c-6.6-1.7-13.7-2.6-21.5-2.6c-19.2,0-34.9,5.4-46.9,16.2
		c-12,10.8-18,23.4-18,37.7c0,9.1,2.4,17.5,7.3,25.3c4.9,7.8,11.5,13.9,19.9,18.2c8.4,4.3,20.8,8,37.2,11c13.6,2.5,22.3,4.5,26.2,6
		c6,2.1,10.3,4.9,12.9,8.1c2.6,3.3,4,6.8,4,10.5c0,5.6-2.7,10.3-8.2,14.1c-8.6,6.3-19.6,9.4-33,9.4c-8.6,0-16.5-1.6-23.7-4.7
		c-7.2-3.1-12.3-6.2-15.1-9.2c-1.4-1.6-2.7-4.5-4-8.9c-1.3-4.3-3.1-7.4-5.5-9.3c-2.4-1.9-5.3-2.8-8.9-2.8c-4.6,0-8.3,1.5-11.1,4.6
		s-4.2,8.2-4.2,15.5v20.2c0,7.1,1.4,12.2,4.2,15.3s6.5,4.6,11.1,4.6c2.3,0,4.3-0.4,5.9-1.3s3.7-2.9,6.4-6c7.4,4,15.1,7,22.9,9
		c7.9,2,15.9,3,24.2,3c21.5,0,39.2-5.9,53-17.6c10.4-8.9,15.7-20.8,15.7-35.6c0-10.6-2.7-19.8-8.2-27.5
		C201.8,516.8,194.9,511.1,186.7,507.5z"/>
	<path d="M395.9,571.4c-2.5-0.4-5.7-0.6-9.5-0.6V453.3c3.9-0.4,7.1-1.3,9.5-2.9v-24.3c-3.1-1.9-7.7-2.8-13.6-2.8l-30.6-0.1
		c-7.2,0-12.4,1.4-15.5,4.2s-4.6,6.4-4.6,10.9c0,4.5,1.5,8.1,4.6,10.9s8.2,4.2,15.5,4.2h4.7v43.9h-64.2v-43.9h4.7
		c7.2,0,12.4-1.4,15.5-4.2s4.6-6.4,4.6-10.9c0-4.5-1.5-8.1-4.6-10.8c-3.1-2.7-8.2-4.1-15.5-4.1l-30.6-0.1c-7.2,0-12.4,1.4-15.5,4.2
		s-4.6,6.4-4.6,10.9c0,4.1,1.3,7.5,4,10.3c2.7,2.7,6.7,4.3,11.9,4.8v117.5c-7.6-0.1-12.6,0.6-14.9,2.2c-4.8,3-7.2,7.3-7.2,12.7
		c0,4.5,1.5,8.1,4.6,10.9s8.2,4.2,15.5,4.2h36.8c7.2,0,12.4-1.4,15.5-4.2s4.6-6.4,4.6-10.8c0-4.5-1.5-8.1-4.6-10.9
		s-8.2-4.2-15.5-4.2h-4.7v-43.5h64.2v43.5h-4.7c-7.1,0-12.3,1.4-15.4,4.2c-3.1,2.8-4.7,6.4-4.7,10.8c0,4.5,1.5,8.1,4.6,10.9
		s8.2,4.2,15.5,4.2h36.8c2.8,0,5.3-0.2,7.5-0.6v-9.4V571.4z"/>
	<path d="M489.5,600.4c4.1-0.6,7.2-1.8,9.3-3.8c1.8-1.7,3.1-3.6,3.9-5.9h-13.2V600.4z"/>
	<path d="M766.2,427.4c-3.1-2.7-8.2-4.1-15.5-4.1l-39.4-0.1c-7.2,0-12.4,1.4-15.5,4.2s-4.6,6.4-4.6,10.9c0,4.5,1.5,8.1,4.6,10.9
		s8.2,4.2,15.5,4.2h10.8v87.7c0,5.8-1.2,10.6-3.7,14.6c-3.9,6.3-8.9,11.2-15.1,14.5c-6.2,3.3-12.7,5-19.8,5
		c-10.5,0-19.6-3.4-27-10.3s-11.2-14.8-11.2-23.8v-87.7h10.8c7.2,0,12.4-1.4,15.5-4.2s4.6-6.4,4.6-10.9c0-4.5-1.5-8.1-4.6-10.9
		s-8.2-4.2-15.5-4.2l-33.8,0.1v139.6v6.1c3.5,5.8,8,11.5,13.5,16.9c6.5,6.3,13.8,11.2,22,14.4c8.2,3.3,16.9,4.9,26.1,4.9
		c18.8,0,34.8-6.5,48.1-19.5c13.3-13,20-28.8,20-47.3v-85.1c6.3,0,11-1.4,14.1-4.2c3-2.8,4.5-6.4,4.5-10.8
		C770.8,433.8,769.2,430.1,766.2,427.4z"/>
	<path d="M947.4,520c-3.1-2.7-8.2-4.1-15.5-4.1l-53.3-0.1c-7.2,0-12.4,1.4-15.5,4.2s-4.6,6.4-4.6,10.9c0,4.5,1.5,8.1,4.6,10.9
		s8.2,4.2,15.5,4.2h30.6v21.5c-11.3,5.2-23.9,7.8-37.6,7.8c-20.3,0-35.1-4.2-44.5-12.5c-9.3-8.3-14-20.6-14-36.7v-21.7
		c0-10.5,2.6-20.3,7.9-29.3c5.3-9,11-15.3,17.3-18.9c8.8-4.9,19.1-7.3,31.1-7.3c8.3,0,15.8,1.1,22.5,3.3c6.7,2.2,11.4,4.7,14,7.5
		c1.7,1.8,3.2,5.2,4.5,10.2c1.3,5,3,8.3,4.9,9.7c2.5,2.1,5.6,3.2,9.1,3.2c4.4,0,8-1.5,10.8-4.6s4.2-8.2,4.2-15.5v-19.5
		c0-7.2-1.4-12.4-4.1-15.4c-2.7-3-6.3-4.5-10.7-4.5c-3.8,0-7.7,1.8-11.7,5.4c-6.6-3.3-13.6-5.8-21-7.5c-7.4-1.7-15.2-2.5-23.4-2.5
		c-28.2,0-50.5,10.6-66.9,31.9c-12.2,15.7-18.3,33.6-18.3,53.6V526c0,13,2.5,24.7,7.5,35.2c5,10.5,10.4,18.4,16.3,23.8
		c5.9,5.4,14,9.8,24.2,13.3c13.1,4.6,27.3,6.9,42.6,6.9c11,0,21.3-1.3,30.8-4s21.1-7.7,34.6-15v-40.3c4.3-1.3,7.5-3.2,9.6-5.9
		c2.1-2.6,3.1-5.7,3.1-9.2C952,526.3,950.4,522.7,947.4,520z"/>
	<circle cx="508.3" cy="83.7" r="83.7"/>
	<path d="M615.3,538.4v-85.1c-6.3,0-11-1.4-14.1-4.2c-3-2.8-4.5-6.4-4.5-10.8c0-4.5,1.5-8.1,4.5-10.8c3-2.7,8.2-4.1,15.5-4.1l5.6,0
		V316.7l16.4,39.4c6.6,16.4,26.3,24.6,42.7,18.1c7.4-3.3,13.9-9,17.2-16.4l62.4-131.3c7.4-16.4,0.8-36.1-15.6-43.5
		c-16.4-7.4-36.1-0.8-43.5,15.6l-30.4,64.8L638,182.2c-4.9-12.3-17.2-20.5-30.4-20.5c-15.6,0-24.6,3.3-33.6,9
		c-18.1,13.1-40.2,20.5-64,20.5c-22.2,0-42.7-6.6-59.9-18.1c-13.9-6.6-22.2-11.5-40.2-11.5c-13.1,0-24.6,8.2-29.5,20.5l-33.6,81.2
		l-30.4-64.8c-7.4-16.4-27.1-23.8-43.5-15.6c-16.4,8.2-23.8,27.1-15.6,43.5l62.4,131.3c7.4,16.4,27.1,23.8,43.5,15.6
		c7.4-3.3,13.1-9.8,16.4-17.2l16.4-39.4v109.4c0.7,0.4,1.3,0.8,1.8,1.3c3.1,2.7,4.6,6.3,4.6,10.8c0,4.1-1.3,7.5-4,10.3
		c-0.7,0.7-1.5,1.4-2.4,1.9v120.9c2.5,0.4,4.3,0.9,5.4,1.6c4.8,3,7.2,7.3,7.2,12.9c0,4.4-1.5,8-4.6,10.8c-1.9,1.7-4.5,2.9-8,3.5
		v376.2c0,26.3,20.5,46.8,45.9,47.6c26.3,0,46.8-20.5,47.6-45.9c0-0.8,0-0.8,0-1.6v-376c-1.8,0.3-3.9,0.4-6.1,0.4h-45.6
		c-7.2,0-12.4-1.4-15.5-4.2s-4.6-6.4-4.6-10.9c0-4.4,1.6-8,4.7-10.8c3.1-2.8,8.3-4.2,15.4-4.2h4.7V453.3h-4.7
		c-7.2,0-12.4-1.4-15.5-4.2s-4.6-6.4-4.6-10.9c0-4.5,1.5-8.1,4.6-10.9s8.2-4.2,15.5-4.2l68,0.1c21.2,0,37.6,5.3,49.3,15.7
		c11.7,10.5,17.5,23.3,17.5,38.3c0,9.4-2.7,17.9-8.2,25.6c-5.5,7.7-13.7,14.5-24.8,20.4c6.3,5.6,13.1,12.7,20.4,21.4
		c4.5,5.6,10.5,14.3,18.2,26.1c7.6,0,12.6,0.8,15.1,2.3c4.4,3,6.6,7.3,6.6,12.7c0,4.4-1.5,8-4.5,10.8c-3,2.8-8.2,4.2-15.4,4.2h-17.1
		c-24.3-37.6-44.5-60.2-60.5-67.8h-29.7v37.8h10.8c7.2,0,12.4,1.4,15.5,4.2s4.6,6.4,4.6,10.9c0,1.8-0.3,3.4-0.7,4.9h26.2v385.6
		c0,26.3,20.5,46.8,45.9,47.6c26.3,0,46.8-20.5,47.6-45.9c0-0.8,0-0.8,0-1.6V569c-0.6-1-1.1-1.9-1.6-2.9
		C617.2,559.2,615.3,550,615.3,538.4z"/>
	<path d="M519.3,499c9.2-3.5,15.4-7.2,18.5-11.1c3.2-3.9,4.8-7.8,4.8-11.6c0-5.7-3-10.9-9.1-15.7c-6.1-4.8-14.9-7.3-26.5-7.3h-34.4
		V503H496C504.7,503,512.4,501.7,519.3,499z"/>
</g>
</svg>
