<?xml version="1.0" encoding="utf-8"?>
<!-- Generator: Adobe Illustrator 22.0.1, SVG Export Plug-In . SVG Version: 6.00 Build 0)  -->
<svg version="1.1" id="Layer_1" xmlns="http://www.w3.org/2000/svg" xmlns:xlink="http://www.w3.org/1999/xlink" x="0px" y="0px"
	 viewBox="0 0 1024 1024" style="enable-background:new 0 0 1024 1024;" xml:space="preserve">
<style type="text/css">
	.st0{fill:#010002;}
</style>
<g>
	<path class="st0" d="M278.2,492.8c-20.5-4-33-7-37.4-8.8c-6.6-2.6-11.7-6.2-15.1-10.8c-3.5-4.6-5.2-9.4-5.2-14.4
		c0-7.3,4.2-14.3,12.6-21c8.4-6.7,19.8-10.1,34.3-10.1c9.9,0,18.6,1.7,26.2,5.1c7.5,3.4,13.2,7.6,17,12.5c2.2,2.9,4,7.6,5.5,14.3
		c0.5,2.5,1.2,4.6,1.9,6.5c13.4-15.1,26-29,37.4-41.5v-4.1c0-9.5-1.9-16.3-5.6-20.4s-8.5-6.2-14.4-6.2c-5.2,0-10.4,2.5-15.6,7.6
		c-7.2-4.7-15.1-8.2-23.9-10.4c-8.8-2.3-18.3-3.4-28.6-3.4c-25.7,0-46.5,7.2-62.5,21.6c-16,14.4-24,31.2-24,50.3
		c0,12.1,3.3,23.4,9.8,33.8c6.5,10.4,15.4,18.5,26.6,24.2c10.4,5.3,25.3,9.9,44.9,13.7c10.2-12.2,20.3-24.2,30.1-35.6
		C287.6,494.7,283.1,493.7,278.2,492.8z"/>
	<path class="st0" d="M217.4,577.7c-1.8-2.1-3.6-6-5.3-11.8c-1.7-5.8-4.1-9.9-7.3-12.4c-3.2-2.5-7.1-3.7-11.8-3.7
		c-6.1,0-11,2.1-14.7,6.2s-5.6,11-5.6,20.6v27c0,9.5,1.9,16.3,5.6,20.4c2,2.2,4.4,3.8,7.1,4.8c11.7-16,23.8-31.9,36.1-47.5
		C219.8,580.1,218.5,578.9,217.4,577.7z"/>
	<path class="st0" d="M727.3,433.8v45.5c12.9,14.8,26.4,30.5,40,46.8v-92.3h43.9v37.9c0,9.6,1.9,16.5,5.6,20.6s8.5,6.2,14.4,6.2
		c6,0,10.8-2.1,14.6-6.2s5.6-11,5.6-20.6v-77.9l-202-0.2c10.4,11,23.1,24.6,37.4,40.2H727.3z"/>
	
		<ellipse transform="matrix(0.7071 -0.7071 0.7071 0.7071 47.1962 405.6786)" class="st0" cx="513.3" cy="145.9" rx="145.9" ry="145.9"/>
	<path class="st0" d="M269.1,596.3c17.8,0,32.5-4.2,43.9-12.5c7.3-5.1,10.9-11.3,10.9-18.8c0-4.9-1.8-9.6-5.3-14
		c-3.5-4.4-9.2-8-17.2-10.8c-5.2-2-16.9-4.6-35-8c-1.6-0.3-3.2-0.6-4.8-0.9c-13.4,16.2-27,32.9-40.4,50c3.9,2.9,9.2,5.8,16.1,8.8
		C247.1,594.2,257.7,596.3,269.1,596.3z"/>
	<path class="st0" d="M943.6,785.8c-33.4-78.5-107.3-177.3-176.2-259.7v64.3h27c9.6,0,16.5,1.9,20.6,5.6s6.2,8.6,6.2,14.6
		c0,5.9-2.1,10.6-6.2,14.4s-11,5.6-20.6,5.6h-93.8c-9.6,0-16.5-1.9-20.6-5.6s-6.2-8.6-6.2-14.6c0-5.9,2.1-10.6,6.2-14.4
		s11-5.6,20.6-5.6h26.8V479.3c-14.4-16.5-28.1-31.8-40.6-45.5H684v37.9c0,9.6-1.9,16.5-5.6,20.6s-8.6,6.2-14.6,6.2
		c-5.9,0-10.6-2.1-14.4-6.2s-5.6-11-5.6-20.6v-78.1l5.4,0c-18-18.9-29.3-30.2-30.3-30.9c-25.1-27.1-61.8-40.4-98.8-40.9v-0.1
		c0,0-7,0-7,0v0.1c-37,0.6-73.7,13.9-98.8,40.9c-1.5,0.9-25,24.7-59.2,61.9v26c0,9.6-1.9,16.5-5.6,20.6s-8.5,6.2-14.4,6.2
		c-5,0-9.2-1.5-12.9-4.5c-1.8-1.4-3.3-3.7-4.6-6.8c-8.4,9.5-17.1,19.4-25.9,29.7c13.9,3.2,25.1,6.7,33.5,10.3
		c11,4.8,20.1,12.4,27.4,22.7c7.3,10.3,10.9,22.5,10.9,36.7c0,19.8-7,35.6-20.9,47.5c-18.5,15.6-42.1,23.4-70.7,23.4
		c-11.1,0-21.8-1.3-32.3-4c-10.5-2.7-20.7-6.7-30.6-12c-3.5,4.2-6.3,6.8-8.5,8s-4.8,1.8-7.9,1.8c-2.8,0-5.4-0.5-7.7-1.3
		c-39.9,54.3-75.1,109.4-95.3,157c-17.2,40.4-1.1,78.4,25.9,100.8c-6.7,22.1-6.8,46.9,0.7,70.7c12.9,41.1,46.2,66.7,87,66.7
		c77.9,0,548.3,0,626.7,0c40.7,0,74-25.6,86.9-66.7c7.5-23.9,7.4-48.6,0.7-70.7C944.7,864.2,960.8,826.1,943.6,785.8z M281.3,759.8
		c29.9-48.9,64-93.6,101.1-136.6c0,44.4,1.3,155.3,3.5,165.4C378.4,786.6,308.5,769,281.3,759.8z M568.3,590.4
		c9.6,0,16.5,1.9,20.6,5.6s6.2,8.6,6.2,14.6c0,5.9-2.1,10.6-6.2,14.4s-11,5.6-20.6,5.6H447.4c-9.6,0-16.5-1.9-20.6-5.6
		s-6.2-8.6-6.2-14.6c0-5.9,2.1-10.6,6.2-14.4s11-5.6,20.6-5.6h40.4V433.8h-40.4c-9.6,0-16.5-1.9-20.6-5.6s-6.2-8.6-6.2-14.6
		c0-6,2.1-10.8,6.2-14.6s11-5.6,20.6-5.6l120.9,0.2c9.6,0,16.5,1.8,20.6,5.5c4.1,3.6,6.2,8.5,6.2,14.5c0,6-2.1,10.8-6.2,14.6
		s-11,5.6-20.6,5.6h-40.4v156.6H568.3z M647.7,788.6c2.2-10.1,3.5-121.1,3.5-165.4c37.1,43,71.2,87.7,101.1,136.6
		C725.1,769,655.2,786.6,647.7,788.6z"/>
</g>
</svg>
