<?xml version="1.0" encoding="utf-8"?>
<!-- Generator: Adobe Illustrator 22.0.1, SVG Export Plug-In . SVG Version: 6.00 Build 0)  -->
<svg version="1.1" id="Layer_1" xmlns="http://www.w3.org/2000/svg" xmlns:xlink="http://www.w3.org/1999/xlink" x="0px" y="0px"
	 viewBox="0 0 1024 1024" style="enable-background:new 0 0 1024 1024;" xml:space="preserve">
<style type="text/css">
	.st0{fill:#010002;}
</style>
<g>
	<path class="st0" d="M84.7,438.3c8.7,0,16.3,1.5,22.9,4.4c6.6,3,11.6,6.6,14.9,10.9c1.9,2.5,3.5,6.7,4.8,12.5
		c1.3,5.8,3.1,9.7,5.6,11.6c1.6,1.3,3.4,2.3,5.3,3c1.3-13.7,9.1-22.2,23.4-25.3v-23.5c0-8.3-1.6-14.3-4.9-17.9s-7.4-5.4-12.6-5.4
		c-4.6,0-9.1,2.2-13.7,6.7c-6.3-4.1-13.2-7.1-20.9-9.1c-7.7-2-16-3-25-3c-0.8,0-1.7,0-2.5,0v35C82.9,438.3,83.8,438.3,84.7,438.3z"
		/>
	<path class="st0" d="M159.5,526.6c-6.4-9-14.4-15.6-24-19.8c-9.6-4.2-23.4-8.1-41.4-11.6c-4.5-0.9-8.5-1.7-12.2-2.5v36.6
		c0.7,0.1,1.3,0.3,2,0.4c15.8,3,26,5.3,30.6,7c6.9,2.5,12,5.7,15,9.5c3.1,3.8,4.6,7.9,4.6,12.2c0,6.5-3.2,12-9.6,16.4
		c-1.6,1.2-3.3,2.2-5,3.2h46.4c2-5.9,3-12.3,3-19.3C169.1,546.3,165.9,535.6,159.5,526.6z"/>
	<path class="st0" d="M280.5,443.6H301c8.4,0,14.4-1.6,18-4.9c3.6-3.2,5.4-7.5,5.4-12.7c0-5.2-1.8-9.5-5.4-12.6
		c-3.6-3.2-9.6-4.8-18-4.8l-73.8-0.2c-4.6,1-9.3,1.5-14.2,1.6c-2.4,0.8-4.4,1.9-5.9,3.3c-3.6,3.2-5.4,7.5-5.4,12.7
		c0,5.2,1.8,9.5,5.4,12.7s9.6,4.9,18,4.9h20.3V454h35V443.6z"/>
	<path class="st0" d="M386.2,529.4c-3.2-3.6-7.4-5.4-12.6-5.4c-5.2,0-9.5,1.8-12.7,5.4c-3.2,3.6-4.9,9.6-4.9,18V578h35v-30.5
		C391.1,539,389.5,533,386.2,529.4z"/>
	<rect x="245.5" y="516" class="st0" width="35" height="62"/>
	<path class="st0" d="M588.7,543.6c-3.2-3.6-7.4-5.4-12.6-5.4c-5.2,0-9.5,1.8-12.7,5.4c-3.2,3.6-4.9,9.6-4.9,18V578h35v-16.4
		C593.6,553.2,592,547.2,588.7,543.6z"/>
	<path class="st0" d="M469.2,529.2H500c0,9.2,0.9,15.2,2.6,17.8c3.5,5.6,8.5,8.4,15,8.4c6.2,0,11-2.7,14.7-8
		c1.8-2.6,2.7-7.7,2.7-15.4V516H434.2v62h35V529.2z"/>
	<path class="st0" d="M679.2,529.2H710c0,9.2,0.9,15.2,2.6,17.8c3.5,5.6,8.5,8.4,15,8.4c6.2,0,11-2.7,14.7-8
		c1.8-2.6,2.7-7.7,2.7-15.4V516H644.2v62h35V529.2z"/>
	<path class="st0" d="M798.8,543.6c-3.2-3.6-7.4-5.4-12.6-5.4c-5.2,0-9.5,1.8-12.7,5.4c-3.2,3.6-4.9,9.6-4.9,18V578h35v-16.4
		C803.6,553.2,802,547.2,798.8,543.6z"/>
	<path class="st0" d="M938.1,544.6c14.1,0,25.5-1.7,34.1-5c8.6-3.4,17-8.4,25.3-15c3.5-2.8,6.5-5.6,9.2-8.5H869.9v62h35v-33.4H938.1
		z"/>
	<path class="st0" d="M940.4,580.6c8.4,0,14.4,1.6,18,4.9c3.6,3.2,5.4,7.5,5.4,12.7c0,5.1-1.8,9.3-5.4,12.6c-3.6,3.2-9.6,4.9-18,4.9
		h-75.9c-8.4,0-14.4-1.6-18-4.9c-3.6-3.2-5.4-7.5-5.4-12.7c0-5.1,1.8-9.3,5.5-12.6c3.6-3.2,9.6-4.9,17.9-4.9h5.5V578h-66.3v37.6
		H638.7c-8.4,0-14.4-1.6-18-4.9c-3.6-3.2-5.4-7.5-5.4-12.7c0-5.1,1.8-9.3,5.5-12.6c3.6-3.2,9.6-4.9,17.9-4.9h5.5V578h-50.6v37.6
		H428.7c-8.4,0-14.4-1.6-18-4.9c-3.6-3.2-5.4-7.5-5.4-12.7c0-5.1,1.8-9.3,5.5-12.6c3.6-3.2,9.6-4.9,17.9-4.9h5.5V578h-43.1v37.6
		H225.1c-8.4,0-14.4-1.6-18-4.9s-5.4-7.5-5.4-12.7c0-5.1,1.8-9.3,5.4-12.6s9.6-4.9,18-4.9h20.3V578h-79.4c-2.9,8.7-8,16.1-15.3,22.3
		c-16.2,13.7-36.8,20.5-61.9,20.5c-9.7,0-19.1-1.2-28.3-3.5c-9.2-2.3-18.1-5.8-26.7-10.5c-3.1,3.6-5.6,6-7.4,7s-4.2,1.5-6.9,1.5
		c-5.4,0-9.7-1.8-12.9-5.4s-4.9-9.5-4.9-17.9v-23.6c0-8.4,1.6-14.4,4.9-18s7.5-5.4,12.9-5.4c4.1,0,7.5,1.1,10.3,3.2
		c2.8,2.2,4.9,5.8,6.4,10.9c1.5,5.1,3,8.5,4.6,10.3c3.3,3.5,9.2,7.1,17.6,10.8c8.4,3.6,17.7,5.5,27.7,5.5c13.1,0,24.3-2.6,33.4-7.7
		H82v-48.7c-18.2-3.5-32-7.6-41.4-12.4c-9.8-5-17.5-12.1-23.2-21.2c-5.7-9.1-8.5-19-8.5-29.6c0-16.7,7-31.4,21-44
		C43.3,410,60.7,403.7,82,403.3V242c0-10.7-4-20.3-12-29c-8-8.7-17.7-13-29-13s-21,4.3-29,13S0,231.3,0,242v582h82V660h860v164h82
		V578H905v2.6H940.4z"/>
	<path class="st0" d="M54.7,447.1c-7.3,5.9-11,12-11,18.4c0,4.3,1.5,8.5,4.5,12.6c3,4,7.4,7.2,13.2,9.5c2.9,1.2,9.8,2.9,20.6,5.2
		v-54.4C70.6,438.7,61.5,441.6,54.7,447.1z"/>
	<rect x="679.2" y="578" class="st0" width="89.4" height="2.6"/>
	<rect x="469.2" y="578" class="st0" width="89.4" height="2.6"/>
	<rect x="280.5" y="578" class="st0" width="75.5" height="2.6"/>
	<path class="st0" d="M227.3,408.4c14-2.9,26.6-9.7,37.7-20.4c15.3-14.7,23-32.3,23-53c0-20.7-7.7-38.3-23-53
		c-15.3-14.7-33.3-22-54-22s-38.3,7.3-53,22c-14.7,14.7-22,32.3-22,53s7.3,38.3,22,53c14.7,14.7,32.3,22,53,22c0.7,0,1.4,0,2,0
		c3.2-1.1,7.3-1.6,12.1-1.6L227.3,408.4z"/>
	<path class="st0" d="M156.7,476.3c-3.2,3.6-7.4,5.4-12.6,5.4c-2.1,0-4.1-0.3-5.9-0.9c-0.1,1.4-0.2,2.8-0.2,4.3
		c0,20.7,12.7,31,38,31h69.5v-62H176c-5.4,0-10.2,0.5-14.4,1.4v2.8C161.6,466.7,159.9,472.7,156.7,476.3z"/>
	<path class="st0" d="M976.3,452.8c-7.2-6.2-17.6-9.2-31-9.2H905v66h32.5c15.3,0,27.4-3.4,36.3-10.3c8.9-6.9,13.4-15.2,13.4-24.9
		C987.2,466.1,983.6,458.9,976.3,452.8z"/>
	<path class="st0" d="M434.2,516v-72.4h-5.5c-8.4,0-14.4-1.6-18-4.9c-3.6-3.2-5.4-7.5-5.4-12.7c0-5.2,1.8-9.5,5.4-12.7
		c3.6-3.2,9.6-4.9,18-4.9l157.2,0.2v53.3c0,8.3-1.6,14.3-4.8,17.9c-3.2,3.6-7.4,5.4-12.6,5.4c-5.2,0-9.5-1.8-12.7-5.3
		c-3.2-3.5-4.9-9.5-4.9-17.9v-18.3h-81.7v50.6H500c0-9.1,0.9-15,2.6-17.6c3.5-5.6,8.5-8.4,15-8.4c5.1,0,9.3,1.8,12.6,5.4
		c3.2,3.6,4.9,9.6,4.9,18V516h109.2v-72.4h-5.5c-8.4,0-14.4-1.6-18-4.9c-3.6-3.2-5.4-7.5-5.4-12.7c0-5.2,1.8-9.5,5.4-12.7
		c3.6-3.2,9.6-4.9,18-4.9l157.2,0.2v53.3c0,8.3-1.6,14.3-4.8,17.9c-3.2,3.6-7.4,5.4-12.6,5.4c-5.2,0-9.5-1.8-12.7-5.3
		c-3.2-3.5-4.9-9.5-4.9-17.9v-18.3h-81.7v50.6H710c0-9.1,0.9-15,2.6-17.6c3.5-5.6,8.5-8.4,15-8.4c5.1,0,9.3,1.8,12.6,5.4
		c3.2,3.6,4.9,9.6,4.9,18V516h124.9v-72.4h-5.5c-8.4,0-14.4-1.6-18-4.9c-3.6-3.2-5.4-7.5-5.4-12.7c0-5.2,1.8-9.5,5.4-12.7
		c3.6-3.2,9.6-4.9,18-4.9l80.7,0.2c23.7,0,42.5,6.5,56.3,19.4c13.8,12.9,20.8,28.7,20.8,47.3c0,10.3-2.3,19.9-7,29.1
		c-2,4-4.9,7.9-8.5,11.8h17.3V416c0-16-5.7-29-17-39c-11.3-10-25.7-16.3-43-19l-594-58h-4c-10.7,0-19.7,3.7-27,11
		c-7.3,7.3-11,16.3-11,27v116h-47.5v62H434.2z"/>
</g>
</svg>
