<?xml version="1.0" encoding="iso-8859-1"?>
<!-- Generator: Adobe Illustrator 18.1.1, SVG Export Plug-In . SVG Version: 6.00 Build 0)  -->
<svg version="1.1" id="Capa_1" xmlns="http://www.w3.org/2000/svg" xmlns:xlink="http://www.w3.org/1999/xlink" x="0px" y="0px"
	 viewBox="0 0 512 512" style="enable-background:new 0 0 512 512;" xml:space="preserve">
<g>
	<g>
		<g>
			<path style="fill:#010002;" d="M471,330v82h41V289H41V121c0-5.336-2-10.169-6-14.5c-4-4.333-8.833-6.5-14.5-6.5
				S10,102.167,6,106.5s-6,9.167-6,14.5v291h41v-82H471z"/>
			<path style="fill:#010002;" d="M105.5,205c10.333,0,19.333-3.667,27-11c7.667-7.334,11.5-16.168,11.5-26.5
				c0-10.335-3.833-19.168-11.5-26.5c-7.667-7.333-16.667-11-27-11s-19.167,3.667-26.5,11s-11,16.167-11,26.5s3.667,19.167,11,26.5
				C86.333,201.333,95.167,205,105.5,205z"/>
			<path style="fill:#010002;" d="M512,258v-50c0-8-2.833-14.5-8.5-19.5c-5.67-5-12.837-8.167-21.5-9.5l-297-29h-2
				c-5.333,0-9.833,1.833-13.5,5.5s-5.5,8.167-5.5,13.5v58H88c-12.667,0-19,5.167-19,15.5S75.333,258,88,258H512z"/>
		</g>
	</g>
</g>
<g>
</g>
<g>
</g>
<g>
</g>
<g>
</g>
<g>
</g>
<g>
</g>
<g>
</g>
<g>
</g>
<g>
</g>
<g>
</g>
<g>
</g>
<g>
</g>
<g>
</g>
<g>
</g>
<g>
</g>
</svg>
