<?xml version="1.0" encoding="utf-8"?>
<!-- Generator: Adobe Illustrator 22.0.1, SVG Export Plug-In . SVG Version: 6.00 Build 0)  -->
<svg version="1.1" id="Layer_1" xmlns="http://www.w3.org/2000/svg" xmlns:xlink="http://www.w3.org/1999/xlink" x="0px" y="0px"
	 viewBox="0 0 1024 1024" style="enable-background:new 0 0 1024 1024;" xml:space="preserve">
<g>
	<path d="M138.5,538.7c0-7.1-1.8-13.2-5.5-18.4c-3.6-5.1-8.2-8.9-13.7-11.3c-5.2-2.3-12.5-4.4-21.9-6.3c-0.1,3.3-0.1,6.6-0.1,9.9
		c0,3.7,0,7.3,0.1,10.9c4.8,1,8.2,1.9,10,2.5c4,1.4,6.8,3.2,8.6,5.4c1.8,2.2,2.6,4.5,2.6,7c0,3.7-1.8,6.8-5.5,9.4
		c-3.9,2.8-8.5,4.7-13.9,5.6c0.7,6.8,1.5,13.5,2.5,20.1c10.3-1.3,19.1-5,26.4-11.2C135,556.5,138.5,548.6,138.5,538.7z"/>
	<path d="M103.3,472.4c3.8,1.7,6.6,3.8,8.5,6.3c1.1,1.4,2,3.8,2.7,7.1c0.7,3.3,1.8,5.5,3.2,6.6c1.8,1.5,4,2.2,6.4,2.2
		c2.9,0,5.3-1,7.2-3.1s2.8-5.5,2.8-10.3v-15c0-4.8-0.9-8.2-2.8-10.2s-4.2-3.1-7.2-3.1c-2.6,0-5.2,1.3-7.8,3.8
		c-3.6-2.3-7.6-4.1-12-5.2c-0.9-0.2-1.8-0.4-2.7-0.6c-1,6.6-1.8,13.3-2.5,20C100.7,471.4,102,471.8,103.3,472.4z"/>
	<path d="M265.6,455.6c-2.1-1.8-5.5-2.7-10.3-2.7l-26.3-0.1c-4.8,0-8.3,0.9-10.3,2.8s-3.1,4.3-3.1,7.3c0,3,1,5.4,3.1,7.3
		s5.5,2.8,10.3,2.8h7.2v58.5c0,3.8-0.8,7.1-2.4,9.8c-2.6,4.2-6,7.5-10.1,9.7c-4.1,2.2-8.5,3.3-13.2,3.3c-7,0-13-2.3-18-6.9
		s-7.5-9.9-7.5-15.9v-58.5h7.2c4.8,0,8.3-0.9,10.3-2.8s3.1-4.3,3.1-7.3c0-3-1-5.4-3.1-7.3s-5.5-2.8-10.3-2.8l-26.3,0.1
		c-4.9,0-8.3,0.9-10.4,2.7c-2,1.8-3,4.2-3,7.2c0,2.9,1,5.3,3,7.2c2,1.9,5.1,2.8,9.4,2.8v56.7c0,7.7,1.2,13.8,3.6,18.4
		c2.4,4.6,5.8,9,10.1,13.2c4.3,4.2,9.2,7.4,14.6,9.6c5.4,2.2,11.2,3.3,17.4,3.3c12.5,0,23.2-4.3,32.1-13
		c8.9-8.7,13.3-19.2,13.3-31.5v-56.7c4.2,0,7.4-0.9,9.4-2.8c2-1.9,3-4.3,3-7.2C268.6,459.8,267.6,457.4,265.6,455.6z"/>
	<path d="M394.7,561.3c0-3.6-1.5-6.5-4.4-8.5c-1.6-1-5-1.6-10.1-1.6c-5.1-7.9-9.1-13.7-12.1-17.4c-4.8-5.8-9.3-10.5-13.6-14.3
		c7.4-4,12.9-8.5,16.5-13.6c3.6-5.1,5.5-10.8,5.5-17c0-10-3.9-18.5-11.7-25.5c-7.8-7-18.7-10.5-32.9-10.5l-45.3-0.1
		c-4.8,0-8.3,0.9-10.3,2.8s-3.1,4.3-3.1,7.3c0,3,1,5.4,3.1,7.3s5.5,2.8,10.3,2.8h3.1v78.3h-3.1c-4.8,0-8.2,0.9-10.3,2.8
		c-2.1,1.9-3.1,4.2-3.1,7.2c0,3,1,5.4,3.1,7.3s5.5,2.8,10.3,2.8h30.4c4.8,0,8.3-0.9,10.3-2.8s3.1-4.2,3.1-7.2c0-3-1-5.4-3.1-7.3
		s-5.5-2.8-10.3-2.8h-7.2V526h19.8c10.7,5.1,24.1,20.2,40.3,45.2h11.4c4.8,0,8.2-0.9,10.3-2.8C393.7,566.6,394.7,564.2,394.7,561.3z
		 M341,503.4c-4.6,1.8-9.7,2.6-15.5,2.6h-15.6v-33.1h22.9c7.7,0,13.6,1.6,17.7,4.8c4,3.2,6.1,6.7,6.1,10.5c0,2.5-1.1,5.1-3.2,7.7
		C351.2,498.5,347.1,501,341,503.4z"/>
	<path d="M415.8,551.2c-4.8,0-8.2,0.9-10.3,2.8c-2.1,1.9-3.1,4.2-3.1,7.2c0,3,1,5.4,3.1,7.3s5.5,2.8,10.3,2.8h43.4
		c4.8,0,8.3-0.9,10.3-2.8s3.1-4.2,3.1-7.2c0-3-1-5.4-3.1-7.3s-5.5-2.8-10.3-2.8H439v-20.6h18.9c8.1,0,14.6-1,19.5-2.9
		c4.9-1.9,9.7-4.8,14.5-8.6c4.7-3.8,8.1-7.7,10.1-11.6c2.7-5.2,4-10.7,4-16.6c0-10.6-4-19.6-11.9-27c-7.9-7.4-18.6-11.1-32.2-11.1
		l-46.1-0.1c-4.8,0-8.3,0.9-10.3,2.8s-3.1,4.3-3.1,7.3c0,3,1,5.4,3.1,7.3s5.5,2.8,10.3,2.8h3.1v78.3H415.8z M439,472.9h23
		c7.7,0,13.6,1.8,17.7,5.3c4.1,3.5,6.2,7.6,6.2,12.3c0,5.5-2.6,10.3-7.7,14.2c-5.1,3.9-12,5.9-20.8,5.9H439V472.9z"/>
	<path d="M526.7,551.2c-4.8,0-8.2,0.9-10.3,2.8c-2.1,1.9-3.1,4.2-3.1,7.2c0,3,1,5.4,3.1,7.3s5.5,2.8,10.3,2.8h30.4
		c4.8,0,8.3-0.9,10.3-2.8s3.1-4.2,3.1-7.2c0-3-1-5.4-3.1-7.3s-5.5-2.8-10.3-2.8h-7.2V526h19.8c10.7,5.1,24.1,20.2,40.3,45.2h11.4
		c4.8,0,8.2-0.9,10.3-2.8c2-1.9,3-4.2,3-7.2c0-3.6-1.5-6.5-4.4-8.5c-1.6-1-5-1.6-10.1-1.6c-5.1-7.9-9.1-13.7-12.1-17.4
		c-4.8-5.8-9.3-10.5-13.6-14.3c7.4-4,12.9-8.5,16.5-13.6c3.6-5.1,5.5-10.8,5.5-17c0-10-3.9-18.5-11.7-25.5
		c-7.8-7-18.7-10.5-32.9-10.5l-45.3-0.1c-4.8,0-8.3,0.9-10.3,2.8s-3.1,4.3-3.1,7.3c0,3,1,5.4,3.1,7.3s5.5,2.8,10.3,2.8h3.1v78.3
		H526.7z M549.9,472.9h22.9c7.7,0,13.6,1.6,17.7,4.8c4,3.2,6.1,6.7,6.1,10.5c0,2.5-1.1,5.1-3.2,7.7c-2.1,2.6-6.2,5.1-12.4,7.4
		c-4.6,1.8-9.7,2.6-15.5,2.6h-15.6V472.9z"/>
	<path d="M720.8,472.9c4.8,0,8.3-0.9,10.3-2.8s3.1-4.3,3.1-7.3c0-3-1-5.4-3.1-7.2c-2.1-1.8-5.5-2.7-10.3-2.7l-60.4-0.1
		c-4.8,0-8.3,0.9-10.3,2.8s-3.1,4.3-3.1,7.3c0,3,1,5.4,3.1,7.3s5.5,2.8,10.3,2.8h20.2v78.3h-20.2c-4.8,0-8.3,0.9-10.3,2.8
		s-3.1,4.2-3.1,7.2c0,3,1,5.4,3.1,7.3s5.5,2.8,10.3,2.8h60.4c4.8,0,8.3-0.9,10.3-2.8s3.1-4.2,3.1-7.2c0-3-1-5.4-3.1-7.3
		s-5.5-2.8-10.3-2.8h-20.2v-78.3H720.8z"/>
	<path d="M839.4,509c-5.5-2.4-13.4-4.6-23.6-6.6c-10.3-2-16.5-3.5-18.7-4.4c-3.3-1.3-5.8-3.1-7.6-5.4c-1.7-2.3-2.6-4.7-2.6-7.2
		c0-3.6,2.1-7.1,6.3-10.5c4.2-3.4,9.9-5,17.1-5c4.9,0,9.3,0.8,13.1,2.5c3.8,1.7,6.6,3.8,8.5,6.3c1.1,1.4,2,3.8,2.7,7.1
		c0.7,3.3,1.8,5.5,3.2,6.6c1.8,1.5,4,2.2,6.4,2.2c2.9,0,5.3-1,7.2-3.1s2.8-5.5,2.8-10.3v-15c0-4.8-0.9-8.2-2.8-10.2
		s-4.2-3.1-7.2-3.1c-2.6,0-5.2,1.3-7.8,3.8c-3.6-2.3-7.6-4.1-12-5.2c-4.4-1.1-9.2-1.7-14.3-1.7c-12.8,0-23.2,3.6-31.3,10.8
		c-8,7.2-12,15.6-12,25.1c0,6.1,1.6,11.7,4.9,16.9c3.3,5.2,7.7,9.2,13.3,12.1c5.6,2.9,13.9,5.3,24.8,7.3c9,1.7,14.9,3,17.5,4
		c4,1.4,6.8,3.2,8.6,5.4c1.8,2.2,2.6,4.5,2.6,7c0,3.7-1.8,6.8-5.5,9.4c-5.7,4.2-13.1,6.3-22,6.3c-5.7,0-11-1-15.8-3.1
		c-4.8-2.1-8.2-4.1-10.1-6.2c-0.9-1-1.8-3-2.6-5.9c-0.8-2.9-2.1-5-3.7-6.2c-1.6-1.2-3.6-1.9-5.9-1.9c-3.1,0-5.5,1-7.4,3.1
		s-2.8,5.5-2.8,10.3v13.5c0,4.8,0.9,8.2,2.8,10.2s4.3,3.1,7.4,3.1c1.6,0,2.9-0.3,4-0.9s2.5-1.9,4.2-4c4.9,2.7,10,4.7,15.3,6
		c5.2,1.3,10.6,2,16.2,2c14.3,0,26.1-3.9,35.4-11.7c7-5.9,10.4-13.8,10.4-23.7c0-7.1-1.8-13.2-5.5-18.4
		C849.5,515.2,844.9,511.4,839.4,509z"/>
	<path d="M910,551.2v-29.4h17.6c0,2.1,0.1,3.9,0.2,5.4c0.2-4.8,0.3-9.7,0.3-14.6c0-5.3-0.1-10.6-0.3-15.9c-0.1,1.4-0.2,3.1-0.2,5
		H910v-28.9h16.2c-0.6-6.7-1.4-13.4-2.4-20.1l-36.9,0c-4.8,0-8.3,0.9-10.3,2.8s-3.1,4.3-3.1,7.3c0,3,1,5.4,3.1,7.3s5.5,2.8,10.3,2.8
		h3.1v78.3h-3.1c-4.8,0-8.2,0.9-10.3,2.8c-2.1,1.9-3.1,4.2-3.1,7.2c0,3,1,5.4,3.1,7.3s5.5,2.8,10.3,2.8H924c0.9-6.6,1.7-13.3,2.3-20
		H910z"/>
	<path d="M512.7,1.3C230.3,1.3,1.3,230.3,1.3,512.7c0,282.4,228.9,511.3,511.3,511.3c282.4,0,511.3-228.9,511.3-511.3
		C1024,230.3,795.1,1.3,512.7,1.3z M512.7,928.1c-208.8,0-381.5-154-411-354.5c-2.9,0.4-5.9,0.6-9,0.6c-5.5,0-10.9-0.7-16.2-2
		c-5.2-1.3-10.3-3.3-15.3-6c-1.8,2.1-3.2,3.4-4.2,4s-2.4,0.9-4,0.9c-3.1,0-5.5-1-7.4-3.1s-2.8-5.5-2.8-10.2v-13.5
		c0-4.8,0.9-8.3,2.8-10.3s4.3-3.1,7.4-3.1c2.3,0,4.3,0.6,5.9,1.9c1.6,1.2,2.8,3.3,3.7,6.2c0.8,2.9,1.7,4.9,2.6,5.9
		c1.9,2,5.2,4.1,10.1,6.2c4.8,2.1,10.1,3.1,15.8,3.1c2.9,0,5.6-0.2,8.1-0.7c-1-9.9-1.6-19.8-1.8-29.9c-2.2-0.5-4.7-1-7.5-1.5
		c-10.9-2-19.2-4.5-24.8-7.3c-5.6-2.9-10-6.9-13.3-12.1c-3.3-5.2-4.9-10.8-4.9-16.9c0-9.6,4-18,12-25.1c8-7.2,18.4-10.8,31.3-10.8
		c4.1,0,8,0.4,11.6,1.1C131.6,250.8,304.2,97.2,512.7,97.2c209.1,0,382.2,154.5,411.2,355.6l52.9,0.1v30.5c0,4.8-0.9,8.2-2.7,10.2
		c-1.8,2.1-4.2,3.1-7.2,3.1c-3,0-5.4-1-7.3-3c-1.9-2-2.8-5.4-2.8-10.3v-10.4h-30.5c0.8,7.9,1.3,15.9,1.6,23.9c0.2-2.4,0.6-4.1,1.3-5
		c2-3.2,4.9-4.8,8.6-4.8c2.9,0,5.3,1,7.2,3.1s2.8,5.5,2.8,10.3v23c0,4.4-0.5,7.3-1.6,8.8c-2.1,3.1-4.9,4.6-8.4,4.6
		c-3.7,0-6.6-1.6-8.6-4.8c-0.6-0.9-1-2.5-1.2-4.7c-0.3,8-0.8,16-1.5,24h34.8v-10.8c0-4.8,0.9-8.3,2.8-10.3s4.3-3.1,7.3-3.1
		c2.9,0,5.3,1,7.2,3.1s2.8,5.5,2.8,10.3v30.9H924C895.6,772.9,722.2,928.1,512.7,928.1z"/>
	<ellipse transform="matrix(5.555224e-03 -1 1 5.555224e-03 -194.5884 1213.1628)" cx="512.7" cy="704.4" rx="127.8" ry="127.8"/>
	<ellipse cx="320.9" cy="352.9" rx="63.9" ry="95.9"/>
	<path d="M73.1,474.9c-4.2,3.4-6.3,6.9-6.3,10.5c0,2.5,0.9,4.9,2.6,7.2c1.7,2.3,4.2,4.1,7.6,5.4c2.2,0.9,8.4,2.4,18.7,4.4
		c0.6,0.1,1.1,0.2,1.7,0.3c0.3-10.7,0.9-21.3,1.9-31.7c-2.8-0.7-5.8-1.1-9.1-1.1C83,469.9,77.3,471.5,73.1,474.9z"/>
	<ellipse cx="704.4" cy="352.9" rx="63.9" ry="95.9"/>
</g>
</svg>
