<?xml version="1.0" encoding="utf-8"?>
<!-- Generator: Adobe Illustrator 22.0.1, SVG Export Plug-In . SVG Version: 6.00 Build 0)  -->
<svg version="1.1" id="Layer_1" xmlns="http://www.w3.org/2000/svg" xmlns:xlink="http://www.w3.org/1999/xlink" x="0px" y="0px"
	 viewBox="0 0 1024 1024" style="enable-background:new 0 0 1024 1024;" xml:space="preserve">
<style type="text/css">
	.st0{fill:#030104;}
</style>
<g>
	<path class="st0" d="M39,393.5v10.9c2.2-3.7,4.6-7.3,7-10.9L39,393.5z"/>
	<path class="st0" d="M835.8,630.5c9.6,0,16.5-1.9,20.6-5.6s6.2-8.5,6.2-14.4c0-6-2.1-10.8-6.2-14.6s-11-5.6-20.6-5.6h-13.9
		c-2.7,13.7-6.6,27-11.4,40H835.8z"/>
	<path class="st0" d="M821.4,433.8h14.5c9.6,0,16.5-1.9,20.6-5.6s6.2-8.6,6.2-14.6c0-6-2.1-10.8-6.2-14.5c-4.1-3.6-11-5.5-20.6-5.5
		l-54.9-0.2c19.5,29.1,33.4,60.9,40.5,94.6V433.8z"/>
	<path class="st0" d="M890.4,504.6c-3.9-3-7.8-5.7-11.8-8l11-9.6c-1.2-15.6-3.8-31-7.6-46l-59.8,51.4c3,15.7,4.6,31.8,4.6,48.2
		c0,0.3,0,0.6,0,0.8l19.2-16.3c10,4,18.7,9.4,25.9,16.1c4.5,4.2,9.2,9.9,14,17.2c3-16.2,4.5-32.8,4.5-49.7
		C890.4,507.4,890.4,506,890.4,504.6z"/>
	<path class="st0" d="M979,624.9c4-3.7,6.1-8.5,6.1-14.4c0-6-2.1-10.8-6.2-14.6c-3.8-3.4-9.9-5.3-18.2-5.5c0.3,11.6,1,25.2,2.3,39.9
		C970.2,629.8,975.6,628,979,624.9z"/>
	<polygon class="st0" points="350.7,526 415.3,526 383.1,446.7 	"/>
	<path class="st0" d="M822.2,492.4c-0.3-1.4-0.6-2.8-0.9-4.3v5L822.2,492.4z"/>
	<path class="st0" d="M821.4,590.4h0.5c3.2-15.9,4.9-32.3,4.9-49l-5.5,4.6V590.4z"/>
	<path class="st0" d="M754.5,624.9c-4.1-3.7-6.2-8.6-6.2-14.6c0-5.9,2.1-10.6,6.3-14.4c4.2-3.7,11-5.6,20.5-5.6h6.3V433.8h-6.3
		c-9.6,0-16.5-1.9-20.6-5.6s-6.2-8.6-6.2-14.6c0-6,2.1-10.8,6.2-14.6s11-5.6,20.6-5.6l5.8,0c-68.6-102.3-207.1-171-367.5-171
		c-160.4,0-298.9,68.6-367.5,170.9l200.4,0.2v77.9c0,9.6-1.9,16.5-5.6,20.6s-8.6,6.2-14.6,6.2c-5.9,0-10.6-2.1-14.4-6.2
		s-5.6-11-5.6-20.6v-37.9h-43.9v156.6h27c9.6,0,16.5,1.9,20.6,5.6s6.2,8.6,6.2,14.6c0,5.9-2.1,10.6-6.2,14.4s-11,5.6-20.6,5.6H95.6
		c-9.6,0-16.5-1.9-20.6-5.6s-6.2-8.6-6.2-14.6c0-5.9,2.1-10.6,6.2-14.4s11-5.6,20.6-5.6h26.8V433.8H79v37.9c0,9.6-1.9,16.5-5.6,20.6
		s-8.6,6.2-14.6,6.2c-5.9,0-10.6-2.1-14.4-6.2s-5.6-11-5.6-20.6v-67.2C14,445.5,0,491.6,0,540.6c0,89,44.5,165.4,114.5,222.6
		c-6.4,57.2-19.1,127.2-57.2,165.4c82.7,0,165.4-50.9,216.2-89c44.5,12.7,89,19.1,139.9,19.1c188.7,0,347.2-95.1,397.1-228.2h-35.4
		C765.4,630.5,758.6,628.6,754.5,624.9z M506.1,624.9c-4,3.7-10.9,5.6-20.5,5.6h-53.9c-9.6,0-16.5-1.9-20.6-5.6s-6.2-8.6-6.2-14.6
		c0-5.9,2.1-10.6,6.2-14.4s11-5.6,20.6-5.6h9.8l-9.6-24.4h-97.3l-9.8,24.4h9.8c9.6,0,16.5,1.9,20.6,5.6s6.2,8.6,6.2,14.6
		c0,5.9-2.1,10.6-6.2,14.4s-11,5.6-20.6,5.6h-53.9c-9.6,0-16.5-1.9-20.6-5.6s-6.2-8.6-6.2-14.6c0-6,2.1-10.9,6.4-14.6
		c4.3-3.8,11.4-5.5,21.3-5.3l62.9-156.6h-26.2c-9.6,0-16.5-1.9-20.6-5.6s-6.2-8.6-6.2-14.6c0-6,2.1-10.8,6.2-14.6s11-5.6,20.6-5.6
		l86.5,0.2l79.7,196.7c9.4,0,15.6,1,18.6,3.1c6,4.3,9,10,9,17C512.2,616.4,510.2,621.2,506.1,624.9z M732.7,630.5H543.1
		c-9.6,0-16.5-1.9-20.6-5.6s-6.2-8.6-6.2-14.6c0-5.9,2.1-10.6,6.2-14.4s11-5.6,20.6-5.6h23.2V433.8h-23.2c-9.6,0-16.5-1.9-20.6-5.6
		s-6.2-8.6-6.2-14.6c0-6,2.1-10.8,6.2-14.6s11-5.6,20.6-5.6l86.7,0.2c9.6,0,16.5,1.8,20.6,5.5c4.1,3.6,6.2,8.5,6.2,14.5
		c0,6-2.1,10.8-6.2,14.6s-11,5.6-20.6,5.6h-23.4v156.6h86.3v-37.9c0-9.6,1.9-16.5,5.6-20.6s8.6-6.2,14.6-6.2
		c5.9,0,10.6,2.1,14.4,6.2s5.6,11,5.6,20.6V630.5z"/>
	<path class="st0" d="M883.9,423.6c-1.6-2.6-2.3-5.8-2.3-9.6c0-6.1,2.1-11.1,6.2-14.8c4.1-3.8,11-5.7,20.6-5.7l40.8,0.2
		c9.6,0,16.5,1.8,20.6,5.5c4.1,3.6,6.2,8.5,6.2,14.5c0,5.9-2.1,10.7-6.2,14.5c-4.1,3.8-10.5,5.7-19.2,5.7l-60.9,53.3
		c0.5,5.8,0.7,11.7,0.8,17.6c9.1,7.1,17.7,16.1,26,27.2c11.8,15.8,22.2,35.3,31.3,58.6h10.7c0.7,0,1.5,0,2.2,0
		c-0.2-6.7-0.3-12.8-0.3-18c38.2-50.9,57.2-101.8,57.2-159c0-178.1-184.4-318-413.4-318c-101.8,0-190.8,25.4-267.1,76.3
		c38.2-12.7,70-12.7,108.1-12.7c218,0,396.6,122.8,436.8,282l10.5-9C888.3,429,885.4,426.2,883.9,423.6z"/>
	<path class="st0" d="M1024,801.4c-41.1-36.5-56-112.4-61.1-171.1c-1.4,0.1-2.9,0.2-4.4,0.2h-36.3c-8.3-19.9-17.5-38.9-27.3-57
		c-3-5.5-6-10.5-8.9-14.9c-10.5,57-38.5,109.3-78.1,153.8C858.6,750.5,941.3,801.4,1024,801.4z"/>
</g>
</svg>
