<?xml version="1.0" encoding="utf-8"?>
<!-- Generator: Adobe Illustrator 22.0.1, SVG Export Plug-In . SVG Version: 6.00 Build 0)  -->
<svg version="1.1" id="Layer_1" xmlns="http://www.w3.org/2000/svg" xmlns:xlink="http://www.w3.org/1999/xlink" x="0px" y="0px"
	 viewBox="0 0 1024 1024" style="enable-background:new 0 0 1024 1024;" xml:space="preserve">
<g>
	<path d="M164.8,473.2c0,7.8,1.5,13.4,4.5,16.7c3,3.3,6.9,5,11.7,5c4.9,0,8.8-1.7,11.8-5c3-3.3,4.5-8.9,4.5-16.7v-63.3l-42.1,0
		c2.3,5.4,3.8,11.2,4.4,17.2c-0.2,5.3-1.2,10.5-3.1,15.4h8.2V473.2z"/>
	<path d="M151,602.2c7.8,0,13.4-1.5,16.7-4.5c3.3-3,5-6.9,5-11.7c0-4.9-1.7-8.8-5-11.8c-3.3-3-8.9-4.5-16.7-4.5h-21.9v-73.8
		c-10.1,17.7-20.9,34.9-32.5,51.6v22.2h-16c-1.8,2.4-3.7,4.8-5.5,7.2c-9.8,12-13.8,18.5-15.2,22.1c3.4,2.1,8.4,3.2,15,3.2H151z"/>
	<path d="M125.5,427.4c0-4.8-5.4-10.1-13.5-17.6l-83.2-0.1v63.5c0,7.8,1.5,13.4,4.5,16.7c3,3.3,6.9,5,11.7,5c4.9,0,8.8-1.7,11.8-5
		c3-3.3,4.5-8.9,4.5-16.7v-30.8h35.2v41.5c9.3-16,18-32.5,26-49.2C123.9,432.4,124.9,430,125.5,427.4z"/>
	<path d="M250.9,439.6l13.8,13.8c3.1-1.8,6.4-3.4,9.7-4.7v-6.3h5.1c0.9,0,1.7,0,2.6-0.1v-15.6c0-6.6,3.8-12.3,9.3-15.2
		c-3.1-1.1-7-1.7-11.8-1.7l-33.2-0.2c-7.8,0-13.4,1.5-16.7,4.5c-3.3,3-5,7-5,11.8c0,4.4,1.5,8.1,4.4,11.1c0.1,0.1,0.3,0.2,0.4,0.3
		c1.5-1,3.2-1.8,5.1-2.3C240.3,433.6,246.6,435.3,250.9,439.6z"/>
	<path d="M365,529.1c-1.6,6.1-4,12-7.2,17.4l13.8,13.8c6.7,6.7,6.7,17.5,0,24.1c-6.7,6.7-17.5,6.7-24.1,0l-13.8-13.8
		c-4.3,2.6-9,4.6-13.8,6.2c-1.8,2.6-2.7,5.6-2.7,9.1c0,4.9,1.7,8.8,5,11.8c3.3,3,8.9,4.5,16.7,4.5h39.8c7.8,0,13.4-1.5,16.7-4.5
		c3.3-3,5-6.9,5-11.7c0-6-2.6-10.7-7.8-14c-2.4-1.6-7.8-2.4-16.2-2.4v-40.6H365z"/>
	<path d="M282.1,577.9c-6.1-1.6-12-4-17.4-7.2l-13.8,13.8c-4.3,4.3-10.6,6-16.5,4.4c-5.9-1.6-10.5-6.2-12.1-12.1
		c-0.1-0.6-0.3-1.1-0.4-1.7c-2.7,2.9-4.1,6.5-4.1,10.8c0,4.9,1.7,8.8,5,11.8c3.3,3,8.9,4.5,16.7,4.5h39.8c1.1,0,2.2,0,3.3-0.1
		c-0.4-1.5-0.7-3.1-0.7-4.7V577.9z"/>
	<path d="M357.8,477.6c3.2,5.4,5.7,11.3,7.2,17.4h11.5v-41.6c-0.4,3.8-2,7.5-4.9,10.4L357.8,477.6z"/>
	<path d="M274.5,488.5c-5.8,6.1-9.4,14.4-9.4,23.5s3.6,17.4,9.4,23.5v-13h57.2c1.1-3.3,1.7-6.8,1.7-10.5c0-8.4-3-16.1-8.1-22h-50.8
		V488.5z"/>
	<path d="M371.6,439.6c2.9,2.9,4.6,6.6,4.9,10.4v-7.7c5.7-0.5,10-2.3,12.9-5.2c2.9-3,4.4-6.7,4.4-11.1c0-4.9-1.7-8.8-5-11.7
		c-3.3-3-8.9-4.4-16.7-4.4l-33.2-0.2c-7.8,0-13.4,1.5-16.7,4.5c-3.3,3-5,7-5,11.8c0,4.9,1.7,8.8,5,11.8c3.3,3,8.9,4.5,16.7,4.5h5.1
		v0.7l3.5-3.5C354.1,433,364.9,433,371.6,439.6z"/>
	<path d="M473.3,442.4h13.8v50.3l17.8-17.8c4-4,9.5-5.6,14.8-4.8v-27.7h32.8c7.8,0,13.4-1.5,16.7-4.5c1-0.9,1.8-1.8,2.5-2.9
		c-13.9-5.9-26.3-14.5-36.6-25.2l-66.9-0.1c2.1,4,4.4,8,6.9,11.8C479.4,428.2,478.6,436.7,473.3,442.4z"/>
	<path d="M434.3,418.3c-1.2,2.3-1.8,4.8-1.8,7.8c0,2.7,0.5,5.1,1.6,7.3l5.2-5.2C437.6,424.9,435.9,421.6,434.3,418.3z"/>
	<path d="M562.1,570.7c-2.7-0.7-5.9-1-9.6-1h-32.8v-61.3l-25,25c-2.1,2.1-4.7,3.6-7.5,4.4v31.9h-32.8c-7.8,0-13.4,1.5-16.7,4.5
		c-3.3,3-5,6.9-5,11.7c0,4.9,1.7,8.8,5,11.8c3.3,3,8.9,4.5,16.7,4.5h98.2c7.8,0,13.4-1.5,16.7-4.5c3.3-3,5-6.9,5-11.7
		c0-3.8-1-7-3.1-9.7C567.5,575.4,564.4,573.4,562.1,570.7z"/>
	<path d="M793,430.6c0.4-1.4,0.6-2.9,0.6-4.5c0-1.2-0.1-2.2-0.3-3.3c-0.9,1.8-1.8,3.6-2.8,5.3L793,430.6z"/>
	<path d="M625.2,443.3v102.6c4.1-0.2,8.3-0.5,12.4-1v-33.8c0-8,5.6-14.9,13.4-16.7c2.3-0.5,4.5-1,6.8-1.6v-21.5l11.5,18
		c10.5-3.6,20.6-8.3,30.2-14.1L670,429.2C656.6,436.9,641.4,441.8,625.2,443.3z"/>
	<path d="M740.9,537.2v3.2l-3-4.7c-0.9-0.6-1.8-1.3-2.6-2.1l-25-25c-7.2,3.9-14.6,7.4-22.1,10.3l53.3,83.5h32.2v-79.4
		c-5.3,4.4-10.8,8.6-16.5,12.6C752.2,538.8,746.1,539.3,740.9,537.2z"/>
	<path d="M712.4,414.2c-3.3,3-5,7-5,11.8c0,4.9,1.7,8.8,5,11.8c3.3,3,8.9,4.5,16.7,4.5h11.7v48.4l8,8c8.8-7.1,17.1-14.9,24.7-23.4
		v-16L757,442.9c-5.7-5.7-6.6-14.5-2.3-21.3c2.5-3.8,4.7-7.7,6.8-11.7l-32.4-0.1C721.3,409.7,715.7,411.2,712.4,414.2z"/>
	<path d="M657.6,576.6c-17.1,3-34.4,4.2-51.6,3.6c-0.6,1.8-1,3.7-1,5.7c0,4.9,1.7,8.8,5,11.8c3.3,3,8.9,4.5,16.7,4.5h42.7
		c7.8,0,13.4-1.5,16.7-4.5c3.3-3,5-6.9,5-11.7c0-4.9-1.7-8.8-5-11.8c-3.3-3-8.9-4.5-16.7-4.5h-1C666,573.2,662.1,575.7,657.6,576.6z
		"/>
	<path d="M858,602.2h13.3c7.8,0,13.4-1.5,16.7-4.5c3.3-3,5-6.9,5-11.7c0-4.9-1.7-8.8-5-11.8c-1.7-1.5-3.9-2.7-6.8-3.4
		c-1.6,2.2-3.3,4.4-4.9,6.6C869.9,585.4,863.8,593.7,858,602.2z"/>
	<path d="M987.5,574.2c-3.3-3-8.9-4.5-16.6-4.5h-8.7c-7.4-18.9-15.9-34.8-25.5-47.6c-4.6-6.1-9.3-11.4-14.1-16
		c-4.6,9.6-9.9,18.9-15.7,28c-0.3,0.5-0.7,1-1,1.6c4.3,5.2,8.7,11.9,13.3,20.3c8,14.7,15.4,30.2,22.2,46.3H971
		c7.8,0,13.4-1.5,16.7-4.5c3.3-3,4.9-6.9,4.9-11.7C992.5,581.2,990.9,577.2,987.5,574.2z"/>
	<path d="M908.4,426.4c0,3.1,0.6,5.7,1.9,7.8c0.1,0.1,0.2,0.2,0.2,0.3c1.3-6.7,2.2-13.4,2.9-20.2c0,0,0,0-0.1,0
		C910.1,417.4,908.4,421.4,908.4,426.4z"/>
	<path d="M859.6,442.4h11.7c7.8,0,13.4-1.5,16.7-4.5c3.3-3,5-7,5-11.8c0-4.9-1.7-8.8-5-11.7c-3.3-3-8.9-4.4-16.7-4.4l-49.4-0.2
		c-7.8,0-13.4,1.5-16.7,4.5c-3.3,3-5,7-5,11.8c0,4.9,1.7,8.8,5,11.8c3.3,3,8.9,4.5,16.7,4.5h5.1v127.3h-5.1
		c-7.7,0-13.3,1.5-16.7,4.5c-3.4,3-5.1,6.9-5.1,11.7c0,4.9,1.7,8.8,5,11.8c2.7,2.4,6.8,3.9,12.4,4.3c9.5-15.7,19.9-30.7,31.4-45
		c3.5-4.7,7-9.5,10.6-14.3v-9l15.5-13.1c1-1.6,2.1-3.2,3.1-4.8c13.2-20.4,22.9-42.7,29-66l-47.6,40.9V442.4z"/>
	<path d="M964.4,442.4c7.1,0,12.3-1.5,15.6-4.6c3.3-3.1,5-7,5-11.7c0-4.9-1.7-8.8-5-11.7c-3.3-3-8.9-4.4-16.7-4.4l-15.2-0.1
		c-1.3,18.9-4.6,37.5-9.9,55.5L964.4,442.4z"/>
	<path d="M817.6,602c-6.8,11.3-13.1,22.9-18.8,34.8c-23.1,52.6-31.7,110.5-24.9,167.6c3.9,36.2,11,72,21.4,106.9
		c5.7,18.4,12.7,36.3,21.2,53.6c4.4,8.5,9.6,16.5,15.5,24c0.2,0.3,0.5,0.6,0.7,0.9H443.8c-11.4-40.5-32-77.8-60.2-109
		c4.5-1.6,8.7-3,12.6-4.4c12.8-4.5,22.4-7.9,27.3-9.4c73.2-23,109.8-56.2,108.8-98.8c-0.2-9.4-8-16.9-17.5-16.7
		c-9.4,0.2-16.9,8-16.7,17.5c0.4,17.6-14,43.2-84.9,65.5c-5,1.6-15,5.1-28.3,9.7c-12.2,4.3-27.3,9.6-43.8,15.2l-0.1,0
		c-48,17.4-97,32.2-146.6,44.3c-16,3.1-31.6-7-35.2-22.9c-3.7-9.6-5.1-19.9-4.1-30.1c0.5-3.5,1.3-7.1,2-10.6
		c3.5-11.8,4-24.4,1.6-36.5c-4.9-15.7-16.4-28.4-31.4-34.9c-1.2-0.7-2.4-1.4-3.6-2.1c1.8-3.7,4-7.3,6.5-10.6
		c2.8-3.6,4.1-8.2,3.5-12.8c-0.6-4.6-3.1-8.7-6.8-11.4c-4.1-3-13.8-10.3-20.9-15.9c0.9-1.6,1.8-3.3,2.7-4.9c2.6-4.6,5.6-10,8.5-16.1
		c5.5-11.9,7.1-25.3,4.6-38.2c-4-20.9-24-31.1-38.6-38.6c-4.9-2.3-9.7-5.1-14.2-8.2c-3.5-2.5-6.9-5.2-10-8.1c0-0.7,0.2-1.5,0.7-2.8
		c-0.6-0.4-1.2-0.8-1.7-1.3c-3.3-3-5-7-5-11.8c0-4.8,1.7-8.6,5-11.7c3.3-3,8.9-4.5,16.7-4.5h5.7c5.5-7.3,10.8-14.7,16-22.2v-63.6
		c-14.6,25.1-30.9,49.3-48.7,72.3c-12.2,15-25.1,32.4-22.5,50.2c3.7,13.5,12.6,24.9,24.7,31.8c5.6,3.9,11.6,7.4,17.8,10.3
		c7.4,3.7,19.7,10,20.5,14.5c1.1,5.8,0.5,11.7-1.9,17.1c-2.5,5.3-5.2,10-7.4,14c-6.3,11.1-16.8,29.6-0.9,42.9
		c3.7,3.3,10,8.2,15.7,12.6c-4.3,7.5-6.2,16.1-5.5,24.7c0.9,6.7,4.6,12.7,10,16.6c3.8,2.7,7.9,5.1,11.9,7.4
		c10,5.7,13.9,8.4,15.3,13.7c0.9,6.9,0.3,14-1.8,20.7c-1,4.5-1.9,8.9-2.5,13.4c-1.7,15.5,0.2,31.2,5.7,45.9
		c8.9,32.4,41.5,52.2,74.3,45.1c48.7-11.8,96.8-26.1,144-43.1c38.4,22.7,62.6,91.2,68.9,116.9c1.9,7.6,8.7,13,16.6,13h431.5
		c5.4,0,10.5-2.6,13.7-6.9c3.2-4.3,4.2-10,2.6-15.1c-4.6-12-11-23.2-19.2-33.2c-4.6-5.9-8.7-12.2-12.3-18.8
		c-7.7-15.7-14.1-32.1-19.3-48.8c-9.8-33-16.5-66.7-20.1-100.9c-6-51,1.7-102.7,22.3-149.8c8.1-16.8,17.5-32.9,27.9-48.3h-36
		C820.4,602.2,819,602.1,817.6,602z"/>
	<path d="M922.6,506c6.3-13.1,11.6-26.7,15.6-40.7L906,493.5C911.8,496.8,917.3,501,922.6,506z"/>
	<path d="M917.3,441c-3.2-2.3-5.4-4.5-6.8-6.5c-1,5.1-2.1,10.2-3.4,15.2L917.3,441z"/>
	<path d="M156.6,442.4h-27.5v53.5c8.5-14.9,16.5-30.2,23.9-45.8C154.4,447.7,155.6,445.1,156.6,442.4z"/>
	<path d="M134.7,384.3c-6.9-6.3-13.4-12.3-14.1-17.5c0.1-4.1,1-8.2,2.7-12c2.8-7.4,6.1-14.7,9.3-22c7-14.3,12.5-29.3,16.5-44.7
		l1.4-6.2c3.6-17.4,8.4-34.6,14.2-51.4c13.4-37.1,34.2-71.1,61.2-99.9c33.1-34.9,83.1-58.7,152.9-72.8
		c52.7-11.5,106.2-19.2,160.1-23c96.6-4.9,179.5,24.1,268.8,94.2c43.4,32,75.1,77.4,90.2,129.2c11.9,44,17.5,89.5,16.5,135.1
		c0,7-0.4,14.1-1.1,21c3.3-3,8.9-4.6,16.7-4.6l17.9,0.1c0.4-5.3,0.6-10.7,0.6-16.1c1-48.9-5-97.7-17.8-144.9
		c-17.3-58.7-53.1-110.1-102-146.7C732.6,26.6,642.6-4.7,537.3,0.7c-55.5,3.8-110.7,11.7-165.1,23.6c-77,15.5-132.9,42.6-171,82.7
		c-30.2,32.1-53.5,70.1-68.5,111.6c-6.3,18.2-11.5,36.7-15.4,55.6l-1.4,6.2c-3.6,13.3-8.4,26.2-14.5,38.5
		c-3.5,7.9-7.1,15.8-10.1,23.9c-3.9,9-5.5,18.9-4.6,28.7c3.5,15.3,12.3,28.8,24.9,38c0.1,0.1,0.2,0.2,0.4,0.3l43.3,0
		C151,399.7,143.9,390.8,134.7,384.3z"/>
	<path d="M900.6,529.8c-5.9-5.4-12.9-9.8-21-13.1l-4.5,3.8c-4.9,7.5-10.1,14.9-15.5,22.2v27h11.7c3.9,0,7.2,0.4,10,1.1
		c8.4-11.3,16.9-23,24.7-35.2C904.1,533.3,902.3,531.4,900.6,529.8z"/>
	<path d="M625.2,569.7v-23.8c-11,0.5-22,0.2-32.9-1v-33.8c0-8-5.6-14.9-13.4-16.7c-18.7-4.1-36.6-11.5-52.7-21.8
		c-2-1.3-4.2-2.1-6.5-2.5v38.3c12.2,6.7,25.1,12,38.5,15.9v35.4c0,4.1,1.5,8,4,11c3,0.8,5.4,1.9,7.1,3.5c0.7,0.7,1.4,1.4,1.9,2.1
		c0.3,0.1,0.7,0.2,1,0.2c11.2,2,22.5,3.2,33.8,3.6c0.8-2.2,2.1-4.1,3.9-5.8C613.2,571.2,618.3,569.7,625.2,569.7z"/>
	<path d="M480.9,498.9c-11.8-9.5-22.5-20.2-32-32l23.9-23.9c0.1-0.1,0.3-0.3,0.4-0.5h-19c-7.8,0-13.4-1.5-16.7-4.5
		c-1.5-1.3-2.6-2.8-3.4-4.5l-19.8,19.8c-5.8,5.8-6.7,15-1.9,21.8c16.4,23.5,36.9,44,60.4,60.4c4.3,3,9.6,3.8,14.3,2.4v-45.1
		L480.9,498.9z"/>
	<path d="M773.5,442.4v17.1l7.4,7.4c-2.4,3-4.8,5.8-7.4,8.7v47.3c16.7-13.9,31.4-29.9,43.9-47.8c4.7-6.8,3.9-16-1.9-21.8L793,430.6
		c-0.7,2.8-2.2,5.2-4.3,7.2C785.3,440.9,780.3,442.4,773.5,442.4z"/>
	<path d="M841.8,276.1h-35.4c-3.9-13.4-9.3-26.2-15.9-38.5l25-25c5.8-5.8,6.7-15,1.9-21.8c-16.4-23.5-36.9-44-60.4-60.4
		c-6.8-4.7-16-3.9-21.8,1.9l-25,25c-12.2-6.7-25.1-12-38.5-15.9V106c0-8.3-5.9-15.3-14.1-16.8c-28.3-5-57.2-5-85.4,0
		c-8.1,1.5-14.1,8.5-14.1,16.8v35.4c-13.4,3.9-26.3,9.3-38.5,15.9l-25-25c-5.8-5.9-15.1-6.7-21.8-1.9c-23.5,16.4-44,36.9-60.4,60.4
		c-4.7,6.8-3.9,16,1.9,21.8l25,25c-6.7,12.2-12,25.1-15.9,38.5H388c-8.3,0-15.3,5.9-16.8,14.1c-5,28.3-5,57.2,0,85.4
		c1.5,8.1,8.5,14.1,16.8,14.1h35.4c2.9,9.8,6.6,19.4,10.9,28.6c0.8-1.5,1.8-2.8,3.2-4c3.3-3,8.9-4.5,16.7-4.5l14,0
		c-6.8-12.9-11.8-26.6-14.9-40.8c-1.7-7.8-8.7-13.4-16.7-13.4h-33.8c-1.6-15.1-1.6-30.3,0-45.3h33.8c8,0,14.9-5.6,16.7-13.4
		c4.1-18.7,11.5-36.5,21.8-52.7c4.3-6.7,3.4-15.6-2.3-21.3l-23.9-23.9c9.5-11.8,20.2-22.5,32-32l23.9,23.9
		c5.7,5.7,14.5,6.6,21.3,2.3c16.1-10.4,34-17.8,52.7-21.8c7.8-1.7,13.4-8.7,13.4-16.7v-33.8c15.1-1.6,30.2-1.6,45.3,0v33.8
		c0,8,5.6,14.9,13.4,16.7c18.7,4.1,36.6,11.5,52.7,21.8c6.8,4.3,15.6,3.4,21.3-2.3l23.9-23.9c11.8,9.5,22.5,20.2,32,32L757,222.8
		c-5.7,5.7-6.6,14.5-2.3,21.3c10.3,16.1,17.7,34,21.8,52.7c1.7,7.8,8.7,13.4,16.7,13.4H827c1.6,15.1,1.6,30.3,0,45.3h-33.8
		c-8,0-14.9,5.6-16.7,13.4c-3.1,14.3-8.2,28-15,40.9l10.3,0c7.8,0,13.4,1.5,16.7,4.4c2.5,2.3,4.1,5.1,4.7,8.5
		c5.4-10.6,9.8-21.7,13.2-33.1h35.4c8.3,0,15.3-5.9,16.8-14.1c5-28.3,5-57.2,0-85.4C857.1,282,850.1,276.1,841.8,276.1z"/>
	<path d="M703.6,472.6c-1.4,0.9-2.8,1.8-4.3,2.6l38.5,60.3c1,0.6,2,1.2,3,1.6v-46.3l-15.9-15.9C719.3,469.2,710.4,468.3,703.6,472.6
		z"/>
	<path d="M657.7,492.8v76.8h10.8c2-2.8,3.2-6.3,3.2-9.9v-35.4c5.5-1.6,11-3.5,16.3-5.6l-18.8-29.4
		C665.4,490.6,661.6,491.8,657.7,492.8z"/>
	<path d="M301.3,426.1c0,4.9-1.7,8.8-5,11.8c-3,2.7-7.7,4.2-14.2,4.5v3.9c-2.6,0.7-5.2,1.5-7.7,2.5v39.8c6.2-6.5,15-10.6,24.7-10.6
		c10.5,0,19.8,4.7,26.1,12.1H344v-46.9l-10.3,10.3c-5.4-3.2-11.3-5.7-17.4-7.2v-19.5c0-9.4-7.6-17.1-17.1-17.1
		c-2.8,0-5.5,0.7-7.8,1.9c2,0.7,3.6,1.6,4.9,2.8C299.6,417.3,301.3,421.2,301.3,426.1z"/>
	<path d="M225.7,572.1c2.5-1.7,7.9-2.5,16.2-2.4V442.4c-5.5-0.5-9.7-2.1-12.6-4.9c-3.4,2.3-5.9,5.7-7,9.8
		c-1.6,5.9,0.1,12.2,4.4,16.5l13.8,13.8c-3.2,5.4-5.7,11.3-7.2,17.4h-19.5c-9.4,0-17.1,7.6-17.1,17.1c0,9.4,7.6,17.1,17.1,17.1h19.5
		c1.6,6.1,4,12,7.2,17.4l-13.8,13.8c-3.9,3.9-5.6,9.4-4.8,14.8C223.1,574,224.3,573,225.7,572.1z"/>
	<path d="M376.5,450.1v3.3C376.6,452.3,376.6,451.2,376.5,450.1z"/>
	<path d="M322.2,574.2c3.4-3,8.9-4.5,16.7-4.5h5.1v-47.1h-12.3c-4.4,13.7-17.3,23.6-32.5,23.6c-9.7,0-18.5-4.1-24.7-10.6v34.1h5.1
		c7.8,0,13.4,1.5,16.7,4.5c3.3,3,5,7,5,11.8c0,4.8-1.7,8.6-5,11.7c-2.8,2.6-7.4,4-13.5,4.4c2.1,7.1,8.6,12.3,16.4,12.3
		c9.4,0,17.1-7.6,17.1-17.1v-19.5c1.2-0.3,2.4-0.7,3.6-1.1C320.5,575.9,321.3,575,322.2,574.2z"/>
	<path d="M384.5,529.1c9.4,0,17.1-7.6,17.1-17.1c0-9.4-7.6-17.1-17.1-17.1h-8v34.1H384.5z"/>
	<path d="M209.8,324.3c1.1,3.4,2.4,6.7,4.1,9.9l-9.2,9.2c-4.3,4.3-6,10.6-4.4,16.5c1.6,5.9,6.2,10.5,12.1,12.1
		c5.9,1.6,12.2-0.1,16.5-4.4l9.3-9.3c3.2,1.7,6.5,3,9.9,4.1v13.1c0,9.4,7.6,17.1,17.1,17.1c9.4,0,17.1-7.6,17.1-17.1v-13.1
		c3.4-1.1,6.7-2.4,9.9-4.1l9.3,9.3c6.7,6.7,17.5,6.7,24.1,0c6.7-6.7,6.7-17.5,0-24.1l-9.2-9.2c1.7-3.2,3.1-6.5,4.1-9.9h13.1
		c9.4,0,17.1-7.6,17.1-17.1c0-9.4-7.6-17.1-17.1-17.1h-13.1c-1.1-3.4-2.4-6.7-4.1-9.9l9.2-9.2c4.3-4.3,6-10.6,4.4-16.5
		c-1.6-5.9-6.2-10.5-12.1-12.1c-5.9-1.6-12.2,0.1-16.5,4.4l-9.3,9.3c-3.2-1.7-6.5-3-9.9-4.1V239c0-9.4-7.6-17.1-17.1-17.1
		S248,229.6,248,239v13.1c-3.4,1.1-6.7,2.4-9.9,4.1l-9.3-9.3c-6.7-6.7-17.5-6.7-24.1,0c-6.7,6.7-6.7,17.5,0,24.1l9.2,9.2
		c-1.7,3.2-3.1,6.5-4.1,9.9h-13.1c-9.4,0-17.1,7.6-17.1,17.1c0,9.4,7.6,17.1,17.1,17.1L209.8,324.3L209.8,324.3z M258.9,284.2
		c10.4-2.8,21.5,1.8,26.9,11.1c5.4,9.4,3.9,21.2-3.8,28.9c-6.8,6.8-17.1,8.9-26,5.2s-14.8-12.4-14.8-22.1
		C241.1,296.4,248.4,287,258.9,284.2z"/>
	<path d="M625.2,443.3v-0.9h-5.1c-7.8,0-13.4-1.5-16.7-4.5c-3.3-3-5-7-5-11.8c0-4.9,1.7-8.8,5-11.8c3.3-3,8.9-4.5,16.7-4.5l37.6,0.2
		l12.3,19.3c33.4-19.1,55.8-55.1,55.8-96.3c0-61.3-49.7-110.9-110.9-110.9S504,271.6,504,332.9c0,29.9,11.9,57,31.2,77l17.4,0
		c7.8,0,13.4,1.5,16.7,4.4c3.3,3,5,6.9,5,11.7c0,3.5-0.9,6.4-2.5,8.9c13.3,5.6,27.9,8.8,43.2,8.8
		C618.4,443.8,621.8,443.6,625.2,443.3z M538.1,332.9c0-42.4,34.4-76.7,76.8-76.8c42.4,0,76.8,34.4,76.8,76.8
		c0,42.4-34.4,76.8-76.8,76.8C572.5,409.7,538.1,375.3,538.1,332.9z"/>
</g>
</svg>
