<?xml version="1.0" encoding="iso-8859-1"?>
<!-- Generator: Adobe Illustrator 19.0.0, SVG Export Plug-In . SVG Version: 6.00 Build 0)  -->
<svg version="1.1" id="Capa_1" xmlns="http://www.w3.org/2000/svg" xmlns:xlink="http://www.w3.org/1999/xlink" x="0px" y="0px"
	 viewBox="0 0 512.007 512.007" style="enable-background:new 0 0 512.007 512.007;" xml:space="preserve">
<g transform="translate(0 -1)">
	<g>
		<g>
			<path d="M477.994,125.391c-8.63-29.327-26.529-55.069-51.016-73.371c-48.142-37.762-93.15-53.416-145.8-50.725
				c-27.764,1.917-55.351,5.858-82.542,11.792c-38.5,7.75-66.458,21.283-85.492,41.375C98.051,70.534,86.401,89.521,78.91,110.257
				c-3.164,9.087-5.741,18.367-7.717,27.783l-0.717,3.088c-1.793,6.635-4.215,13.084-7.233,19.258
				c-1.775,3.958-3.541,7.921-5.058,11.95c-1.971,4.515-2.762,9.457-2.3,14.362c1.732,7.627,6.151,14.376,12.45,19.012
				c4.183,3.833,6.933,6.525,6.958,8.975c-0.331,1.276-0.833,2.501-1.492,3.642c-10.22,21.542-22.743,41.913-37.35,60.758
				c-6.125,7.479-12.55,16.204-11.25,25.087c1.859,6.729,6.305,12.45,12.367,15.913c2.821,1.961,5.797,3.688,8.9,5.163
				c3.683,1.875,9.85,5.021,10.275,7.267c0.562,2.882,0.236,5.866-0.934,8.558c-1.267,2.671-2.583,4.979-3.717,6.983
				c-3.133,5.542-8.383,14.817-0.467,21.454c1.842,1.629,4.992,4.105,7.875,6.308c-2.135,3.75-3.093,8.056-2.75,12.358
				c0.461,3.339,2.279,6.34,5.025,8.296c1.908,1.354,3.95,2.533,5.975,3.692c5.017,2.859,6.975,4.192,7.65,6.854
				c0.448,3.475,0.133,7.006-0.925,10.346c-0.492,2.237-0.975,4.475-1.275,6.708c-0.857,7.761,0.122,15.616,2.859,22.929
				c4.428,16.203,20.758,26.112,37.175,22.558c24.367-5.876,48.399-13.063,71.991-21.529c19.183,11.329,31.3,45.617,34.458,58.475
				c0.942,3.814,4.363,6.496,8.292,6.5h215.75c2.705-0.001,5.25-1.284,6.859-3.459c1.609-2.175,2.091-4.984,1.3-7.57
				c-2.279-6.014-5.524-11.616-9.609-16.583c-2.313-2.949-4.37-6.09-6.15-9.388c-3.845-7.873-7.068-16.034-9.642-24.408
				c-4.879-16.48-8.245-33.371-10.058-50.462c-3.017-25.518,0.835-51.378,11.158-74.908c6.317-13.023,14.088-25.289,23.167-36.563
				c5.158-6.938,10.483-14.112,15.283-21.679c13.47-20.925,20.713-45.248,20.883-70.133
				C487.429,173.396,484.424,148.993,477.994,125.391z M469.852,197.611c-0.144,21.733-6.471,42.976-18.242,61.246
				c-4.458,7.025-9.591,13.942-14.558,20.634c-9.854,12.308-18.278,25.697-25.108,39.908
				c-11.542,26.321-15.844,55.247-12.459,83.788c1.931,18.105,5.51,35.995,10.692,53.45c2.829,9.197,6.367,18.16,10.583,26.808
				c2.216,4.232,4.807,8.256,7.742,12.025c0.117,0.154,0.233,0.313,0.341,0.471H234.436c-5.683-20.253-15.98-38.914-30.083-54.521
				c2.233-0.779,4.35-1.521,6.317-2.213c6.391-2.237,11.208-3.929,13.633-4.692c36.583-11.483,54.883-28.108,54.383-49.417
				c-0.11-4.713-4.021-8.444-8.733-8.333s-8.444,4.021-8.333,8.733c0.208,8.792-6.983,21.608-42.442,32.738
				c-2.517,0.796-7.525,2.542-14.15,4.867c-6.117,2.142-13.65,4.779-21.892,7.596l-0.05,0.017
				c-24.02,8.692-48.492,16.081-73.308,22.133c-7.993,1.551-15.776-3.511-17.6-11.446c-1.847-4.793-2.552-9.95-2.058-15.063
				c0.233-1.766,0.633-3.533,1.025-5.3c1.75-5.92,2.022-12.179,0.792-18.229c-2.445-7.837-8.188-14.217-15.725-17.471
				c-0.608-0.346-1.225-0.696-1.825-1.05c0.911-1.866,2.005-3.638,3.267-5.287c1.423-1.813,2.051-4.124,1.742-6.408
				c-0.309-2.283-1.53-4.345-3.383-5.714c-2.05-1.513-6.925-5.167-10.433-7.967c0.433-0.796,0.925-1.667,1.375-2.454
				c1.308-2.317,2.808-4.987,4.267-8.05c2.731-5.969,3.532-12.642,2.292-19.088c-1.992-10.462-11.992-15.558-19.292-19.283
				c-2.474-1.171-4.846-2.545-7.092-4.108c-1.773-1.231-3.453-2.592-5.025-4.071c0.025-1.283,1.358-4.404,7.925-12.417
				c15.251-19.659,28.324-40.914,38.992-63.392c2.054-3.521,3.202-7.497,3.342-11.571c-0.868-8.597-5.43-16.391-12.5-21.358
				c-3.45-3.158-6.708-6.142-7.075-8.758c0.032-2.073,0.498-4.117,1.367-6c1.4-3.721,3.042-7.362,4.667-11.008
				c3.48-7.165,6.252-14.654,8.275-22.359l0.725-3.112c1.815-8.714,4.186-17.302,7.1-25.713
				c6.695-18.568,17.11-35.574,30.608-49.975c16.533-17.45,41.55-29.35,76.475-36.379c26.37-5.762,53.124-9.6,80.05-11.483
				c48.3-2.429,89.733,12.071,134.409,47.121c21.707,16.012,37.557,38.707,45.117,64.6
				C467.554,152.063,470.341,174.813,469.852,197.611z"/>
			<path d="M433.444,139.011h-17.692c-1.965-6.677-4.639-13.125-7.975-19.233l12.517-12.517c2.925-2.924,3.333-7.524,0.967-10.917
				c-8.204-11.771-18.429-21.995-30.2-30.2c-3.389-2.374-7.995-1.968-10.917,0.962l-12.517,12.517
				c-6.111-3.337-12.562-6.011-19.242-7.975V53.953c-0.002-4.133-2.965-7.671-7.033-8.4c-14.13-2.492-28.587-2.492-42.717,0
				c-4.069,0.729-7.031,4.267-7.033,8.4v17.696c-6.68,1.964-13.131,4.638-19.242,7.975l-12.517-12.517
				c-2.922-2.93-7.527-3.336-10.917-0.962c-11.771,8.204-21.996,18.429-30.2,30.2c-2.366,3.392-1.959,7.993,0.967,10.917
				l12.517,12.517c-3.336,6.108-6.01,12.556-7.975,19.233h-17.691c-4.134-0.001-7.674,2.963-8.4,7.033
				c-2.511,14.131-2.511,28.594,0,42.725c0.726,4.07,4.266,7.034,8.4,7.033h17.692c1.965,6.677,4.639,13.125,7.975,19.233
				l-12.517,12.517c-2.925,2.924-3.333,7.524-0.967,10.917c8.204,11.771,18.429,21.996,30.2,30.2
				c3.393,2.362,7.99,1.957,10.917-0.962l12.517-12.517c6.111,3.337,12.562,6.011,19.242,7.975v17.696
				c0.002,4.133,2.965,7.671,7.033,8.4c14.129,2.506,28.588,2.506,42.717,0c4.069-0.729,7.031-4.267,7.033-8.4v-17.696
				c6.68-1.964,13.131-4.638,19.242-7.975l12.517,12.517c2.926,2.92,7.524,3.326,10.917,0.962c11.771-8.204,21.996-18.429,30.2-30.2
				c2.366-3.392,1.959-7.993-0.967-10.917l-12.517-12.517c3.336-6.109,6.01-12.556,7.975-19.233h17.692
				c4.134,0.001,7.674-2.963,8.4-7.033c2.511-14.131,2.511-28.594,0-42.725C441.118,141.975,437.578,139.011,433.444,139.011z
				 M426.053,178.737h-16.918c-4.007-0.001-7.474,2.787-8.333,6.7c-2.046,9.358-5.743,18.276-10.917,26.338
				c-2.175,3.374-1.7,7.81,1.142,10.646l11.975,11.975c-4.744,5.903-10.115,11.273-16.017,16.017l-11.975-11.971
				c-2.836-2.837-7.265-3.316-10.642-1.15c-8.064,5.18-16.987,8.879-26.35,10.925c-3.913,0.861-6.7,4.327-6.7,8.333v16.917
				c-7.528,0.808-15.122,0.808-22.65,0v-16.917c0-4.006-2.787-7.473-6.7-8.333c-9.363-2.046-18.286-5.745-26.35-10.925
				c-3.374-2.175-7.81-1.695-10.642,1.15l-11.975,11.971c-5.903-4.744-11.273-10.115-16.017-16.017l11.975-11.975
				c2.841-2.836,3.317-7.271,1.142-10.646c-5.174-8.061-8.871-16.98-10.917-26.338c-0.859-3.913-4.327-6.701-8.333-6.7h-16.916
				c-0.811-7.531-0.811-15.127,0-22.658v0h16.917c4.007,0.001,7.474-2.787,8.333-6.7c2.046-9.358,5.743-18.276,10.917-26.338
				c2.175-3.374,1.7-7.809-1.142-10.646l-11.975-11.975c4.744-5.903,10.115-11.273,16.017-16.017l11.975,11.971
				c2.832,2.844,7.267,3.324,10.642,1.15c8.064-5.18,16.987-8.879,26.35-10.925c3.913-0.861,6.7-4.327,6.7-8.333V61.349
				c7.528-0.808,15.122-0.808,22.65,0v16.917c0,4.006,2.787,7.473,6.7,8.333c9.363,2.046,18.286,5.745,26.35,10.925
				c3.377,2.165,7.805,1.686,10.642-1.15l11.975-11.971c5.903,4.744,11.273,10.115,16.017,16.017l-11.975,11.975
				c-2.841,2.836-3.317,7.271-1.142,10.646c5.174,8.061,8.871,16.98,10.917,26.338c0.859,3.913,4.327,6.701,8.333,6.7h16.917
				C426.864,163.609,426.864,171.206,426.053,178.737z"/>
			<path d="M204.794,248.474h-9.746c-0.795-3.055-2.015-5.983-3.625-8.698l6.904-6.906c3.332-3.332,3.332-8.734,0-12.067
				c-3.332-3.332-8.734-3.332-12.067,0l-6.905,6.906c-2.715-1.608-5.642-2.828-8.695-3.624v-9.745c0-4.713-3.821-8.533-8.533-8.533
				s-8.533,3.821-8.533,8.533v9.745c-3.054,0.796-5.981,2.016-8.695,3.624l-6.904-6.906c-2.155-2.156-5.297-2.997-8.242-2.208
				c-2.945,0.789-5.244,3.089-6.033,6.033c-0.789,2.944,0.053,6.086,2.208,8.242l6.904,6.906c-1.61,2.715-2.83,5.643-3.625,8.698
				h-9.746c-4.713,0-8.533,3.82-8.533,8.533s3.82,8.533,8.533,8.533h9.746c0.795,3.055,2.015,5.983,3.625,8.698l-6.904,6.906
				c-2.155,2.156-2.997,5.297-2.208,8.242c0.789,2.944,3.089,5.244,6.033,6.033c2.944,0.789,6.086-0.053,8.242-2.208l6.904-6.906
				c2.715,1.608,5.642,2.828,8.696,3.624v9.745c0,4.713,3.82,8.533,8.533,8.533s8.533-3.82,8.533-8.533v-9.745
				c3.054-0.796,5.981-2.016,8.695-3.624l6.904,6.906c3.332,3.332,8.734,3.332,12.067,0c3.332-3.332,3.332-8.735,0-12.067
				l-6.904-6.906c1.61-2.715,2.83-5.643,3.625-8.698h9.746c4.713,0,8.533-3.82,8.533-8.533S209.507,248.474,204.794,248.474z
				 M162.127,274.074c-9.426,0-17.067-7.641-17.067-17.067s7.641-17.067,17.067-17.067c9.426,0,17.067,7.641,17.067,17.067
				C179.183,266.428,171.548,274.063,162.127,274.074z"/>
			<path d="M117.457,163.141c0.526,1.712,1.213,3.371,2.051,4.954l-4.615,4.617c-2.155,2.156-2.997,5.297-2.208,8.242
				c0.789,2.944,3.089,5.244,6.033,6.033c2.944,0.789,6.086-0.053,8.242-2.208l4.628-4.63c1.579,0.834,3.232,1.519,4.938,2.046
				v6.547c0,4.713,3.82,8.533,8.533,8.533s8.533-3.82,8.533-8.533v-6.547c1.706-0.526,3.359-1.211,4.938-2.046l4.629,4.631
				c3.332,3.332,8.735,3.332,12.067,0s3.332-8.735,0-12.067l-4.616-4.618c0.839-1.583,1.526-3.241,2.052-4.953h6.53
				c4.713,0,8.533-3.821,8.533-8.533c0-4.713-3.82-8.533-8.533-8.533h-6.53c-0.526-1.712-1.213-3.37-2.052-4.953l4.616-4.618
				c2.156-2.156,2.997-5.297,2.208-8.242c-0.789-2.944-3.089-5.244-6.033-6.033c-2.944-0.789-6.086,0.053-8.242,2.208l-4.629,4.631
				c-1.579-0.834-3.232-1.518-4.938-2.044v-6.549c0-4.713-3.82-8.533-8.533-8.533s-8.533,3.82-8.533,8.533v6.55
				c-1.706,0.526-3.359,1.21-4.938,2.044l-4.629-4.632c-3.332-3.332-8.734-3.332-12.067,0c-3.332,3.332-3.332,8.734,0,12.067
				l4.616,4.618c-0.839,1.583-1.526,3.241-2.052,4.953h-6.53c-4.713,0-8.533,3.821-8.533,8.533c0,4.713,3.821,8.533,8.533,8.533
				H117.457z M141.965,143.061c5.224-1.401,10.739,0.882,13.444,5.566c2.705,4.684,1.927,10.601-1.898,14.426
				c-3.416,3.419-8.557,4.443-13.023,2.594c-4.466-1.849-7.378-6.207-7.378-11.04C133.109,149.198,136.741,144.462,141.965,143.061z
				"/>
			<path d="M319.994,111.941c-30.633,0-55.467,24.833-55.467,55.467c0.035,30.619,24.848,55.431,55.467,55.467
				c30.633,0,55.467-24.833,55.467-55.467C375.461,136.774,350.627,111.941,319.994,111.941z M319.994,205.807
				c-21.208,0-38.4-17.192-38.4-38.4c0.023-21.198,17.202-38.377,38.4-38.4c21.208,0,38.4,17.192,38.4,38.4
				C358.394,188.615,341.202,205.807,319.994,205.807z"/>
		</g>
	</g>
</g>
<g>
</g>
<g>
</g>
<g>
</g>
<g>
</g>
<g>
</g>
<g>
</g>
<g>
</g>
<g>
</g>
<g>
</g>
<g>
</g>
<g>
</g>
<g>
</g>
<g>
</g>
<g>
</g>
<g>
</g>
</svg>
