<?xml version="1.0" encoding="utf-8"?>
<!-- Generator: Adobe Illustrator 22.0.1, SVG Export Plug-In . SVG Version: 6.00 Build 0)  -->
<svg version="1.1" id="Layer_1" xmlns="http://www.w3.org/2000/svg" xmlns:xlink="http://www.w3.org/1999/xlink" x="0px" y="0px"
	 viewBox="0 0 1024 1024" style="enable-background:new 0 0 1024 1024;" xml:space="preserve">
<g>
	<path d="M115.3,470.3h16v26c0,4.1,0.5,7.4,1.4,10l20.1-63.6l-10.8,0l-9.4,1.9L115.3,470.3z"/>
	<path d="M36.7,498.2l7-13.1v-14.8h7.9l2.4-4.4l12.6-23.2l-50.4,0v53.7c0,6.6,1.3,11.3,3.8,14.2c2.2,2.4,4.9,3.8,8.2,4.1l0,0
		L36.7,498.2z"/>
	<path d="M111.6,582.6c0-1.5,0.1-3.1,0.3-4.6h-10.9v-86.6l-1.4,2.1l-20,30.1l-6.1,9.3V578H55.1c-6.6,0-11.3,1.3-14.2,3.8
		c-2.8,2.6-4.2,5.8-4.2,9.9c0,4.1,1.4,7.5,4.2,10c2.8,2.6,7.5,3.8,14.2,3.8h53.8l1.2-14.8C110.4,587.9,110.9,585.2,111.6,582.6z"/>
	<path d="M282.8,538.1h0.1V578h-4.3c-3.4,0-6.3,0.4-8.8,1.1l-6.7,21.2c0.4,0.5,0.8,1,1.3,1.4c2.8,2.6,7.5,3.8,14.2,3.8h33.7
		c6.6,0,11.3-1.3,14.2-3.8c2.8-2.6,4.2-5.8,4.2-9.9c0-5.1-2.2-9-6.6-11.8c-2.1-1.3-6.6-2-13.7-2v-82.2l-10.7-11L282.8,538.1z"/>
	<path d="M389.4,474.4v-4h31.6c10.7,0,18.8,2.2,24.3,6.6c5.5,4.4,8.3,9.2,8.3,14.4c0,3.5-1.5,7-4.4,10.6c-0.2,0.3-0.4,0.5-0.7,0.8
		L474,515c4.7-6.8,7-14.4,7-22.7c0-13.8-5.3-25.5-16-35.1c-10.7-9.6-25.8-14.4-45.2-14.4l-62.3-0.1c-4.1,0-7.4,0.5-10.1,1.5
		l13.2,16.5L389.4,474.4z"/>
	<path d="M505.2,586.7c-0.9-2.6-2.7-4.8-5.2-6.5c-2.2-1.4-6.8-2.1-13.8-2.1c-2.5-3.9-4.8-7.4-7-10.6c-1.8-0.2-3.6-0.6-5.3-1.3
		l-50.6-18.9c13.5,9.4,29.7,28.8,48.8,58.2h15.7c6.6,0,11.3-1.3,14.1-3.8c1.5-1.4,2.6-3,3.3-4.9c-0.6-1.5-0.9-3.2-0.9-5.1
		C504.3,589.9,504.6,588.2,505.2,586.7z"/>
	<path d="M361.8,578h-4.3c-6.5,0-11.2,1.3-14.1,3.8c-2.9,2.6-4.3,5.8-4.3,9.9c0,4.1,1.4,7.5,4.2,10c2.8,2.6,7.5,3.8,14.2,3.8h41.8
		c6.6,0,11.3-1.3,14.2-3.8c2.8-2.6,4.2-5.8,4.2-9.9c0-4.1-1.4-7.5-4.2-10c-2.8-2.6-7.5-3.8-14.2-3.8h-9.9v-34.6h23.4l-50.9-19V578z"
		/>
	<path d="M584.6,449.9l-0.2-0.3l-26,20.7h24.2C584.8,463.7,585.7,456.9,584.6,449.9z"/>
	<path d="M522.7,442.6c-6.6,0-11.3,1.3-14.2,3.8c-2.8,2.6-4.2,5.9-4.2,10c0,4.1,1.4,7.5,4.2,10c2.8,2.6,7.5,3.8,14.2,3.8h4.3v18.2
		l57.7-45.8L522.7,442.6z"/>
	<path d="M554.5,507.4v-7l-22.8-2.6l0.3-2.7l22.5,2.6v-24.3L527,495.2v5.8l23.5,2.7l-0.3,2.7l-23.2-2.7v23.8
		c5.6-3.4,13.1-8.4,20.9-14.6C550.1,511.2,552.3,509.3,554.5,507.4z"/>
	<path d="M589.6,448.4c1.4,7.5,0.6,14.9-1.6,21.9h30.7v14.4c0,6.6,1.3,11.3,3.8,14.1c2.6,2.8,5.9,4.2,10,4.2c4.1,0,7.4-1.4,9.9-4.2
		c2.5-2.8,3.8-7.5,3.8-14v-41.9l-60.8-0.1l4,5L589.6,448.4z"/>
	<path d="M638.6,544.7c-4.1,0-7.5,1.4-10,4.2c-2.6,2.8-3.8,7.5-3.8,14.2V578h-70.2v-40.4h24.2c0,7.3,0.7,11.9,2,14
		c2.8,4.4,6.7,6.6,11.8,6.6c4.8,0,8.7-2.1,11.5-6.3c1.4-2.1,2.1-6.1,2.1-12.1V508c0-6.6-1.3-11.3-3.8-14.2c-2.6-2.8-5.8-4.2-9.9-4.2
		c-5.1,0-9,2.2-11.8,6.6c-1.3,2.1-2,6.7-2,13.8h-19.3c-2.7,2.5-5.5,4.8-8.2,6.9c-9.5,7.5-18.4,13.2-24.2,16.6V578h-4.3
		c-6.5,0-11.2,1.3-14.1,3.8c-1.6,1.4-2.7,3-3.4,4.9c0.6,1.6,0.8,3.3,0.8,5.2c0,1.8-0.3,3.5-0.9,5c0.7,1.9,1.8,3.5,3.3,4.9
		c2.8,2.6,7.5,3.8,14.2,3.8h129.6v-42.4c0-6.6-1.3-11.3-3.8-14.2C645.9,546.1,642.6,544.7,638.6,544.7z"/>
	<path d="M764,445.4l-71.2,6.3l-2.5,0.2c-1.5,0.1-3.1,0.1-4.6,0c-0.4,1.4-0.7,2.9-0.7,4.5c0,4.1,1.4,7.5,4.2,10
		c2.8,2.6,7.5,3.8,14.2,3.8h18L678.2,578c-6.8-0.2-11.7,1-14.6,3.6c-3,2.6-4.4,6-4.4,10.1c0,4.1,1.4,7.5,4.2,10
		c2.8,2.6,7.5,3.8,14.2,3.8h37.1c6.6,0,11.3-1.3,14.2-3.8c2.8-2.6,4.2-5.8,4.2-9.9c0-4.1-1.4-7.5-4.2-10c-2.8-2.6-7.5-3.8-14.2-3.8
		h-6.7l6.7-16.8h62.3L768,455.3L764,445.4z M725.6,533.7l22.3-54.5l22.2,54.5H725.6z"/>
	<path d="M767.1,581.8c-2.8,2.6-4.2,5.8-4.2,9.9c0,4.1,1.4,7.5,4.2,10c2.7,2.5,7.2,3.7,13.5,3.8l-2.3-27.4
		C773.2,578.4,769.5,579.7,767.1,581.8z"/>
	<path d="M933.2,605.5h11.6c6.6,0,11.3-1.3,14.2-3.8c2.8-2.6,4.2-5.8,4.2-9.9c0-4.1-1.4-7.5-4.2-10c-2.8-2.6-7.5-3.8-14.2-3.8h-13.3
		l1.5,18.4C933.3,599.5,933.3,602.5,933.2,605.5z"/>
	<path d="M926.2,470.3h30.2v26c0,6.6,1.3,11.3,3.8,14.2c2.6,2.8,5.8,4.2,9.9,4.2c4.1,0,7.5-1.4,10-4.2c2.6-2.8,3.8-7.5,3.8-14.2
		v-53.6l-63.8-0.1l6.1,72.6V470.3z"/>
	<path d="M899.5,447.8l-39.8,2.5l3.3,53.1l5.4-0.3c0.4-2,0.6-4.2,0.6-6.7v-26h29.8v30.9l4.1-0.3L899.5,447.8z"/>
	<path d="M518.6,234.3c14.7,4.5,30.9,7,48,7c67.1,0,121.6-38.8,121.6-86.6c0-47.9-54.4-86.6-121.6-86.6s-121.6,38.8-121.6,86.6
		c0,14.9,5.2,28.9,14.5,41.1c1.5,2,3.2,3.9,4.9,5.8c2.9,16.1,6.3,56.7-28.1,79.7C401.7,304.2,473.4,261.6,518.6,234.3z M593,149.8
		c-9.6-3.7-15.4-8-15.4-16.2c0-7.8,5.5-13.7,14.1-15.1v-9.4h5.8v9.1c5.6,0.2,9.5,1.7,12.2,3.3l-2.3,6.2c-2-1.1-5.8-3.2-11.8-3.2
		c-7.2,0-9.9,4.3-9.9,8c0,4.9,3.4,7.3,11.6,10.7c9.7,3.9,14.5,8.8,14.5,17.1c0,7.4-5.1,14.3-14.8,15.9v9.7h-5.9v-9.5
		c-5.4-0.1-11-1.8-14.3-4.1l2.2-6.3c3.4,2.2,8.2,4,13.5,4c6.6,0,11.1-3.8,11.1-9.2C603.6,155.8,600,152.6,593,149.8z M545,149.8
		c-9.5-3.7-15.4-8-15.4-16.2c0-7.8,5.5-13.7,14.1-15.1v-9.4h5.8v9.1c5.6,0.2,9.4,1.7,12.2,3.3l-2.3,6.2c-2-1.1-5.8-3.2-11.8-3.2
		c-7.2,0-9.9,4.3-9.9,8c0,4.9,3.5,7.3,11.6,10.7c9.6,3.9,14.5,8.8,14.5,17.1c0,7.4-5.1,14.3-14.8,15.9v9.7h-5.9v-9.5
		c-5.4-0.1-11-1.8-14.3-4.1l2.2-6.3c3.4,2.2,8.2,4,13.5,4c6.7,0,11.1-3.8,11.1-9.2C555.6,155.8,552,152.6,545,149.8z"/>
	<polygon points="557.6,498 554.5,497.6 554.5,500.4 557.3,500.7 	"/>
	<path d="M1008.5,238.9c-12.1-4.2-25.2,2.2-29.4,14.3l-42.6,123.2l-67.2-6.8c-1.3-0.1-2.6-0.2-3.9-0.2c0,0-0.1,0-0.1,0l-25.2,35.2
		l-20.5-34.5c0,0-5.2,0-7.8,0.4l-106.2,18l-59.8-114.3c-5.5-10.4-18.2-15.3-29.3-10.7c-11.8,4.9-17.4,18.4-12.6,30.2l57.9,140.8
		c4,9.7,13.3,16.6,24,17.4c0.7-2.1,1.9-4,3.6-5.5c2.8-2.6,7.5-3.8,14.2-3.8l59.5,0.1l1.1,2.7l3.3-0.3c0.1,1.3,0,2.5,0.1,3.8l0.5,6.4
		L817.7,578c6.4,0,10.7,0.7,12.8,2.1c4.1,3,6.2,6.8,6.2,11.7c0,4-1.4,7.3-4.2,9.9c-2.8,2.6-7.5,3.8-14.1,3.8h-37.1
		c-0.2,0-0.5,0-0.7,0l0.3,3.7c0.4,4.8,1.3,9.5,2.5,14l-96.6,85.6l-2.6,2.3c-8.9,7.9-13.4,20.2-10.8,32.7l37.9,179.7
		c3.1,14.4,16.7,24.5,31.7,22.7c15.8-1.9,27.2-16.3,25.3-32.1l-18.9-159.2l91.1-66.7l-3.4,45.3l-0.3,3.7c-0.3,4.1,0.2,8.3,1.7,12.3
		L906.8,937c5,13.7,19.8,21.8,34.3,18.1c15.5-3.9,24.9-19.6,21-35.1l-46.4-183.6l17.9-109.3c0.2-1.2,0.4-2.5,0.5-3.8
		c0.4-4.6-0.1-9.2-1.1-13.5c0.1-1.4,0.2-2.9,0.3-4.3h-52.9c-6.6,0-11.3-1.3-14.2-3.8c-2.8-2.6-4.2-5.9-4.2-10c0-4,1.4-7.3,4.2-9.9
		c2.8-2.6,7.5-3.8,14.2-3.8h18.4v-76.8l-30.4,1.9c-0.6,3.2-1.7,5.7-3.3,7.4c-2.6,2.8-5.9,4.2-10,4.2c-4,0-7.3-1.4-9.9-4.2
		c-2.6-2.8-3.8-7.5-3.8-14.2v-53.7l78.8,0.1l-0.3-3.3l36-0.4l3.1,0c12.6-0.1,24.1-8.8,27.2-21.6l37.2-151.1
		C1026.1,254.8,1019.8,242.8,1008.5,238.9z"/>
	<path d="M51.6,470.3l-7.9,14.8v11.2c0,6.6-1.3,11.3-3.8,14.2c-2.6,2.8-5.9,4.2-10,4.2c-0.6,0-1.1,0-1.7-0.1l-4.3,8.5l-2.3,4.7
		l-1.4,3.2c-1.1,2.7-2,5.5-2.5,8.3c-1.8,12.6,7,24.3,19.7,26.1c12.6,1.8,24.3-7,26.1-19.7c0,1.4-0.3,2.9-0.8,4.2l-0.2,0.5l0.1-0.2
		l0.2-0.4l0.5-0.8l2-3.2l4.6-7.3l3.7-5.6v-62.6H51.6z"/>
	<path d="M554.5,507.4v2.6h4.9c12.1-10.9,23.8-24.6,28.6-39.7h-5.5C577.6,484.4,566.2,497.2,554.5,507.4z"/>
	<polygon points="524.6,503.4 527,503.7 527,500.9 524.9,500.7 	"/>
	<polygon points="931.5,578 926.2,515.4 926.2,578 	"/>
	<polygon points="585.2,442.4 584.7,442.7 585.5,442.7 	"/>
	<path d="M274.4,358.5c44.1,6.1,84.8-24.8,90.9-68.9c0.2-1.4,0.2-2.7,0.4-4.1c14.7,7.7,27.4,10.5,29.3-0.9c2.2-12.8-8-25-20-34.6
		l2.1-15.6c3-21.6-12.1-41.4-33.7-44.4l-85.8-11.8c-21.5-3-41.4,12.1-44.3,33.6l-2.6,19.3c-0.9,6.5,0.3,9.6,3,10.9
		c-4,7.8-6.8,16.3-8.1,25.5C199.5,311.7,230.2,352.4,274.4,358.5z"/>
	<polygon points="554.5,470.3 554.5,473.3 558.3,470.3 	"/>
	<path d="M788,578l-6.6-16.8h-4.5l1.4,16.9c1-0.1,1.9-0.1,3-0.1H788z"/>
	<polygon points="101.1,470.3 101.1,491.4 115.3,470.3 	"/>
	<path d="M389.4,515.8h21.5c8,0,15.1-1.2,21.3-3.6c7.8-3,13.2-6.1,16.3-9.4l-59.1-28.4V515.8z"/>
	<path d="M357.5,470.3c-6.6,0-11.3-1.3-14.2-3.8c-2.8-2.6-4.2-5.9-4.2-10c0-4.1,1.4-7.5,4.2-10c1.1-1,2.5-1.8,4.1-2.4l-50.4-63
		c-0.7-0.9-1.5-1.7-2.2-2.5c-3.8-3.9-8.4-6.7-13.2-8.4c-6.5-4.8-13.9-8.7-22.1-11.3c-13.1-4.1-26.4-4.5-38.9-1.9
		c-5.1-0.8-10.4-0.5-15.7,1.1l-97.8,30.1l-3,0.9c-6.3,2-11.9,6.3-15.3,12.5l-22.3,41l75.5,0.1l11.5-2.4l-0.7,2.4l6,0v53.6
		c0,6.6-1.3,11.3-3.8,14.2c-2.6,2.8-5.9,4.2-10,4.2c-4,0-7.3-1.4-9.9-4.2c-1-1.1-1.8-2.5-2.4-4.2l-17.6,55.6
		c-1.7,5.3-2.7,10.7-3.2,16.1h7.7c6.6,0,11.3,1.3,14.2,3.8c2.8,2.6,4.2,5.9,4.2,10c0,4-1.4,7.3-4.2,9.9c-2.8,2.6-7.5,3.8-14.2,3.8
		h-10.7l-7.3,87.4l-98,168.3c-6.9,11.9-3.8,27.4,7.7,35.5c12.1,8.7,29,5.8,37.6-6.3l118.7-166.6c2.4-3.4,4.2-7.5,5-11.9l0.5-3.2
		l6.7-39.3l69.6,80.6l-34.2,155.7c-2.9,13.5,4.9,27.3,18.3,31.5c14.2,4.4,29.4-3.5,33.8-17.7l53.1-170.2c2.8-9.2,1.5-19.6-4.6-28
		l-1.8-2.4l-64.6-89.3c4.6-6.4,8.4-13.7,10.9-21.7l2.4-7.7c-1.9-2.3-2.9-5.2-2.9-8.6c0-4,1.4-7.3,4.3-9.9c1.4-1.2,3.1-2.1,5.3-2.8
		l13-40.9h-58.7V578h4.3c6.6,0,11.3,1.3,14.2,3.8c2.8,2.6,4.2,5.9,4.2,10c0,4-1.4,7.3-4.2,9.9c-2.8,2.6-7.5,3.8-14.2,3.8h-33.7
		c-6.6,0-11.3-1.3-14.2-3.8c-2.8-2.6-4.2-5.9-4.2-10c0-5,2.2-8.9,6.6-11.7c2.1-1.4,6.7-2.1,13.7-2V470.3c-4.8-0.4-8.5-1.9-10.9-4.4
		c-2.5-2.5-3.7-5.6-3.7-9.4c0-4.1,1.4-7.5,4.2-10c2.8-2.6,7.5-3.8,14.2-3.8l28.1,0.1c6.6,0,11.3,1.3,14.2,3.8
		c2.8,2.5,4.2,5.8,4.2,9.9c0,4.1-1.4,7.5-4.2,10c-2.8,2.6-7.5,3.8-14.2,3.8h-4.3v40.3h58.8v-40.3h-4.3c-6.6,0-11.3-1.3-14.2-3.8
		c-2.8-2.6-4.2-5.9-4.2-10c0-4.1,1.4-7.5,4.2-10c2.8-2.6,7.5-3.8,14.2-3.8l28.1,0.1c6.6,0,11.3,1.3,14.2,3.8
		c2.8,2.5,4.2,5.8,4.2,9.9c0,3.8-1.2,6.9-3.7,9.4c-2.5,2.5-6.1,4-10.9,4.4v25.5l8.5,8.8l2,2.1c2.4,2.4,5.3,4.4,8.7,5.7l32.1,12
		v-54.1H357.5z"/>
	<path d="M450.9,534.5c5.8,5.1,12,11.6,18.7,19.6c2.6,3.3,5.9,7.7,9.7,13.3c9.6,1.1,19.2-3.8,23.6-12.9c2.6-5.5,2.9-11.5,1.2-16.9
		l8.7-6.9l5.9,7.5l1.9-1c0.2-0.1,2.7-1.4,6.5-3.7v-6.1c-3,1.9-5.4,3.3-7,4.1l-3.3-4.1l0.1-0.1l-11.8-14.9l21.9-17.4v-6.6l-25.1,19.9
		l-0.5-0.6l-14.8,11.8c-0.1,0.4-0.3,0.8-0.4,1.2L474,515c-0.2,0.2-0.3,0.5-0.5,0.7C468.5,522.8,461,529,450.9,534.5z M500.5,515.7
		l8.6,10.8l-7.5,5.9c-2.2-3.7-5.5-6.8-9.7-8.8l-0.9-0.5L500.5,515.7z"/>
	<ellipse cx="825.2" cy="281.1" rx="83.2" ry="83.2"/>
	<path d="M412.7,543.4l10.6,4c-2.3-1.6-4.5-2.9-6.7-4H412.7z"/>
</g>
</svg>
