<?xml version="1.0" encoding="utf-8"?>
<!-- Generator: Adobe Illustrator 22.0.1, SVG Export Plug-In . SVG Version: 6.00 Build 0)  -->
<svg version="1.1" id="Layer_1" xmlns="http://www.w3.org/2000/svg" xmlns:xlink="http://www.w3.org/1999/xlink" x="0px" y="0px"
	 viewBox="0 0 1024 1024" style="enable-background:new 0 0 1024 1024;" xml:space="preserve">
<style type="text/css">
	.st0{fill:#010002;}
</style>
<g>
	<path class="st0" d="M225.2,538.4v-85.1c6.3,0,11-1.4,14.1-4.2c3-2.8,4.5-6.4,4.5-10.8c0-4.5-1.5-8.1-4.6-10.8
		c-3.1-2.7-8.2-4.1-15.5-4.1l-39.4-0.1c-7.2,0-12.4,1.4-15.5,4.2s-4.6,6.4-4.6,10.9c0,4.5,1.5,8.1,4.6,10.9s8.2,4.2,15.5,4.2h10.8
		v87.7c0,5.8-1.2,10.6-3.7,14.6c-3.9,6.3-8.9,11.2-15.1,14.5c-6.2,3.3-12.7,5-19.8,5c-10.5,0-19.6-3.4-27-10.3s-11.2-14.8-11.2-23.8
		v-87.7h10.8c7.2,0,12.4-1.4,15.5-4.2s4.6-6.4,4.6-10.9c0-4.5-1.5-8.1-4.6-10.9s-8.2-4.2-15.5-4.2l-39.4,0.1
		c-7.3,0-12.5,1.4-15.5,4.1c-3,2.7-4.5,6.3-4.5,10.8c0,4.4,1.5,8,4.5,10.8c3,2.8,7.7,4.2,14.1,4.2v85.1c0,11.5,1.8,20.7,5.4,27.6
		c3.6,6.9,8.7,13.5,15.2,19.8c6.5,6.3,13.8,11.2,22,14.4c8.2,3.3,16.9,4.9,26.1,4.9c18.8,0,34.8-6.5,48.1-19.5
		C218.5,572.8,225.2,557,225.2,538.4z"/>
	<path class="st0" d="M284.5,570.8c-7.1,0-12.3,1.4-15.4,4.2c-3.1,2.8-4.7,6.4-4.7,10.8c0,4.5,1.5,8.1,4.6,10.9s8.2,4.2,15.5,4.2h65
		c7.2,0,12.4-1.4,15.5-4.2s4.6-6.4,4.6-10.8c0-4.5-1.5-8.1-4.6-10.9s-8.2-4.2-15.5-4.2h-30.3v-30.9h28.4c12.1,0,21.8-1.4,29.2-4.3
		c7.4-2.9,14.6-7.2,21.7-12.9c7.1-5.7,12.1-11.5,15.2-17.4c4-7.8,6-16.1,6-24.9c0-15.9-5.9-29.4-17.8-40.5
		c-11.9-11.1-28-16.6-48.3-16.6l-69.1-0.1c-7.2,0-12.4,1.4-15.5,4.2s-4.6,6.4-4.6,10.9c0,4.5,1.5,8.1,4.6,10.9s8.2,4.2,15.5,4.2h4.7
		v117.5H284.5z M319.2,453.3h34.6c11.5,0,20.4,2.6,26.6,7.9c6.2,5.3,9.3,11.4,9.3,18.5c0,8.3-3.8,15.4-11.5,21.3
		c-7.7,5.9-18,8.9-31.1,8.9h-27.8V453.3z"/>
	<path class="st0" d="M458.5,498c4.9,7.8,11.5,13.9,19.9,18.2c8.4,4.3,20.8,8,37.2,11c13.6,2.5,22.3,4.5,26.2,6
		c6,2.1,10.3,4.9,12.9,8.1c2.6,3.3,4,6.8,4,10.5c0,5.6-2.7,10.3-8.2,14.1c-8.6,6.3-19.6,9.4-33,9.4c-8.6,0-16.5-1.6-23.7-4.7
		c-7.2-3.1-12.3-6.2-15.1-9.2c-1.4-1.6-2.7-4.5-4-8.9c-1.3-4.3-3.1-7.4-5.5-9.3c-2.4-1.9-5.3-2.8-8.9-2.8c-4.6,0-8.3,1.5-11.1,4.6
		s-4.2,8.2-4.2,15.5v20.2c0,7.1,1.4,12.2,4.2,15.3s6.5,4.6,11.1,4.6c2.3,0,4.3-0.4,5.9-1.3s3.7-2.9,6.4-6c7.4,4,15.1,7,22.9,9
		c7.9,2,15.9,3,24.2,3c21.5,0,39.2-5.9,53-17.6c10.4-8.9,15.7-20.8,15.7-35.6c0-10.6-2.7-19.8-8.2-27.5c-5.5-7.7-12.3-13.4-20.6-17
		c-8.3-3.6-20.1-6.9-35.4-10c-15.4-3-24.7-5.2-28.1-6.6c-5-2-8.8-4.7-11.4-8.1c-2.6-3.5-3.9-7.1-3.9-10.8c0-5.5,3.1-10.7,9.4-15.7
		c6.3-5,14.9-7.5,25.7-7.5c7.4,0,14,1.3,19.6,3.8c5.7,2.5,9.9,5.7,12.7,9.4c1.7,2.1,3,5.7,4.1,10.7c1.1,5,2.7,8.3,4.8,10
		c2.7,2.2,6,3.4,9.7,3.4c4.4,0,8-1.5,10.8-4.6s4.2-8.2,4.2-15.5v-22.6c0-7.1-1.4-12.2-4.2-15.3s-6.4-4.6-10.8-4.6
		c-3.9,0-7.8,1.9-11.7,5.7c-5.4-3.5-11.4-6.1-17.9-7.8c-6.6-1.7-13.7-2.6-21.5-2.6c-19.2,0-34.9,5.4-46.9,16.2
		c-12,10.8-18,23.4-18,37.7C451.2,481.8,453.6,490.2,458.5,498z"/>
	<path class="st0" d="M740,484.4c2.8,3,6.4,4.5,10.9,4.5c4.5,0,8.1-1.5,10.8-4.6c2.7-3.1,4.1-8.2,4.1-15.3v-45.7l-134.8-0.1
		c-7.2,0-12.4,1.4-15.5,4.2s-4.6,6.4-4.6,10.9c0,4.5,1.5,8.1,4.6,10.9s8.2,4.2,15.5,4.2h4.7v117.5h-4.7c-7.1,0-12.3,1.4-15.4,4.2
		c-3.1,2.8-4.7,6.4-4.7,10.8c0,4.5,1.5,8.1,4.6,10.9s8.2,4.2,15.5,4.2h141.4v-46.3c0-7.2-1.4-12.4-4.2-15.5s-6.4-4.6-10.8-4.6
		c-4.5,0-8.1,1.5-10.9,4.6s-4.2,8.2-4.2,15.5v16.3h-76.6v-44.1h26.4c0,7.9,0.7,13,2.2,15.2c3,4.8,7.3,7.2,12.9,7.2
		c5.3,0,9.5-2.3,12.6-6.9c1.6-2.2,2.3-6.6,2.3-13.2v-34.6c0-7.2-1.4-12.4-4.2-15.5s-6.4-4.6-10.8-4.6c-5.6,0-9.9,2.4-12.9,7.2
		c-1.5,2.2-2.2,7.3-2.2,15.1h-26.4v-43.4h70V469C735.8,476.2,737.2,481.4,740,484.4z"/>
	<path class="st0" d="M798.7,423.2v58.6c0,7.2,1.4,12.4,4.2,15.5s6.4,4.6,10.8,4.6c4.5,0,8.1-1.5,10.9-4.6s4.2-8.2,4.2-15.5v-28.4
		h32.5v117.5h-20.1c-7.2,0-12.4,1.4-15.5,4.2s-4.6,6.4-4.6,10.8c0,4.5,1.5,8.1,4.6,10.9s8.2,4.2,15.5,4.2h70.3
		c7.2,0,12.4-1.4,15.5-4.2s4.6-6.4,4.6-10.8c0-4.5-1.5-8.1-4.6-10.9s-8.2-4.2-15.5-4.2h-20.2V453.3h33v28.4c0,7.2,1.4,12.4,4.2,15.5
		s6.4,4.6,10.8,4.6c4.5,0,8.1-1.5,10.9-4.6s4.2-8.2,4.2-15.5v-58.4L798.7,423.2z"/>
	<path class="st0" d="M512,0C229.7,0,0,229.7,0,512s229.6,512,511.9,512s512-229.7,512-512S794.3,0,512,0z M512,972.2
		C258.2,972.2,51.8,765.8,51.8,512S258.3,51.8,512,51.8c253.8,0,460.3,206.4,460.3,460.2S765.8,972.2,512,972.2z"/>
	<circle class="st0" cx="339.9" cy="386.4" r="36.5"/>
	<path class="st0" d="M720.6,386.4c0-20.1-16.2-36.5-36.4-36.5c-20.1,0-36.5,16.4-36.5,36.5c0,20.2,16.4,36.5,36.5,36.5
		C704.3,422.9,720.6,406.5,720.6,386.4z"/>
	<path class="st0" d="M513.3,650.2c-125.2,0-240.5,51.4-308.5,137.4l40.7,32.1C303.8,746,403.9,702,513.4,702
		c106,0,205.3,44.1,265.5,118l40-32.7C748.9,701.5,634.7,650.2,513.3,650.2z"/>
	<polygon class="st0" points="458.4,315.5 320.5,234.5 294.3,279.1 432,360.1 	"/>
	<polygon class="st0" points="729.8,279.1 703.5,234.5 565.7,315.5 592,360.1 	"/>
</g>
</svg>
