<?xml version="1.0" encoding="iso-8859-1"?>
<!-- Generator: Adobe Illustrator 19.0.0, SVG Export Plug-In . SVG Version: 6.00 Build 0)  -->
<svg version="1.1" id="Capa_1" xmlns="http://www.w3.org/2000/svg" xmlns:xlink="http://www.w3.org/1999/xlink" x="0px" y="0px"
	 viewBox="0 0 150.362 150.362" style="enable-background:new 0 0 150.362 150.362;" xml:space="preserve">
<g>
	<path style="fill:#010002;" d="M75.173,150.362C33.726,150.362,0,116.636,0,75.181S33.726,0,75.173,0
		c41.455,0,75.188,33.726,75.188,75.181S116.629,150.362,75.173,150.362z M75.173,7.603c-37.26,0-67.57,30.314-67.57,67.577
		s30.31,67.577,67.57,67.577c37.267,0,67.585-30.314,67.585-67.577S112.441,7.603,75.173,7.603z"/>
	<g>
		<circle style="fill:#010002;" cx="49.898" cy="56.737" r="5.354"/>
		<path style="fill:#010002;" d="M105.81,56.737c0,2.955-2.391,5.354-5.346,5.354c-2.955,0-5.361-2.398-5.361-5.354
			c0-2.955,2.406-5.354,5.361-5.354C103.419,51.383,105.81,53.781,105.81,56.737z"/>
	</g>
	<path style="fill:#010002;" d="M114.357,120.405c-8.843-10.856-23.419-17.334-38.983-17.334c-16.076,0-30.778,6.464-39.332,17.29
		l-5.97-4.715c9.987-12.634,26.917-20.178,45.302-20.178c17.828,0,34.602,7.526,44.878,20.134L114.357,120.405z"/>
	<g>
		<polygon style="fill:#010002;" points="63.434,52.879 43.208,40.984 47.069,34.427 67.295,46.323 		"/>
		<polygon style="fill:#010002;" points="86.92,52.879 83.059,46.323 103.286,34.427 107.147,40.984 		"/>
	</g>
</g>
<g>
</g>
<g>
</g>
<g>
</g>
<g>
</g>
<g>
</g>
<g>
</g>
<g>
</g>
<g>
</g>
<g>
</g>
<g>
</g>
<g>
</g>
<g>
</g>
<g>
</g>
<g>
</g>
<g>
</g>
</svg>
