<?xml version="1.0" encoding="utf-8"?>
<!-- Generator: Adobe Illustrator 22.0.1, SVG Export Plug-In . SVG Version: 6.00 Build 0)  -->
<svg version="1.1" id="Layer_1" xmlns="http://www.w3.org/2000/svg" xmlns:xlink="http://www.w3.org/1999/xlink" x="0px" y="0px"
	 viewBox="0 0 1024 1024" style="enable-background:new 0 0 1024 1024;" xml:space="preserve">
<style type="text/css">
	.st0{fill:#010002;}
</style>
<g>
	<path class="st0" d="M283.4,432.9c3.3-3.6,4.9-8,4.9-13.1c0-6-2.1-10.8-6.2-14.5c-4.1-3.6-11-5.5-20.6-5.5l-53.1-0.2
		c-9.6,0-16.5,1.9-20.6,5.6s-6.2,8.6-6.2,14.6c0,6,2.1,10.8,6.2,14.6s11,5.6,20.6,5.6h20.9L216,551.9l-31.3-93.2h-41.6l-31.4,93.2
		L98.4,440h20.9c9.6,0,16.5-1.9,20.6-5.6s6.2-8.6,6.2-14.6c0-6-2.1-10.8-6.2-14.5c-4.1-3.6-11-5.5-20.6-5.5L66,399.7
		c-9.6,0-16.5,1.9-20.6,5.7c-4.1,3.8-6.2,8.8-6.2,15c0,5.3,1.6,9.7,4.7,13.2c3.1,3.5,7.7,5.6,13.9,6.3l23.8,196.7h44.9L163.7,523
		l38.5,113.7h44.1l23-196.7C275.4,438.9,280.1,436.6,283.4,432.9z"/>
	<path class="st0" d="M441,437.9l-15.4-38l-86.5-0.2c-9.6,0-16.5,1.9-20.6,5.6s-6.2,8.6-6.2,14.6c0,6,2.1,10.8,6.2,14.6
		s11,5.6,20.6,5.6h26.2l-62.9,156.6c-9.9-0.3-17,1.5-21.3,5.3c-4.3,3.8-6.4,8.7-6.4,14.6c0,6,2.1,10.8,6.2,14.6s11,5.6,20.6,5.6
		h53.9c9.6,0,16.5-1.9,20.6-5.6s6.2-8.5,6.2-14.4c0-6-2.1-10.8-6.2-14.6s-11-5.6-20.6-5.6h-9.8l9.8-24.4h89.4
		c4.1-3.9,8.4-7.8,12.8-11.6C452.4,519.6,447,478.7,441,437.9z M403.7,452.8l32.2,79.3h-64.6L403.7,452.8z"/>
	<path class="st0" d="M771.1,428.1c-1.1-2.5-1.6-5.2-1.6-8.3c0-3.1,0.6-5.9,1.7-8.4c-1-2.3-2.5-4.3-4.5-6.1c-3.4-3-8.8-4.8-16-5.3
		c6.8,9.8,13.3,19.7,19.5,29.9C770.6,429.4,770.9,428.8,771.1,428.1z"/>
	<path class="st0" d="M649,565.3c4.3,23.8,8.5,47.5,12.8,71.3h1.1l41-98c-7.6-15.4-15.9-30.4-24.8-45L649,565.3z"/>
	<path class="st0" d="M979.2,554.3c-3.7-4.1-8.5-6.2-14.4-6.2c-6,0-10.8,2.1-14.6,6.2s-5.6,11-5.6,20.6v21.7H842.6v-58.8h35.2
		c0,10.5,1,17.3,2.9,20.3c4,6.4,9.8,9.6,17.2,9.6c7,0,12.6-3.1,16.8-9.2c2.1-3,3.1-8.9,3.1-17.6v-46.1c0-9.6-1.9-16.5-5.6-20.6
		s-8.5-6.2-14.4-6.2c-7.4,0-13.2,3.2-17.2,9.6c-2,3-2.9,9.7-2.9,20.1h-35.2V440h93.4v20.9c0,9.6,1.9,16.5,5.6,20.5
		c3.7,4,8.6,6.1,14.6,6.1c6,0,10.8-2.1,14.5-6.2c3.6-4.1,5.5-10.9,5.5-20.4v-60.9l-179.7-0.2c-9.6,0-16.5,1.9-20.6,5.6
		c-2,1.8-3.5,3.9-4.5,6.2c1.1,2.5,1.7,5.3,1.7,8.4c0,3-0.6,5.8-1.7,8.3c1,2.3,2.5,4.4,4.5,6.2c4.1,3.7,11,5.6,20.6,5.6h6.3V488
		c6,12.1,11.7,24.4,17.1,36.9c10.3,24,2.6,51.4-17.1,66.6v5.1h-6.3c-0.5,0-1.1,0-1.6,0c-1.2,0.7-2.5,1.3-3.8,1.9
		c-5.2,2.3-10.4,3.6-15.7,4.3c-3.8,3.6-5.6,8.2-5.6,13.8c0,6,2.1,10.8,6.2,14.6s11,5.6,20.6,5.6h188.5v-61.7
		C984.8,565.3,982.9,558.4,979.2,554.3z"/>
	<path class="st0" d="M454.2,179.1c48.2,11.9,96.8-18,108.5-66.7c11.7-48.7-17.8-97.9-66-109.7c-48.2-11.9-96.8,18-108.5,66.7
		C376.4,118.1,406,167.2,454.2,179.1z"/>
	<path class="st0" d="M794.7,596.6c2.8-1.5,5.4-3.2,7.9-5.1V488c-9.9-19.9-20.7-39.3-32.3-58.1c-1.6,2.6-3.8,4.9-6.7,6.9
		c-3,2.1-9.1,3.1-18.4,3.1l-41.3,98.7c5,10.1,9.8,20.3,14.2,30.7c9.1,21.1,29.4,33.7,50.8,33.7c2.1,0,4.2-0.1,6.3-0.4
		c0.2-0.2,0.4-0.4,0.6-0.6C779.7,598.7,786,596.8,794.7,596.6z"/>
	<path class="st0" d="M542.4,440c-9.4,0-15.6-1-18.6-3.1c-6.3-4-9.4-9.7-9.4-17c0-6,2.1-10.8,6.2-14.6s11-5.6,20.6-5.6l54.1,0.2
		c9.5,0,16.3,1.8,20.4,5.5c4.1,3.6,6.2,8.5,6.2,14.5c0,6-2,10.8-6.1,14.6c-4,3.7-10.9,5.6-20.5,5.6h-9.4l57.6,138.3l5.4-12.9
		c-0.9-5.1-1.8-10.3-2.8-15.4c-0.6-3.4-1.5-6.5-2.5-9.5c-0.1-3.7-0.4-7.5-0.8-11.4c-4.3-35.3-9-70.7-14-105.9
		c18.4,22.2,35.2,45.8,50.2,70.6l22.5-53.7h-9.2c-9.6,0-16.5-1.9-20.6-5.6s-6.2-8.6-6.2-14.6c0-6,2.1-10.8,6.2-14.6s11-5.6,20.6-5.6
		l53.7,0.2c1.6,0,3.1,0.1,4.6,0.2c-48.4-70.1-109.1-131.1-179.7-180c-15.1-10.5-33.5-12.1-49.5-6.5c-34.1-1.1-69.2,14.5-87.6,43.6
		c-59.9-52.5-104.7-124.5-125.1-203.1c-7.8-29.9-38.1-47.8-67.6-39.9c-29.6,7.9-47.2,38.5-39.4,68.4
		c30.6,117.6,104,224.1,201.5,292.2c9.1,6.3,19.4,9.4,29.6,9.8c2.8,17.8,5.6,35.6,8.2,53.4l64.3,158.7c9.4,0,15.6,1,18.6,3.1
		c6,4.3,9,10,9,17c0,5.9-2,10.6-6.1,14.4c-4,3.7-10.9,5.6-20.5,5.6h-53.9c-9.6,0-16.5-1.9-20.6-5.6s-6.2-8.6-6.2-14.6
		c0-5.9,2.1-10.6,6.2-14.4s11-5.6,20.6-5.6h9.8l-9.6-24.4h-7.9c-120.7,113.4-149,257-79.1,407.8c9.4,20.3,29.3,32.2,50.1,32.2
		c7.9,0,15.9-1.7,23.5-5.3c27.7-13.2,39.6-46.4,26.6-74.4c-52.7-113.7-29.1-209.8,71.9-293.9c4,0.2,7.9,0.1,11.9-0.1
		c20.4,113.7,40.7,227.4,61.1,341c12.7,71,121.8,51.6,109-19.6c-19.4-107.7-38.6-215.5-58-323.3h-37.3L542.4,440z"/>
</g>
</svg>
