<?xml version="1.0" encoding="utf-8"?>
<!-- Generator: Adobe Illustrator 22.0.1, SVG Export Plug-In . SVG Version: 6.00 Build 0)  -->
<svg version="1.1" id="Layer_1" xmlns="http://www.w3.org/2000/svg" xmlns:xlink="http://www.w3.org/1999/xlink" x="0px" y="0px"
	 viewBox="0 0 1024 1024" style="enable-background:new 0 0 1024 1024;" xml:space="preserve">
<g>
	<path d="M326.9,630.5c9.6,0,16.5-1.9,20.6-5.6s6.2-8.5,6.2-14.4c0-6-2.1-10.8-6.2-14.6s-11-5.6-20.6-5.6h-27V531l65.6-97.3
		c9.4,0,16.1-1.9,20.3-5.6c4.2-3.7,6.3-8.6,6.3-14.6c0-6-2.1-10.8-6.2-14.5c-4.1-3.6-11-5.5-20.6-5.5l-37.7-0.2
		c-9.6,0.1-16.5,2-20.6,5.7c-4.1,3.6-6.2,8.5-6.2,14.5c0,4.4,1.2,8.3,3.7,11.7c2.5,3.4,6.6,6.2,12.5,8.4l-37.1,55.9l-37.9-55.9
		c10.5-4.4,15.8-11.1,15.8-20.1c0-6-2.1-10.8-6.2-14.5c-4.1-3.6-11-5.5-20.6-5.5l-36.3-0.2c-9.6,0-16.5,1.9-20.6,5.6
		s-6.2,8.6-6.2,14.6c0,5.9,2.1,10.7,6.2,14.5c4.1,3.8,10.6,5.7,19.4,5.7l66.2,97.3v57.7l38.9,41.8H326.9z"/>
	<path d="M478.7,531.6h32.1l43.1-44.7c-0.2-8.7-2.1-15-5.5-18.9c-3.7-4.1-8.5-6.2-14.4-6.2c-7.4,0-13.2,3.2-17.2,9.6
		c-2,3-2.9,9.7-2.9,20.1h-35.2v-57.8h93.4v20.9c0,4.7,0.4,8.7,1.3,12l38.7-40.2v-32.8l-179.7-0.2c-9.6,0-16.5,1.9-20.6,5.6
		s-6.2,8.6-6.2,14.6c0,6,2.1,10.8,6.2,14.6s11,5.6,20.6,5.6h6.3v156.6h-6.3c-9.5,0-16.3,1.9-20.5,5.6c-4.2,3.7-6.3,8.5-6.3,14.4
		c0,6,2.1,10.8,6.2,14.6c1.5,1.4,3.5,2.5,5.8,3.4l61.1-63.4V531.6z"/>
	<path d="M808,459.6c1.4,6.6,3.6,11.1,6.4,13.3c3.6,3,7.9,4.5,12.9,4.5c5.9,0,10.6-2.1,14.4-6.2s5.6-11,5.6-20.6v-30.1
		c0-3.1-0.2-6-0.6-8.5l-40.2,41.7C807,455.4,807.5,457.4,808,459.6z"/>
	<path d="M758.6,532.2c18.1,3.4,29.8,6.1,35,8c7.9,2.9,13.7,6.5,17.2,10.8c3.5,4.4,5.3,9,5.3,14c0,7.4-3.6,13.7-10.9,18.8
		c-11.5,8.3-26.1,12.5-43.9,12.5c-11.5,0-22-2.1-31.6-6.3c-9.6-4.2-16.3-8.3-20.1-12.3c-1.8-2.1-3.6-6-5.3-11.8
		c-0.5-1.6-1-3-1.6-4.4l-37.9,39.3v2.7c0,9.5,1.9,16.3,5.6,20.4s8.6,6.2,14.7,6.2c3.1,0,5.8-0.6,7.9-1.8s5-3.8,8.5-8
		c9.9,5.3,20.1,9.3,30.6,12c10.5,2.7,21.3,4,32.3,4c28.6,0,52.2-7.8,70.7-23.4c13.9-11.8,20.9-27.7,20.9-47.5
		c0-14.2-3.6-26.4-10.9-36.7c-7.3-10.3-16.4-17.8-27.4-22.7c-11-4.8-26.8-9.2-47.3-13.3c-0.4-0.1-0.8-0.2-1.2-0.2l-33.4,34.6
		C742.5,529,750.1,530.7,758.6,532.2z"/>
	<path d="M785.5,432.8c-7.6-3.4-16.3-5.1-26.2-5.1c-14.5,0-25.9,3.4-34.3,10.1c-8.4,6.7-12.6,13.7-12.6,21c0,5,1.7,9.7,5.2,14.4
		c3.4,4.6,8.5,8.2,15.1,10.8c4.3,1.8,16.4,4.6,36.2,8.6l37.4-38.8c-1.1-3.6-2.4-6.5-3.9-8.4C798.7,440.4,793.1,436.2,785.5,432.8z"
		/>
	<path d="M1012.2,185.1L957,130c-15.8-15.8-39.4-15.8-55.1,0H898L612.1,426.5v28.2c0,9.5-1.8,16.3-5.5,20.4
		c-3.6,4.1-8.5,6.2-14.5,6.2c-6,0-10.8-2-14.6-6.1c-1.9-2.1-3.3-4.9-4.3-8.5l-19.5,20.2c0,0.6,0,1.2,0,1.8v46.1
		c0,8.7-1,14.6-3.1,17.6c-4.2,6.1-9.8,9.2-16.8,9.2c-7.4,0-13.2-3.2-17.2-9.6c-2-3-2.9-9.8-2.9-20.3h-3.1l-32.1,33.3v25.5h102.1
		v-21.7c0-9.6,1.9-16.5,5.6-20.6S595,542,601,542c5.9,0,10.6,2.1,14.4,6.2s5.6,11,5.6,20.6v61.7H432.4c-6,0-11-0.7-14.8-2.2
		l-47.4,49.1c-7.9,7.9-19.7,7.9-27.6,0l-43.8-47H233c-9.5,0-16.3-1.9-20.4-5.6s-6.2-8.6-6.2-14.6c0-5.9,2.1-10.6,6.2-14.4
		s10.9-5.6,20.4-5.6h27v-1.7L126,445l-3.9-3.9c-15.8-15.8-39.4-15.8-55.1,0l-55.1,55.1C3.9,504.1,0,515.9,0,523.8
		c0,7.9,3.9,19.7,11.8,27.6c0,0,7.9,11.8,7.9,11.8L326.9,894c7.9,7.9,15.8,11.8,27.6,11.8c11.8,0,19.7-3.9,27.6-11.8l282.6-293.2
		v-24.3c0-9.6,1.9-16.5,5.6-20.6s8.6-6.2,14.7-6.2c4.7,0,8.6,1.2,11.8,3.7c2.3,1.8,4.2,4.5,5.8,8l33.1-34.4
		c-10.9-2.9-19.8-6.1-26.7-9.6c-11.2-5.7-20.1-13.8-26.6-24.2c-6.5-10.4-9.8-21.7-9.8-33.8c0-19.1,8-35.9,24-50.3
		c16-14.4,36.8-21.6,62.5-21.6c10.3,0,19.8,1.1,28.6,3.4c8.8,2.3,16.8,5.8,23.9,10.4c5.2-5.1,10.4-7.6,15.6-7.6
		c5.9,0,10.6,2.1,14.4,6.2c2.5,2.8,4.1,6.7,5,11.9l165.5-171.7C1027.9,224.5,1027.9,200.9,1012.2,185.1z"/>
</g>
</svg>
